<?xml version="1.0" encoding="UTF-8" standalone="no"?>
<svg width="29px" height="16px" viewBox="0 0 29 16" version="1.1" xmlns="http://www.w3.org/2000/svg" xmlns:xlink="http://www.w3.org/1999/xlink">
    <!-- Generator: Sketch 50.2 (55047) - http://www.bohemiancoding.com/sketch -->
    <title>126492</title>
    <desc>Created with Sketch.</desc>
    <defs></defs>
    <g id="diseno_mobile" stroke="none" stroke-width="1" fill="none" fill-rule="evenodd">
        <g id="Mobile_menu_servicios" transform="translate(-329.000000, -118.000000)" fill="#FFFFFF" fill-rule="nonzero" stroke="#F2F3F5">
            <g id="126492" transform="translate(343.500000, 126.000000) scale(1, -1) rotate(-270.000000) translate(-343.500000, -126.000000) translate(336.000000, 112.000000)">
                <path d="M1.94378346,13.9992665 L14.7635336,1.35401058 C15.0788221,1.04301357 15.0788221,0.544244774 14.7635336,0.23324776 C14.4482451,-0.0777492534 13.9425937,-0.0777492534 13.6273052,0.23324776 L0.236466389,13.441819 C-0.0788221297,13.7528161 -0.0788221297,14.2515848 0.236466389,14.5625819 L13.6273052,27.7652853 C13.781975,27.9178498 13.9901844,28 14.192445,28 C14.3947055,28 14.6029149,27.9237177 14.7575848,27.7652853 C15.0728733,27.4542883 15.0728733,26.9555195 14.7575848,26.6445224 L1.94378346,13.9992665 Z" id="Shape" transform="translate(7.500000, 14.000000) rotate(-180.000000) translate(-7.500000, -14.000000) "></path>
            </g>
        </g>
    </g>
</svg>