<?xml version="1.0" encoding="UTF-8" standalone="no"?>
<svg width="18px" height="18px" viewBox="0 0 18 18" version="1.1" xmlns="http://www.w3.org/2000/svg" xmlns:xlink="http://www.w3.org/1999/xlink">
    <!-- Generator: Sketch 50.2 (55047) - http://www.bohemiancoding.com/sketch -->
    <title>Shape</title>
    <desc>Created with Sketch.</desc>
    <defs></defs>
    <g id="Page-1" stroke="none" stroke-width="1" fill="none" fill-rule="evenodd">
        <g id="check" fill="#155B9E" fill-rule="nonzero">
            <path d="M9.00028317,0 C4.02878568,0 0,4.02972865 0,9 C0,13.9708377 4.0292891,18 9.00028317,18 C13.9707109,18 18,13.9708377 18,9 C18,4.03029498 13.9707109,0 9.00028317,0 Z M9.00028317,16.3124725 C4.96142915,16.3124725 1.68758063,13.038727 1.68758063,9 C1.68758063,4.96127305 4.96199549,1.68752753 9.00028317,1.68752753 C13.0385709,1.68752753 16.3124194,4.96127305 16.3124194,9 C16.3124194,13.038727 13.0386338,16.3124725 9.00028317,16.3124725 Z M12.5374189,5.17163193 C12.1548847,4.94327644 11.6660665,5.07881729 11.4461361,5.47537178 L8.42821234,10.8961874 L6.74742785,8.85036392 C6.4431121,8.49993358 6.03867923,8.31826858 5.65671136,8.54662406 C5.27417714,8.77554588 5.11610411,9.32626707 5.36365956,9.67952904 L7.70259924,12.5263272 C7.87753675,12.75355 8.07720464,12.8897201 8.28593403,12.928545 L8.28763306,12.9319429 L8.3090283,12.9330756 C8.3562866,12.9403749 9.06283277,13.0708817 9.36714853,12.5263901 L12.8311629,6.30459983 C13.0509675,5.90735316 12.9199532,5.40055374 12.5374189,5.17163193 Z" id="Shape"></path>
        </g>
    </g>
</svg>