<?xml version="1.0" encoding="UTF-8" standalone="no"?>
<svg width="16px" height="14px" viewBox="0 0 16 14" version="1.1" xmlns="http://www.w3.org/2000/svg" xmlns:xlink="http://www.w3.org/1999/xlink">
    <!-- Generator: Sketch 49.3 (51167) - http://www.bohemiancoding.com/sketch -->
    <title>telephone-with-fax</title>
    <desc>Created with Sketch.</desc>
    <defs></defs>
    <g id="visual_ent" stroke="none" stroke-width="1" fill="none" fill-rule="evenodd">
        <g id="01_Home_01destacado_tierra" transform="translate(-60.000000, -3448.000000)" fill="#012140" fill-rule="nonzero">
            <g id="Group" transform="translate(60.000000, 3364.000000)">
                <g id="telephone-with-fax" transform="translate(0.000000, 84.000000)">
                    <path d="M11.8561126,3.00020008 L10.1438874,3 C10.064444,3 10,3.11184474 10,3.24989996 C10,3.38795518 10.064398,3.49979992 10.1438874,3.49979992 L11.8561126,3.5 C11.935556,3.5 12,3.38815526 12,3.25010004 C12,3.11208483 11.935602,3.00020008 11.8561126,3.00020008 Z" id="Shape"></path>
                    <path d="M13.8449593,2.00043996 L10.1550407,2 C10.0694394,2 10,2.11179106 10,2.24978002 C10,2.38776898 10.0693897,2.49956004 10.1550407,2.49956004 L13.8449593,2.5 C13.9305606,2.5 14,2.38820894 14,2.25021998 C14,2.11227102 13.9306103,2.00043996 13.8449593,2.00043996 Z" id="Shape"></path>
                    <path d="M13.8449593,1.00043996 L10.1550407,1 C10.0694394,1 10,1.11179106 10,1.24978002 C10,1.38776898 10.0693897,1.49956004 10.1550407,1.49956004 L13.8449593,1.5 C13.9305606,1.5 14,1.38820894 14,1.25021998 C14,1.11231102 13.9306103,1.00043996 13.8449593,1.00043996 Z" id="Shape"></path>
                    <path d="M14.7112847,2.16905963 C14.7112847,1.4460629 14.7112847,0.723043027 14.7112847,0 C12.8717784,0 11.0322987,0 9.19279241,0 C9.19279241,0.722880967 9.19279241,1.44578509 9.19279241,2.16866605 C8.46187924,2.16866605 7.73091316,2.16866605 7,2.16866605 C7.19906576,2.56328257 7.29269863,2.9517871 7.29269863,3.38312182 C7.29269863,5.85058052 7.29269863,8.31808553 7.29269863,10.7855442 C7.29269863,11.216879 7.1990393,11.6053835 7,12 C9.55941312,12 12.1187998,12 14.6782129,12 C15.4082,12 16,11.4821483 16,10.8433766 C16,8.33734754 16,5.83134167 16,3.32528949 C16.0000265,2.69776936 15.4281754,2.18473316 14.7112847,2.16905963 Z M9.5232458,0.289161647 L14.3808313,0.289161647 L14.3808313,3.26748031 L9.5232458,3.26748031 L9.5232458,0.289161647 Z M9.87020863,9.48433997 C9.25123689,9.48433997 9.17625651,9.41872875 9.17625651,8.87710051 C9.17625651,8.33547227 9.25123689,8.26986105 9.87020863,8.26986105 C10.4891804,8.26986105 10.5641608,8.33547227 10.5641608,8.87710051 C10.5641608,9.41872875 10.4891804,9.48433997 9.87020863,9.48433997 Z M9.87020863,7.69158406 C9.25123689,7.69158406 9.17625651,7.62597284 9.17625651,7.0843446 C9.17625651,6.54271636 9.25123689,6.47710514 9.87020863,6.47710514 C10.4891804,6.47710514 10.5641608,6.54271636 10.5641608,7.0843446 C10.5641608,7.62597284 10.4891804,7.69158406 9.87020863,7.69158406 Z M9.87020863,5.898805 C9.25123689,5.898805 9.17625651,5.83319378 9.17625651,5.29156554 C9.17625651,4.7499373 9.25123689,4.68432608 9.87020863,4.68432608 C10.4891804,4.68432608 10.5641608,4.7499373 10.5641608,5.29156554 C10.5641608,5.83319378 10.4891804,5.898805 9.87020863,5.898805 Z M11.9520385,9.48433997 C11.3330668,9.48433997 11.2580864,9.41872875 11.2580864,8.87710051 C11.2580864,8.33547227 11.3330668,8.26986105 11.9520385,8.26986105 C12.5710103,8.26986105 12.6459907,8.33547227 12.6459907,8.87710051 C12.6459907,9.41872875 12.5710103,9.48433997 11.9520385,9.48433997 Z M11.9520385,7.69158406 C11.3330668,7.69158406 11.2580864,7.62597284 11.2580864,7.0843446 C11.2580864,6.54271636 11.3330668,6.47712829 11.9520385,6.47712829 C12.5710103,6.47712829 12.6459907,6.54273951 12.6459907,7.08436775 C12.6459907,7.62597284 12.5710103,7.69158406 11.9520385,7.69158406 Z M11.9520385,5.898805 C11.3330668,5.898805 11.2580864,5.83319378 11.2580864,5.29156554 C11.2580864,4.7499373 11.3330668,4.68432608 11.9520385,4.68432608 C12.5710103,4.68432608 12.6459907,4.7499373 12.6459907,5.29156554 C12.6459907,5.83319378 12.5710103,5.898805 11.9520385,5.898805 Z M14.0338685,9.48433997 C13.4148967,9.48433997 13.3399163,9.41872875 13.3399163,8.87710051 C13.3399163,8.33547227 13.4148967,8.26986105 14.0338685,8.26986105 C14.6528402,8.26986105 14.7278206,8.33547227 14.7278206,8.87710051 C14.7278206,9.41872875 14.6528137,9.48433997 14.0338685,9.48433997 Z M14.0338685,7.69158406 C13.4148967,7.69158406 13.3399163,7.62597284 13.3399163,7.0843446 C13.3399163,6.54271636 13.4148967,6.47710514 14.0338685,6.47710514 C14.6528402,6.47710514 14.7278206,6.54271636 14.7278206,7.0843446 C14.7277941,7.62597284 14.6528137,7.69158406 14.0338685,7.69158406 Z M14.0338685,5.898805 C13.4148967,5.898805 13.3399163,5.83319378 13.3399163,5.29156554 C13.3399163,4.7499373 13.4148967,4.68432608 14.0338685,4.68432608 C14.6528402,4.68432608 14.7278206,4.7499373 14.7278206,5.29156554 C14.7278206,5.83319378 14.6528137,5.898805 14.0338685,5.898805 Z" id="Shape"></path>
                    <path d="M4.5,2 C3.11927388,2 2,3.06438656 2,4.37735357 C2,6.79243608 2,9.20756392 2,11.6226464 C2,12.9356361 3.11929771,14 4.5,14 C5.88070229,14 7,12.9356134 7,11.6226464 C7,9.20756392 7,6.79243608 7,4.37735357 C7,3.06438656 5.88072612,2 4.5,2 Z" id="Shape"></path>
                    <path d="M1,3 C0.399641196,3.17148467 0,3.61972396 0,4.12154176 C0,6.70718855 0,9.29281145 0,11.8784582 C0,12.380276 0.399641196,12.8284914 1,13 C0.798187734,12.614894 0.702587649,12.2352581 0.702587649,11.8187885 C0.702587649,9.27293748 0.702587649,6.72703863 0.702587649,4.18118757 C0.702587649,3.76471797 0.798187734,3.38510599 1,3 Z" id="Shape"></path>
                </g>
            </g>
        </g>
    </g>
</svg>