<?xml version="1.0" encoding="UTF-8" standalone="no"?>
<svg width="70px" height="63px" viewBox="0 0 70 63" version="1.1" xmlns="http://www.w3.org/2000/svg" xmlns:xlink="http://www.w3.org/1999/xlink">
    <!-- Generator: Sketch 49.3 (51167) - http://www.bohemiancoding.com/sketch -->
    <title>656588</title>
    <desc>Created with Sketch.</desc>
    <defs></defs>
    <g id="visual_ent" stroke="none" stroke-width="1" fill="none" fill-rule="evenodd">
        <g id="01_Home_01destacado_tierra" transform="translate(-855.000000, -2320.000000)" fill="#155B9E" fill-rule="nonzero">
            <g id="Group-8" transform="translate(90.000000, 2310.000000)">
                <g id="656588" transform="translate(765.000000, 10.000000)">
                    <path d="M14.5174203,11 L14.4825797,11 C13.6638992,11 13,11.6717 13,12.5 C13,13.3283 13.6638992,14 14.4825797,14 L14.5174203,14 C15.3361008,14 16,13.3283 16,12.5 C16,11.67185 15.3361008,11 14.5174203,11 Z" id="Shape"></path>
                    <path d="M11.6283654,11 L7.3716346,11 C6.61421797,11 6,11.6717 6,12.5 C6,13.3283 6.61421797,14 7.3716346,14 L11.6283654,14 C12.385782,14 13,13.3283 13,12.5 C13,11.67185 12.3859192,11 11.6283654,11 Z" id="Shape"></path>
                    <path d="M60.1562885,33.7965604 L60.1562885,9.58711432 C60.1562885,7.32143766 58.3163347,5.47827278 56.0546053,5.47827278 L24.6095523,5.47827278 L24.6095523,4.10856763 C24.6095523,1.84316488 22.7695986,0 20.5080058,0 L4.10154648,0 C1.83995375,0.000136956819 0,1.84330183 0,4.10856763 L0,47.9350238 C0,50.2007004 1.83995375,52.0438653 4.1016832,52.0438653 L40.4906036,52.0438653 C42.2805184,58.3601769 48.0899489,63 54.9609962,63 C63.2535029,63 70,56.2417288 70,47.9347499 C70,41.4561445 65.896266,35.919939 60.1562885,33.7965604 Z M2.73436432,4.10856763 C2.73436432,3.35338772 3.34768224,2.73899943 4.10154648,2.73899943 L20.5080058,2.73899943 C21.2618701,2.73899943 21.875188,3.35325077 21.875188,4.10843067 L21.875188,5.47827278 L2.73436432,5.47827278 L2.73436432,4.10856763 Z M39.9364846,48.5710512 C39.9375784,48.5961143 39.9381252,48.6210405 39.939219,48.6462405 C39.9486525,48.8507171 39.9628712,49.0542349 39.9806446,49.2566571 C39.9818751,49.272681 39.9822852,49.288705 39.9837891,49.304592 L4.1016832,49.304592 C3.34768224,49.304592 2.73436432,48.6902037 2.73436432,47.9348868 L2.73436432,8.21740917 L56.0546053,8.21740917 C56.8086062,8.21740917 57.4219241,8.83179746 57.4219241,9.58711432 L57.4219241,33.0711002 C57.403057,33.0680871 57.3841899,33.0658958 57.3653228,33.0628827 C57.1884094,33.0342588 57.0106757,33.0083739 56.831985,32.985913 C56.8090164,32.9829 56.785911,32.9807087 56.7629423,32.9779695 C56.5934117,32.957563 56.4230608,32.9401694 56.2518896,32.9255151 C56.2250929,32.9230498 56.1982961,32.9204477 56.1714993,32.9182563 C55.9918516,32.9038759 55.8111101,32.8929193 55.629685,32.8849758 C55.5919508,32.8833324 55.5540799,32.8819628 55.5163456,32.8807302 C55.3319128,32.8738823 55.1470697,32.8693628 54.961133,32.8693628 C53.7950633,32.8693628 52.6593451,33.0030326 51.5688806,33.2558549 C51.3266159,33.3120072 51.086402,33.3740486 50.8485123,33.4417053 C50.1353901,33.6450862 49.4437326,33.9000998 48.7776415,34.2022265 C43.5604744,36.5688404 39.9221292,41.8341453 39.9221292,47.9344759 L39.9221292,47.9346129 L39.9221292,47.9347499 C39.9221292,48.1481286 39.9277347,48.3600008 39.9364846,48.5710512 Z M54.9609962,60.2608636 C48.6209624,60.2608636 43.3860219,55.432177 42.7269034,49.2535071 C42.7245792,49.2317309 42.7218448,49.2100918 42.7195206,49.1880417 C42.7132316,49.1262742 42.7084465,49.0642327 42.7031144,49.0021913 C42.699423,48.9593238 42.6950481,48.9167303 42.6919035,48.8738628 C42.6882122,48.8245583 42.6854778,48.7749799 42.68247,48.7255385 C42.679052,48.6706188 42.6749505,48.6155622 42.6722161,48.5605056 C42.6694818,48.5080511 42.6682513,48.4553227 42.6662005,48.4027313 C42.6641497,48.3513725 42.6618255,48.3000137 42.6604584,48.2486549 C42.657724,48.1442938 42.6564935,48.0397957 42.6564935,47.9348868 C42.6564935,41.7753908 47.1899329,36.6566297 53.0898707,35.7510712 C53.7001809,35.6572558 54.3251198,35.6087731 54.9612697,35.6087731 C55.0922457,35.6087731 55.2230851,35.6116492 55.3537877,35.6157579 C55.3904282,35.6168535 55.4269319,35.618497 55.4635724,35.6198666 C55.5663845,35.6239753 55.6690599,35.6294535 55.7715985,35.6361644 C55.8027703,35.6382188 55.8339421,35.6397253 55.8651138,35.6421905 C55.9928086,35.6513666 56.12023,35.6625971 56.2473779,35.6758819 C56.2786864,35.6791689 56.3099949,35.6831406 56.3414401,35.6867015 C56.4386467,35.6975211 56.5357167,35.7097102 56.6325132,35.722995 C56.6765364,35.7288842 56.7206964,35.7350473 56.7647197,35.7414842 C56.8627466,35.7558647 56.9605002,35.7717517 57.0579802,35.7885974 C57.1151285,35.7984583 57.17214,35.80873 57.2290147,35.8194127 C57.31378,35.8352996 57.3985453,35.8518714 57.4830372,35.8695388 C57.5464744,35.8828237 57.6096382,35.8966563 57.6728021,35.9110368 C57.725712,35.922952 57.7783485,35.935552 57.830985,35.9481521 C63.2361397,37.2465027 67.2661826,42.1277807 67.2661826,47.9348868 C67.2656357,54.731232 61.7457744,60.2608636 54.9609962,60.2608636 Z" id="Shape"></path>
                    <path d="M59.4071259,46.3364879 L59.4071259,44.4316415 C59.4071259,41.9880274 57.5118749,40 55.1821682,40 L53.8177018,40 C51.4879951,40 49.5927441,41.9880274 49.5927441,44.4316415 L49.5927441,46.3364879 C48.6596134,46.7373933 48,47.6990209 48,48.8204653 L48,52.3158426 C48,53.7957837 49.1478885,55 50.5588944,55 L58.4411056,55 C59.8521115,55 61,53.79592 61,52.3158426 L61,48.8204653 C60.99987,47.6990209 60.3402566,46.7373933 59.4071259,46.3364879 Z M52.1927181,44.4316415 C52.1927181,43.4918319 52.9216208,42.7272479 53.8177018,42.7272479 L55.1821682,42.7272479 C56.0782492,42.7272479 56.8071519,43.4918319 56.8071519,44.4316415 L56.8071519,46.1363079 L52.1927181,46.1363079 L52.1927181,44.4316415 Z M58.399896,52.2724793 L50.599974,52.2724793 L50.599974,48.8634194 L50.8927311,48.8634194 L58.1071389,48.8634194 L58.399896,48.8634194 L58.399896,52.2724793 Z" id="Shape"></path>
                </g>
            </g>
        </g>
    </g>
</svg>