<?xml version="1.0" encoding="UTF-8" standalone="no"?>
<svg width="25px" height="16px" viewBox="0 0 25 16" version="1.1" xmlns="http://www.w3.org/2000/svg" xmlns:xlink="http://www.w3.org/1999/xlink">
    <!-- Generator: Sketch 49.3 (51167) - http://www.bohemiancoding.com/sketch -->
    <title>Group 4</title>
    <desc>Created with Sketch.</desc>
    <defs></defs>
    <g id="visual_ent" stroke="none" stroke-width="1" fill="none" fill-rule="evenodd">
        <g id="06noticias_02noticia_01destacado_texto" transform="translate(-811.000000, -1034.000000)" fill="#155B9E">
            <g id="Group" transform="translate(595.000000, 1020.000000)">
                <g id="Group-4" transform="translate(216.000000, 14.000000)">
                    <path d="M0.0208500486,7.59982826 C0.0884170934,3.47857508 3.80487162,-0.130822659 7.84741058,0.00667042817 C9.78415449,-0.0848101209 11.6049929,0.774453608 13.0885302,1.98139788 C12.4555899,2.71460359 11.7999492,3.42139973 11.0991748,4.08218334 C9.31599232,2.82541485 6.77942397,2.4665715 4.99624153,3.91800843 C2.44471763,5.71685363 2.32881211,9.96416483 4.78259079,11.9005031 C7.1690695,14.1082882 11.6800377,13.0118829 12.3394173,9.63173105 C10.8443963,9.60886092 9.34590342,9.63173105 7.85114947,9.58217909 C7.84741058,8.67309113 7.84367169,7.76400318 7.84741058,6.85491522 C10.346323,6.84729184 12.8452354,6.84348015 15.3478867,6.8625386 C15.4977093,9.00144096 15.2204974,11.2778364 13.9316494,13.0464604 C11.9796828,15.8461463 8.06079425,16.6634815 5.0037193,15.4641606 C1.93542769,14.2724631 -0.23766734,10.968545 0.0208500486,7.59982826" id="Fill-186"></path>
                    <path d="M21.1634421,5 L23.0705258,5 C23.0737244,5.66341927 23.0769231,6.32992753 23.0833204,6.9933468 C23.7212235,7 24.3620969,7 25,7.0066532 L25,8.9900202 C24.3620969,8.9966734 23.7244222,9 23.0833204,9.0066532 C23.0769231,9.67339907 23.0737244,10.3368183 23.0705258,11 L21.1602435,11 C21.1538462,10.3368183 21.1538462,9.67339907 21.1474488,9.0099798 C20.5095457,9.0033266 19.8684439,8.9966734 19.2307692,8.9900202 L19.2307692,7.0066532 C19.8684439,7 20.506347,6.9966734 21.1474488,6.9933468 C21.1506475,6.32660093 21.1570448,5.66341927 21.1634421,5" id="Fill-187"></path>
                </g>
            </g>
        </g>
    </g>
</svg>