<?xml version="1.0" encoding="UTF-8" standalone="no"?>
<svg width="85px" height="74px" viewBox="0 0 85 74" version="1.1" xmlns="http://www.w3.org/2000/svg" xmlns:xlink="http://www.w3.org/1999/xlink">
    <!-- Generator: Sketch 49.3 (51167) - http://www.bohemiancoding.com/sketch -->
    <title>handshake copy</title>
    <desc>Created with Sketch.</desc>
    <defs></defs>
    <g id="visual_ent" stroke="none" stroke-width="1" fill="none" fill-rule="evenodd">
        <g id="01_Home_01destacado_tierra" transform="translate(-1188.000000, -2310.000000)" fill="#155B9E" fill-rule="nonzero">
            <g id="Group-8" transform="translate(90.000000, 2310.000000)">
                <g id="handshake-copy" transform="translate(1098.000000, 0.000000)">
                    <path d="M10.4138586,46.5859414 C10.0420958,46.2121788 9.52594741,46 9,46 C8.47405259,46 7.95790421,46.2121788 7.58594141,46.5859414 C7.2139786,46.9579042 7,47.4738526 7,48 C7,48.5261474 7.21377862,49.0420958 7.58594141,49.4140586 C7.95810419,49.7860214 8.47405259,50 9,50 C9.52594741,50 10.0420958,49.7860214 10.4138586,49.4140586 C10.7858214,49.0420958 11,48.5261474 11,48 C11,47.4718528 10.7860214,46.9579042 10.4138586,46.5859414 Z" id="Shape"></path>
                    <path d="M84.9429245,51.872408 C84.7055222,50.9829093 83.794927,50.4543787 82.9095661,50.6933012 L71.6832628,53.7142621 L64.6357368,27.2994033 L75.8620401,24.2784424 C76.747899,24.0400201 77.2735043,23.1256789 77.036102,22.2363469 C76.7986998,21.347015 75.8879385,20.8188179 75.0027436,21.0572402 L62.1727302,24.5096954 C61.636666,24.6539159 61.2339122,25.0463957 61.0509631,25.5307432 L57.8470291,23.7242356 C55.9084655,22.6309942 53.5875682,22.4114123 51.4791708,23.1213439 L48.3685375,24.169235 C46.2903548,24.8693296 44.4693303,26.1859877 43.1453563,27.9241365 L38.720378,25.225796 C36.8683085,24.0965412 34.6352334,23.8667888 32.5934082,24.5953941 L23.674721,27.7785821 L24.0019376,26.5521244 C24.2393399,25.6626257 23.7137347,24.7484512 22.8278757,24.5100289 L9.99786223,21.0575736 C9.11150523,20.8191513 8.20190605,21.3471817 7.96450382,22.2366804 C7.72710158,23.126179 8.2527068,24.0403536 9.13856576,24.2787759 L20.3648691,27.2997367 L19.6461877,29.9935755 C19.6456897,29.9955762 19.6450256,29.997577 19.6445276,29.9995777 L13.316845,53.7142621 L2.09037573,50.6931345 C1.20435076,50.4547122 0.294419549,50.9825759 0.0570173177,51.8722413 C-0.180384914,52.7617399 0.345220306,53.6759144 1.23107926,53.9143368 L14.0612587,57.366792 C14.2051942,57.4054731 14.3496278,57.4241467 14.4919031,57.4241467 C15.0128599,57.4241467 15.5016096,57.1750538 15.8127228,56.764067 L21.7564114,58.3925082 C21.5264798,60.321228 22.4319286,62.2952981 24.2104532,63.3263496 C24.9930505,63.7800189 25.8478645,63.9954327 26.6925516,63.9954327 C27.038694,63.9954327 27.3825122,63.9574185 27.7195238,63.8865587 C28.1008615,65.0604968 28.8891033,66.038862 29.9620618,66.661261 C30.7297177,67.1062604 31.5812114,67.3335119 32.4444922,67.3335119 C32.7874804,67.3335119 33.1324607,67.2959979 33.4747847,67.2234708 C33.8435053,68.3532258 34.6103311,69.3561001 35.7138364,69.9960056 C36.4965997,70.4496749 37.3514138,70.6652554 38.1959348,70.6650886 C38.5429073,70.6650886 38.8877216,70.6269077 39.2255633,70.5555478 C39.5939518,71.6864699 40.3612756,72.6905113 41.465445,73.3309169 C42.2480423,73.7845863 43.1028564,74 43.9475435,74 C45.341742,74 46.7062238,73.4119472 47.6644655,72.3380464 L47.8397779,72.4392508 C48.6183909,72.8884185 49.4690545,73.1018314 50.3092592,73.1018314 C52.0310064,73.1018314 53.7087595,72.2051634 54.6286517,70.6050662 L54.6411029,70.5833915 C55.2764444,69.4778122 55.4412978,68.2260116 55.1987491,67.0639112 C56.3658384,66.6811017 57.3385235,65.8908067 57.9574294,64.814405 C58.5760033,63.7383367 58.7712376,62.4972068 58.5178979,61.2907565 C58.79697,61.1985555 59.0675754,61.0800112 59.3278877,60.939292 L69.3455979,56.9438008 C69.6520626,57.2460803 70.0684295,57.4238133 70.5083707,57.4238133 C70.6504801,57.4238133 70.7952456,57.4053064 70.9390151,57.3664585 L83.7691946,53.9140033 C84.6547215,53.6760812 85.1804927,52.7617399 84.9429245,51.872408 Z M30.1310656,56.3622504 L28.138713,59.8278772 C27.6810082,60.6241744 26.6630008,60.89811 25.8706086,60.4382717 C25.0777184,59.9786001 24.8049548,58.9567187 25.2628257,58.1605883 L27.2551783,54.6949615 C27.5624731,54.1605953 28.1217794,53.8614837 28.6960272,53.8614837 C28.9774236,53.8614837 29.2626383,53.9333439 29.5234487,54.0844002 C29.9074427,54.30715 30.1821984,54.6666175 30.2970812,55.0969448 C30.4116319,55.5271054 30.3526964,55.976273 30.1310656,56.3622504 Z M35.8826742,59.6971618 L33.8903216,63.1629553 C33.6685249,63.5485992 33.3105954,63.8245355 32.8821092,63.9397452 C32.4539551,64.0547882 32.0063772,63.9959329 31.6222172,63.773183 C31.2382233,63.5504332 30.9633015,63.1909657 30.8487508,62.7606385 C30.7340341,62.3304779 30.7928036,61.8811435 31.0146003,61.4953329 L33.0069529,58.0295393 C33.3142477,57.49534 33.8733881,57.1960616 34.4476358,57.1960616 C34.7290322,57.1960616 35.0142469,57.2680885 35.2750573,57.4191449 C35.6590513,57.6418947 35.933807,58.0013622 36.0485237,58.4316894 C36.1632405,58.8620167 36.104305,59.3113511 35.8826742,59.6971618 Z M41.6337848,63.0320731 L39.6414322,66.4978666 C39.1838934,67.2941638 38.166052,67.567766 37.3736598,67.1080944 C36.5807696,66.6484228 36.308006,65.6265414 36.7658769,64.8302442 L38.7582295,61.3644507 C38.9800263,60.9788068 39.3379558,60.7028704 39.7664419,60.5876608 C39.9093813,60.5493131 40.0544789,60.5301393 40.1987464,60.5301393 C40.4862853,60.5301393 40.7703379,60.6058342 41.0261679,60.7542229 C41.4101618,60.9769728 41.6850836,61.3364402 41.7996343,61.7667675 C41.9145171,62.1970948 41.8557476,62.6462624 41.6337848,63.0320731 Z M47.3857254,66.3669845 L45.3933728,69.8326113 C44.935668,70.6289085 43.9181587,70.9026773 43.1252685,70.4430058 C42.3323782,69.9833342 42.0596147,68.9612861 42.5174855,68.1653223 L44.5098381,64.6996955 C44.8171329,64.1653294 45.3764393,63.8662178 45.950687,63.8662178 C46.2319174,63.8662178 46.5168001,63.9379112 46.7774445,64.0888008 L46.7789386,64.0896345 C47.5709988,64.5498062 47.8434303,65.5710207 47.3857254,66.3669845 Z M51.7653816,68.9156024 L51.7529304,68.9372771 C51.2972177,69.7297395 50.2840248,70.0040086 49.4936248,69.5478383 L49.4169256,69.5036552 L50.2616127,68.0344401 C50.5466614,67.5385884 50.7413977,67.0073901 50.8443273,66.4610196 L51.1476377,66.6379189 C51.1479697,66.6380856 51.1483018,66.6382524 51.1486338,66.6384191 L51.1622471,66.6462554 C51.9499908,67.1057602 52.2202642,68.124307 51.7653816,68.9156024 Z M61.936324,56.3105644 C61.9237068,56.0427978 61.8903377,55.7768653 61.8357186,55.5152676 C62.9604739,55.1444626 63.9595555,54.3728412 64.5983833,53.2619266 C65.9705018,50.8752025 65.1532073,47.8122259 62.7766947,46.4342116 L55.9549499,42.4787353 C55.1605655,42.0182301 54.1453804,42.2916655 53.6868455,43.0889631 C53.2283106,43.8865941 53.50041,44.9061413 54.2944624,45.3668132 L61.1160412,49.3222895 C61.9071053,49.780794 62.1790387,50.8001745 61.7181796,51.6016403 C61.2616368,52.3961034 60.2467838,52.6692054 59.4557197,52.2105342 L52.6339749,48.2548912 C51.8394245,47.794386 50.8245715,48.0678213 50.3660365,48.8651189 C49.9075016,49.6627499 50.1796011,50.6822971 50.9736534,51.1429691 L57.7953982,55.0986121 C58.1785621,55.320695 58.4524878,55.6793288 58.5670385,56.1086558 C58.6815892,56.5379827 58.6228197,56.9859832 58.3975366,57.3779628 C58.2663843,57.606048 58.0884157,57.7894497 57.8838845,57.9265009 L57.8813943,57.9275013 C57.7703299,57.9718512 57.6670682,58.0272051 57.5714433,58.0913958 C57.1175568,58.2709628 56.5894613,58.2501217 56.1352428,57.9868568 L49.3134979,54.0313805 C48.5189475,53.5708752 47.5037625,53.8443106 47.0453936,54.6416082 C46.5868586,55.4392392 46.8589581,56.4587864 47.6530105,56.9192916 L54.4747553,60.8747679 C55.2658194,61.3336059 55.5379188,62.3528196 55.0812101,63.147116 C54.8595793,63.5325933 54.5018158,63.8080294 54.0734957,63.9227389 C53.6461717,64.0367814 53.2000879,63.9774259 52.8174221,63.7550096 L48.4419163,61.2028904 C48.4414183,61.2025569 48.4407542,61.2023902 48.4400902,61.2020568 C48.4394261,61.2017233 48.438762,61.2012231 48.438098,61.2008897 C47.3349247,60.5613176 46.0869858,60.3955891 44.9286953,60.6395135 C44.5471916,59.4659088 43.7591158,58.4878771 42.6863233,57.8659783 C41.614361,57.244413 40.3777112,57.0478396 39.1760906,57.3021012 C38.7942549,56.1296636 38.0066771,55.1524655 36.9348808,54.5310669 C35.8313754,53.8914949 34.5836026,53.7257664 33.4256441,53.9698575 C33.0441404,52.7962528 32.2562306,51.8182211 31.1836042,51.1961556 L31.1834382,51.1961556 C28.8049334,49.8173076 25.7527376,50.6384474 24.379291,53.0270056 L23.0745748,55.2968528 L16.7917164,53.5755437 L22.6306492,31.690042 L33.7048823,27.7374001 C34.802079,27.3459206 36.0017074,27.4693 36.9963065,28.0760265 L41.3484041,30.730017 L37.9821068,36.183219 C36.6485039,38.3435253 36.9742264,41.1003876 38.774001,42.8872211 C39.820397,43.9261089 41.1925155,44.4453026 42.564966,44.4453026 C43.942729,44.4453026 45.320492,43.9219406 46.3677181,42.8757168 L54.7450286,34.5065932 C55.3949795,33.8570174 55.3978017,32.8012901 54.7511712,32.148213 C54.1042086,31.4951359 53.0529981,31.4928017 52.4028813,32.142044 L44.0257368,40.5111676 C43.2225536,41.3136338 41.914185,41.3156346 41.1085116,40.5155026 C40.4172229,39.8292465 40.2920471,38.7700178 40.8043711,37.9402081 L45.3578455,30.5641218 C46.2946713,29.0465554 47.7388405,27.8982935 49.4242303,27.3304149 L52.5346976,26.2825238 C53.7552439,25.8713703 55.0984757,25.9989179 56.2209068,26.6316541 L61.8692537,29.8163427 L68.2643386,53.786289 L61.936324,56.3105644 Z" id="Shape"></path>
                    <path d="M77.4140586,46.5859414 C77.0420958,46.2141786 76.5261474,46 76,46 C75.4738526,46 74.9579042,46.2141786 74.5861414,46.5859414 C74.2141786,46.9579042 74,47.4738526 74,48 C74,48.5261474 74.2139786,49.0420958 74.5861414,49.4140586 C74.9579042,49.7858214 75.4740526,50 76,50 C76.5259474,50 77.0420958,49.7860214 77.4140586,49.4140586 C77.7860214,49.0420958 78,48.5261474 78,48 C78,47.4738526 77.7864214,46.9579042 77.4140586,46.5859414 Z" id="Shape"></path>
                    <path d="M42,5 C40.8955104,5 40,5.7280344 40,6.62560215 L40,14.3743978 C40,15.2721281 40.8953105,16 42,16 C43.1044896,16 44,15.2719656 44,14.3743978 L44,6.6257647 C44,5.7280344 43.1044896,5 42,5 Z" id="Shape"></path>
                    <path d="M43.4138586,0.585941406 C43.0420958,0.213978602 42.5261474,0 42,0 C41.4740526,0 40.9579042,0.213778622 40.5859414,0.585941406 C40.2139786,0.95810419 40,1.47385261 40,2 C40,2.52594741 40.2137786,3.04209579 40.5859414,3.41385861 C40.9579042,3.78582142 41.4738526,4 42,4 C42.5259474,4 43.0420958,3.7860214 43.4138586,3.41385861 C43.7858214,3.04209579 44,2.52594741 44,2 C44,1.47385261 43.7860214,0.95790421 43.4138586,0.585941406 Z" id="Shape"></path>
                    <path d="M31.7491664,15.3106747 L28.4889357,9.89653678 C27.9726079,9.03928633 26.8300316,8.74535141 25.9351506,9.24056006 C25.0408305,9.73541026 24.7344361,10.8317517 25.2509508,11.6891814 L28.5111815,17.1033193 C28.857581,17.6782846 29.4858858,18 30.1321368,18 C30.4491868,18 30.7705363,17.922394 31.0651535,17.7594752 C31.9590998,17.2644458 32.2654942,16.1681044 31.7491664,15.3106747 Z" id="Shape"></path>
                    <path d="M59.0648051,9.24044928 C58.1704965,8.74540346 57.0271872,9.03934812 56.511053,9.89644772 L53.2508645,15.3107649 C52.7345434,16.1682229 53.0407469,17.2644214 53.9350555,17.7594672 C54.2294819,17.9223914 54.5508273,18 54.8680601,18 C55.5141158,18 56.1427863,17.6784532 56.4889944,17.1032896 L59.749183,11.6889724 C60.2655041,10.8316936 59.9591137,9.73531586 59.0648051,9.24044928 Z" id="Shape"></path>
                </g>
            </g>
        </g>
    </g>
</svg>