<?xml version="1.0" encoding="UTF-8" standalone="no"?>
<svg width="69px" height="61px" viewBox="0 0 69 61" version="1.1" xmlns="http://www.w3.org/2000/svg" xmlns:xlink="http://www.w3.org/1999/xlink">
    <!-- Generator: Sketch 49.3 (51167) - http://www.bohemiancoding.com/sketch -->
    <title>idea</title>
    <desc>Created with Sketch.</desc>
    <defs></defs>
    <g id="visual_ent" stroke="none" stroke-width="1" fill="none" fill-rule="evenodd">
        <g id="04empresa_01" transform="translate(-342.000000, -2960.000000)" fill="#155B9E" fill-rule="nonzero">
            <g id="idea" transform="translate(342.000000, 2960.000000)">
                <path d="M7.39244924,20 L1.60755076,20 C0.719672935,20 0,20.6715243 0,21.5 C0,22.3284757 0.719672935,23 1.60755076,23 L7.39231945,23 C8.28032707,23 9,22.3284757 9,21.5 C9,20.6715243 8.28032707,20 7.39244924,20 Z" id="Shape"></path>
                <path d="M67.3924492,20 L61.6075508,20 C60.7198027,20 60,20.6715243 60,21.5 C60,22.3284757 60.7198027,23 61.6075508,23 L67.3924492,23 C68.2801973,23 69,22.3284757 69,21.5 C69,20.6715243 68.2801973,20 67.3924492,20 Z" id="Shape"></path>
                <path d="M14.4925558,38.4440117 C13.8159636,37.8519961 12.7190366,37.8519961 12.0423045,38.4440117 L7.50744416,42.4119971 C6.83085195,43.0040127 6.83085195,43.9638197 7.50744416,44.5559577 C7.8458102,44.8520267 8.28922499,45 8.73249989,45 C9.1757748,45 9.61932946,44.8520267 9.95755562,44.5559577 L14.4925558,40.5879723 C15.1691481,39.996079 15.1691481,39.0361497 14.4925558,38.4440117 Z" id="Shape"></path>
                <path d="M59.4846691,0.451030367 C58.7972533,-0.150343456 57.683293,-0.150343456 56.9957352,0.451030367 L52.5154553,4.37133621 C51.8281816,4.97271004 51.8281816,5.94781338 52.5154553,6.54906288 C52.8593052,6.8495633 53.3097203,7 53.7599933,7 C54.2105504,7 54.6606813,6.8495633 55.0043891,6.54893855 L59.484527,2.62875703 C60.1718007,2.02738321 60.1718007,1.05227986 59.4846691,0.451030367 Z" id="Shape"></path>
                <path d="M18.4845134,4.37019254 L14.0052966,0.450976038 C13.3178153,-0.150325346 12.2030922,-0.150325346 11.5156109,0.450976038 C10.8281297,1.05252615 10.8281297,2.02791534 11.5156109,2.62946546 L15.9948278,6.54880632 C16.3386395,6.8495192 16.7891906,7 17.2395995,7 C17.6900085,7 18.1407017,6.8495192 18.4843713,6.54880632 C19.1718525,5.94725621 19.1718525,4.97186702 18.4845134,4.37019254 Z" id="Shape"></path>
                <path d="M62.4914889,42.4068407 L57.9639143,38.4449231 C57.2857593,37.8516719 56.1868063,37.8516719 55.5085111,38.4450458 C54.8304963,39.038297 54.8304963,40.00023 55.5085111,40.5933586 L60.0362259,44.5550309 C60.3753033,44.8517178 60.8196504,45 61.2638574,45 C61.7083446,45 62.1524114,44.8515952 62.4914889,44.5550309 C63.1695037,43.9619023 63.1695037,42.9999693 62.4914889,42.4068407 Z" id="Shape"></path>
                <path d="M35,4 C23.4205064,4 14,12.6847485 14,23.3598935 C14,28.3227771 16.0170286,33.664818 19.5340862,38.0161886 C22.2352199,41.3579431 23.6627824,45.0761141 23.6627824,48.7689047 L23.6627824,58.048246 C23.6627824,59.6758097 25.1652449,61 27.0119232,61 L42.988212,61 C44.8348903,61 46.3373528,59.6758097 46.3373528,58.048246 L46.3373528,48.7689047 C46.3373528,45.0762332 47.7649153,41.3579431 50.4657786,38.0161886 C53.9828362,33.6649371 56,28.3227771 56,23.3598935 C55.9997296,12.6847485 46.5792232,4 35,4 Z M42.9879416,58.0484843 L27.0116528,58.0484843 L27.0116528,56.1180238 L34.9998648,56.1180238 C35.9247587,56.1180238 36.6745704,55.457299 36.6745704,54.6421468 C36.6745704,53.8269947 35.9247587,53.1662698 34.9998648,53.1662698 L27.0116528,53.1662698 L27.0116528,51.2359285 L42.9883472,51.2359285 L42.9902399,58.048246 C42.9902399,58.0484843 42.9894288,58.0484843 42.9879416,58.0484843 Z M32.6515995,30.5129996 L30.4121692,26.2963954 L39.5875604,26.2963954 L37.3484005,30.5129996 C37.260251,30.6789851 37.2079291,30.8580779 37.1940036,31.0408645 L35.8954206,48.2841745 L34.1044442,48.2841745 L32.8058612,31.0408645 C32.7920709,30.8580779 32.7396138,30.6789851 32.6515995,30.5129996 Z M47.7378756,36.3036661 C44.7468759,40.0042018 43.1130003,44.1362047 42.9948367,48.2841745 L39.2519974,48.2841745 L40.5148879,31.5129641 L43.7368069,25.446092 C43.9796236,24.9890062 43.9405512,24.454111 43.6331095,24.0282444 C43.325803,23.6024969 42.7928499,23.3445222 42.2201485,23.3445222 L27.7794459,23.3445222 C27.2067445,23.3445222 26.6739266,23.6024969 26.3664849,24.0282444 C26.0591784,24.4539919 26.0199708,24.9888871 26.2627875,25.4459728 L29.4848417,31.5128449 L30.7477322,48.2840553 L27.0046225,48.2840553 C26.8864589,44.1359664 25.2527185,40.0040827 22.2615836,36.3035469 C19.1852736,32.4974381 17.3487352,27.6585968 17.3487352,23.3597743 C17.3487352,14.3121931 25.2669143,6.95163485 34.9995944,6.95163485 C44.7322745,6.95163485 52.6504536,14.3121931 52.6504536,23.3597743 C52.650724,27.6588351 50.8141856,32.4976764 47.7378756,36.3036661 Z" id="Shape"></path>
            </g>
        </g>
    </g>
</svg>