<?xml version="1.0" encoding="UTF-8" standalone="no"?>
<svg width="18px" height="29px" viewBox="0 0 18 29" version="1.1" xmlns="http://www.w3.org/2000/svg" xmlns:xlink="http://www.w3.org/1999/xlink">
    <!-- Generator: Sketch 49.3 (51167) - http://www.bohemiancoding.com/sketch -->
    <title>149083</title>
    <desc>Created with Sketch.</desc>
    <defs></defs>
    <g id="visual_ent" stroke="none" stroke-width="1" fill="none" fill-rule="evenodd">
        <g id="03servicios_01" transform="translate(-174.000000, -1361.000000)">
            <g id="149083" transform="translate(174.000000, 1363.000000)">
                <path d="M13,11 L13,4.8600115 C13,2.1872424 11.2,0 9,0 C6.8,0 5,2.1872424 5,4.8600115 L5,11" id="Shape" stroke="#454D62" stroke-width="3" stroke-linecap="round" stroke-linejoin="round"></path>
                <circle id="Oval" fill="#FFDF73" fill-rule="nonzero" cx="9" cy="18" r="9"></circle>
                <path d="M18,18 C18,13.0296316 13.9703684,9 9,9 L9,27 C13.9703684,27 18,22.9703684 18,18 Z" id="Shape" fill="#EBBA16" fill-rule="nonzero"></path>
                <path d="M9.5,20 C8.675,20 8,19.325 8,18.5 L8,15.5 C8,14.675 8.675,14 9.5,14 C10.325,14 11,14.675 11,15.5 L11,18.5 C11,19.325 10.325,20 9.5,20 Z" id="Shape" fill="#424A60" fill-rule="nonzero"></path>
            </g>
        </g>
    </g>
</svg>