<?xml version="1.0" encoding="UTF-8" standalone="no"?>
<svg width="19px" height="14px" viewBox="0 0 19 14" version="1.1" xmlns="http://www.w3.org/2000/svg" xmlns:xlink="http://www.w3.org/1999/xlink">
    <!-- Generator: Sketch 49.3 (51167) - http://www.bohemiancoding.com/sketch -->
    <title>Shape</title>
    <desc>Created with Sketch.</desc>
    <defs></defs>
    <g id="visual_ent" stroke="none" stroke-width="1" fill="none" fill-rule="evenodd">
        <g id="01_Home_01destacado_tierra" transform="translate(-570.000000, -15.000000)" fill="#FFFFFF" fill-rule="nonzero">
            <g id="001-mail-black-envelope-symbol" transform="translate(570.000000, 15.000000)">
                <path d="M19,11.6666025 C19,12.0758214 18.8828386,12.4551865 18.6951532,12.7889631 L12.6960745,6.19460413 L18.6301114,1.09393033 C18.8609492,1.45382899 19,1.87658969 19,2.33343592 L19,11.6666025 Z M9.50001958,7.39194522 L17.7570397,0.293997384 C17.4182036,0.111759016 17.0366459,0 16.6250538,0 L2.37498532,0 C1.96288419,0 1.581209,0.111759016 1.24374344,0.293997384 L9.50001958,7.39194522 Z M11.802014,6.96252899 L9.89074032,8.6065599 C9.77894359,8.70223793 9.63973611,8.75001924 9.50001958,8.75001924 C9.36022473,8.75001924 9.22101725,8.70223793 9.10922052,8.6065599 L7.19751613,6.96245205 L1.12254875,13.6411016 C1.48668105,13.8655429 1.91342735,14 2.37494616,14 L16.6250538,14 C17.0864943,14 17.5134364,13.8655429 17.8774513,13.6411016 L11.802014,6.96252899 Z M0.36996688,1.09389186 C0.139168321,1.45379052 0,1.87655122 0,2.33343592 L0,11.666641 C0,12.0758598 0.116613185,12.4552249 0.30500339,12.7890016 L6.30337729,6.19348846 L0.36996688,1.09389186 Z" id="Shape"></path>
            </g>
        </g>
    </g>
</svg>