<?xml version="1.0" encoding="UTF-8" standalone="no"?>
<svg width="31px" height="31px" viewBox="0 0 31 31" version="1.1" xmlns="http://www.w3.org/2000/svg" xmlns:xlink="http://www.w3.org/1999/xlink">
    <!-- Generator: Sketch 49.3 (51167) - http://www.bohemiancoding.com/sketch -->
    <title>qr-code</title>
    <desc>Created with Sketch.</desc>
    <defs></defs>
    <g id="visual_ent" stroke="none" stroke-width="1" fill="none" fill-rule="evenodd">
        <g id="03servicios_01" transform="translate(-795.000000, -705.000000)" fill="#FFFFFF" fill-rule="nonzero">
            <g id="Group-9" transform="translate(720.000000, 665.000000)">
                <g id="Group-8" transform="translate(37.000000, 40.000000)">
                    <g id="qr-code" transform="translate(38.000000, 0.000000)">
                        <path d="M0,31 L14,31 L14,17 L0,17 L0,31 Z M2.79978547,19.8002145 L11.1999081,19.8002145 L11.1999081,28.1784858 L2.79978547,28.1784858 L2.79978547,19.8002145 Z" id="Shape"></path>
                        <rect id="Rectangle-path" x="5" y="22" width="3" height="3"></rect>
                        <rect id="Rectangle-path" x="22" y="28" width="3" height="3"></rect>
                        <rect id="Rectangle-path" x="28" y="28" width="3" height="3"></rect>
                        <polygon id="Shape" points="28.2000153 19.8002145 25.4002605 19.8002145 25.4002605 17 17 17 17 31 19.8002145 31 19.8002145 22.5999694 22.5997395 22.5999694 22.5997395 25.4002605 31 25.4002605 31 17 31 17 28.2000153 17"></polygon>
                        <path d="M0,14 L14,14 L14,0 L0,0 L0,14 Z M2.79978547,2.79972418 L11.1999081,2.79972418 L11.1999081,11.1996629 L2.79978547,11.1996629 L2.79978547,2.79972418 Z" id="Shape"></path>
                        <rect id="Rectangle-path" x="5" y="5" width="3" height="3"></rect>
                        <path d="M17,0 L17,14 L31,14 L31,0 L17,0 Z M28.1998314,11.1996629 L19.8001686,11.1996629 L19.8001686,2.79972418 L28.1998314,2.79972418 L28.1998314,11.1996629 Z" id="Shape"></path>
                        <rect id="Rectangle-path" x="22" y="5" width="3" height="3"></rect>
                    </g>
                </g>
            </g>
        </g>
    </g>
</svg>