<?xml version="1.0" encoding="UTF-8" standalone="no"?>
<svg width="69px" height="70px" viewBox="0 0 69 70" version="1.1" xmlns="http://www.w3.org/2000/svg" xmlns:xlink="http://www.w3.org/1999/xlink">
    <!-- Generator: Sketch 49.3 (51167) - http://www.bohemiancoding.com/sketch -->
    <title>117566</title>
    <desc>Created with Sketch.</desc>
    <defs></defs>
    <g id="visual_ent" stroke="none" stroke-width="1" fill="none" fill-rule="evenodd">
        <g id="01_Home_01destacado_tierra" transform="translate(-515.000000, -2314.000000)" fill="#155B9E" fill-rule="nonzero">
            <g id="Group-8" transform="translate(90.000000, 2310.000000)">
                <g id="117566" transform="translate(425.000000, 4.000000)">
                    <path d="M62.8494141,51.1754685 L36.4259512,44.0655877 L59.7664421,39.1567291 L59.1751872,36 L29.5279774,42.3279387 C27.6979028,42.7333901 28.2046927,45.3543441 29.5279774,45.4846678 L53.3048708,51.971891 L26.3042305,53.8688245 C24.8260933,54.0860307 24.5304658,55.7947189 25.4173482,56.7214651 L34.2298616,65.2649063 L15,66.8432709 L15.140775,70 L37.5943835,68.1030664 C38.6783508,68.1899489 39.6919307,66.4812606 38.4812659,65.2504259 L29.8236049,56.7069847 L62.6945616,54.3321976 C64.3134738,54.2597956 64.4964813,51.6388416 62.8494141,51.1754685 Z" id="Shape"></path>
                    <path d="M65,11 C65,7.1300813 61.8714286,4 58,4 C54.1285714,4 51,7.1300813 51,11 C51,14.8699187 54.1285714,18 58,18 C61.7285714,18 65,14.8699187 65,11 Z M53.9857143,11.1422764 C53.9857143,8.90853659 55.7714286,7.11585366 58,7.11585366 C60.0857143,7.11585366 62.0142857,8.75203252 62.0142857,10.9857724 C62.0142857,13.2195122 60.2285714,15.0121951 58,15.0121951 C55.7714286,15.0121951 53.9857143,13.3760163 53.9857143,11.1422764 Z" id="Shape"></path>
                    <path d="M69,11.467278 C69,5.04793664 64.0204604,0 58,0 C51.9936061,0 47,5.04793664 47,11.467278 C47,17.87203 58,35 58,35 C58,35 69,17.87203 69,11.467278 Z M58,3.06377657 C62.5434783,3.06377657 66.0601023,6.88620258 66.0601023,11.467278 C66.0601023,15.1292205 60.9258312,24.3059608 58,29.3538975 C55.0741688,24.3059608 49.9398977,15.1438099 49.9398977,11.467278 C49.9398977,6.88620258 53.4565217,3.06377657 58,3.06377657 Z" id="Shape"></path>
                    <path d="M11,39 C7.12857143,39 4,42.1300813 4,46 C4,49.8699187 7.12857143,53 11,53 C14.7285714,53 18,49.8699187 18,46 C18,42.1300813 14.8714286,39 11,39 Z M11,50.0406504 C8.77142857,50.0406504 6.98571429,48.4044715 6.98571429,46.1707317 C6.98571429,43.9369919 8.77142857,42.1443089 11,42.1443089 C13.0857143,42.1443089 15.0142857,43.7804878 15.0142857,46.0142276 C15.0142857,48.2479675 13.2285714,50.0406504 11,50.0406504 Z" id="Shape"></path>
                    <path d="M11,35 C4.99360614,35 0,40.0479366 0,46.467278 C0,52.87203 11,70 11,70 C11,70 22,52.87203 22,46.467278 C22,40.0333472 17.0063939,35 11,35 Z M2.9398977,46.4526886 C2.9398977,41.8716132 6.45652174,38.0491872 11,38.0491872 C15.5434783,38.0491872 19.0601023,41.8716132 19.0601023,46.4526886 C19.0601023,50.1146311 13.9258312,59.2913714 11,64.339308 C8.0601023,59.2913714 2.9398977,50.1292205 2.9398977,46.4526886 Z" id="Shape"></path>
                </g>
            </g>
        </g>
    </g>
</svg>