<?xml version="1.0" encoding="UTF-8" standalone="no"?>
<svg width="75px" height="65px" viewBox="0 0 75 65" version="1.1" xmlns="http://www.w3.org/2000/svg" xmlns:xlink="http://www.w3.org/1999/xlink">
    <!-- Generator: Sketch 50.2 (55047) - http://www.bohemiancoding.com/sketch -->
    <title>shield</title>
    <desc>Created with Sketch.</desc>
    <defs></defs>
    <g id="Page-1" stroke="none" stroke-width="1" fill="none" fill-rule="evenodd">
        <g id="shield" fill="#155B9E" fill-rule="nonzero">
            <path d="M74.5119858,53.563328 L66.9918544,49.1828784 L68.1607867,47.2395392 C68.3687922,46.8937846 68.3144471,46.4726832 68.0232394,46.1757576 C67.933592,46.0840918 65.8983606,44.0411824 61.2604238,41.9737948 C62.919341,38.8306415 64.2545312,35.3933674 65.2517858,31.6901478 C68.2529244,20.5459393 67.1707098,10.9771321 67.1231029,10.5752817 C67.0697832,10.1248574 66.6608034,9.76877618 66.1432798,9.7223696 C57.4017752,8.93753745 50.2770007,6.40021948 45.8395988,4.41009118 C41.0159218,2.24657565 38.2311382,0.241913418 38.2041854,0.222407356 C37.7963774,-0.0741357853 37.2029758,-0.0741357853 36.7954608,0.222407356 C36.6857452,0.302216473 25.6383092,8.21568566 8.85621994,9.72249709 C8.33869639,9.76903116 7.92971655,10.1249849 7.87639683,10.5754092 C7.85501034,10.7558084 7.3603381,15.0634609 7.91755848,21.2718708 C7.96487241,21.798152 8.49191734,22.1920979 9.09791648,22.1504085 C9.70274375,22.1093565 10.154643,21.649243 10.1074756,21.1230892 C9.69996058,16.5817465 9.87793712,13.0278184 9.99219367,11.5357959 C18.6887281,10.6290828 25.7667746,8.08857753 30.229811,6.08098301 C33.8672706,4.44476862 36.3586492,2.91857862 37.4997499,2.16969882 C38.6405575,2.91857862 41.1322291,4.44476862 44.7695423,6.08098301 C49.2327252,8.08857753 56.3104787,10.6289553 65.0068666,11.5357959 C65.1956829,14.0140858 65.5554445,22.1854684 63.1131376,31.25413 C62.0550927,35.1827529 60.6062318,38.7946891 58.7861837,42.0548788 C58.7352077,42.1461621 58.6830598,42.2361705 58.6314979,42.3266888 C58.5191456,42.5242992 58.4056215,42.7207622 58.2904861,42.9158229 C58.2255942,43.0257198 58.1607023,43.1354892 58.0949316,43.2446211 C57.972765,43.4472037 57.8486941,43.6480014 57.7235978,43.8476517 C57.6191556,44.0141544 57.5133951,44.1792547 57.4070486,44.3437176 C57.3115418,44.4913517 57.2155956,44.6386034 57.118624,44.7844526 C57.0209201,44.9310668 56.9221907,45.0767886 56.8228754,45.2217454 C56.7512453,45.3264152 56.6785899,45.4299375 56.6060809,45.5335874 C56.3717085,45.8685052 56.1333811,46.1994708 55.8897803,46.5253368 C55.8719094,46.5491775 55.8546244,46.5734008 55.8367535,46.5972415 C55.7098994,46.7660391 55.5814341,46.9326693 55.4522363,47.098917 C55.3968658,47.1701843 55.3412024,47.241324 55.2852459,47.3120813 C54.5217779,48.2807549 53.7172946,49.2069741 52.8726751,50.0871692 C52.8678411,50.0922689 52.8630072,50.0973685 52.8581733,50.1024681 C52.694552,50.2727956 52.529173,50.4409557 52.3626221,50.6079684 C52.2313736,50.7391562 52.0988067,50.8686866 51.9656539,50.9979621 C51.9388475,51.0239702 51.9123341,51.0504882 51.8855278,51.0763688 C51.73509,51.2214531 51.5834804,51.365135 51.4305524,51.5076695 C51.4227888,51.5149365 51.4150252,51.522331 51.4071151,51.5295979 C47.5303027,55.137327 42.8721512,57.9223592 37.4998964,59.8384155 C32.2399938,57.9608614 26.3515337,54.7482257 21.3570578,49.2577154 C21.3410912,49.2401217 21.3251246,49.2224005 21.309158,49.2048068 C21.2085243,49.0937625 21.1087696,48.9810608 21.0090148,48.8682316 C19.1872089,46.7937045 17.5703323,44.4953039 16.1818223,41.9990379 C16.1494496,41.9407747 16.1109246,41.8867187 16.0675657,41.8369974 C13.551871,37.2808657 11.5985235,31.7212555 10.566699,24.9336559 C10.4871589,24.4103069 9.93360057,24.0419866 9.33390019,24.111469 C8.7325885,24.1806964 8.30954632,24.6612084 8.38908645,25.1844299 C9.33580447,31.4118358 11.1324154,37.0401635 13.7393689,41.9737948 C9.10099262,44.0414374 7.06590777,46.0843468 6.97611384,46.1758851 C6.68505262,46.4728107 6.63070752,46.8939121 6.83842006,47.2396666 L8.0073524,49.1830059 L0.487367459,53.5634555 C0.168767478,53.7492093 -0.0156543046,54.0660235 0.00104472895,54.3994114 C0.0177437625,54.7327993 0.232926922,55.0344421 0.569104834,55.1954627 L6.71332379,58.1366709 L6.71332379,64.043948 C6.71332379,64.3870252 6.9246984,64.7038393 7.26702858,64.8740393 C7.4359232,64.9579281 7.62371408,64.9998725 7.81165145,64.9998725 C8.00471571,64.9998725 8.19792646,64.9555058 8.37004369,64.8670273 L20.5735216,58.596657 C20.5811387,58.5927048 20.5878769,58.5882426 20.5953475,58.5841629 C20.6077986,58.5774059 20.6199566,58.5703939 20.6321147,58.5632545 C20.6539406,58.5503779 20.6750342,58.5368639 20.6955417,58.5228399 C20.7055026,58.5159554 20.7156099,58.5091984 20.7252777,58.502059 C20.7510587,58.4830629 20.7755213,58.4631743 20.7989586,58.4425209 C20.8027671,58.4392061 20.8067221,58.4362738 20.8103842,58.4328316 C20.8388019,58.406951 20.8651688,58.3797955 20.8897779,58.3516201 C20.8905103,58.3507276 20.8915357,58.3499627 20.8924146,58.3489428 C20.8943188,58.3466479 20.8957837,58.3440981 20.8976879,58.3418033 C20.922883,58.312098 20.9457343,58.2813727 20.9666813,58.2495001 C20.9710758,58.2427431 20.9757632,58.2361136 20.9800112,58.2293566 C21.0012512,58.1951891 21.0204405,58.1602567 21.0367001,58.1243043 C21.0394832,58.1181848 21.0416805,58.1119377 21.0443172,58.1056907 C21.0575006,58.074583 21.0687798,58.0429653 21.0783012,58.0109652 C21.0807914,58.0024233 21.0835745,57.9940089 21.0857718,57.9854671 C21.0955861,57.9481123 21.1030568,57.9105026 21.1077442,57.8722554 C21.1083301,57.8671558 21.1084766,57.8620561 21.1089161,57.856829 C21.1124316,57.8224066 21.1136035,57.7878566 21.1127246,57.7531792 C21.1125781,57.7452748 21.1124316,57.7373703 21.1121387,57.7294659 C21.1100879,57.6903263 21.1058399,57.6510592 21.0982228,57.6120471 C21.0976369,57.6093698 21.096758,57.6066925 21.0961721,57.6038877 C21.0888479,57.5683178 21.0785941,57.5331304 21.0664361,57.4980705 C21.0632134,57.4888912 21.0599908,57.4798393 21.0566217,57.4707875 C21.0422664,57.4334327 21.0261533,57.396333 21.0060852,57.3599982 L19.5015608,54.6274921 C20.404627,54.2357135 21.4585704,53.8339906 22.6714476,53.4555985 C26.7253577,57.056953 31.5466909,59.8366306 37.0942856,61.7572765 C37.2248018,61.8024082 37.3623491,61.824974 37.5001893,61.824974 C37.6380296,61.824974 37.7757234,61.8024082 37.906093,61.7572765 C43.4438734,59.8399454 48.2726773,57.0577179 52.3293705,53.4558534 C53.5421012,53.8342455 54.5958981,54.2358409 55.4988178,54.6276196 L53.9942935,57.3601256 C53.9742253,57.3964605 53.9581122,57.4336877 53.9437569,57.4710425 C53.9402413,57.4800943 53.9370187,57.4891461 53.9339426,57.4983255 C53.9217845,57.5333854 53.9115307,57.5687003 53.9042066,57.6042702 C53.9036206,57.6069475 53.9027418,57.6096248 53.9023023,57.6123021 C53.8946852,57.6513142 53.8904372,57.6905813 53.8883864,57.7297209 C53.887947,57.7377528 53.887947,57.7456572 53.8878005,57.7535616 C53.8870681,57.7882391 53.8880935,57.822789 53.8916091,57.8572115 C53.892195,57.8623111 53.892195,57.8675382 53.8927809,57.8726379 C53.8973219,57.9107576 53.904939,57.9484948 53.9147533,57.985722 C53.9169506,57.9943914 53.9197338,58.0028058 53.9223704,58.0113476 C53.9317453,58.0433478 53.9430245,58.074838 53.956208,58.1058182 C53.9588446,58.1120652 53.9610419,58.1184398 53.9638251,58.1246868 C53.9800846,58.1606391 53.9991274,58.1954441 54.0203674,58.2294841 C54.0246154,58.2363686 54.0293028,58.2431256 54.0338438,58.2498826 C54.0547908,58.2815002 54.0774957,58.312353 54.1025442,58.3418033 C54.104595,58.3440981 54.1059133,58.3467754 54.1079641,58.3490703 C54.108843,58.3499627 54.1097219,58.3508551 54.1106008,58.3517476 C54.1352099,58.379923 54.1615768,58.4070785 54.1899944,58.4329591 C54.1936565,58.4364013 54.1976115,58.4393336 54.2014201,58.4426484 C54.2247108,58.4633018 54.2493199,58.4831904 54.2751009,58.5021865 C54.2847688,58.5093259 54.2948761,58.5160829 54.3048369,58.5229674 C54.3253445,58.5369914 54.346438,58.5505054 54.3682639,58.563382 C54.380422,58.5705214 54.3925801,58.5776609 54.4048846,58.5842904 C54.4123552,58.5883701 54.4190934,58.5928323 54.4267105,58.5967845 L66.630042,64.8671548 C66.8021592,64.9556333 66.995077,65 67.1884342,65 C67.3762251,65 67.5641625,64.9580556 67.7330571,64.8741668 C68.0753873,64.7039668 68.2867619,64.3871527 68.2867619,64.0440755 L68.2867619,58.1366709 L74.4309808,55.1954627 C74.7670123,55.0345696 74.9823419,54.7329268 74.9990409,54.3994114 C75.0150076,54.065896 74.8307323,53.7490818 74.5119858,53.563328 Z M8.91027208,62.3692314 L8.91027208,57.5711226 C8.91012559,57.2226908 8.69201278,56.9017969 8.34104011,56.7336368 L3.2103353,54.2776579 L9.03243869,50.8865353 L12.8953353,57.3086194 C12.9165753,57.3439343 12.9403055,57.3777194 12.9660865,57.4099745 C12.9761938,57.422596 12.9880589,57.4339427 12.9987521,57.4460543 C13.0157441,57.4653054 13.0324431,57.4849389 13.0510465,57.5027876 C13.0695033,57.5206363 13.0897179,57.5368276 13.1094931,57.5534014 C13.1219441,57.5637281 13.1336627,57.5746923 13.1466997,57.5843816 C13.1710158,57.6028678 13.1969433,57.6196965 13.2231637,57.6362703 C13.2326851,57.6422624 13.2419135,57.6486369 13.2515813,57.654374 C13.2808779,57.6717127 13.3114928,57.6872665 13.3426936,57.7021829 C13.3500178,57.7056252 13.3571954,57.7093224 13.364666,57.7126372 C13.3980641,57.7276811 13.4323411,57.7409401 13.4676434,57.7529242 C13.4735027,57.754964 13.479362,57.7570039 13.4853678,57.7589163 C13.521842,57.7707729 13.5590486,57.7808446 13.5971342,57.7893865 C13.6024075,57.7905339 13.6078274,57.7916813 13.6132473,57.7927013 C13.6371239,57.7976734 13.6604147,57.8040479 13.6848773,57.8076177 L16.872049,58.2784405 L8.91027208,62.3692314 Z M16.3621425,56.2639614 C16.387777,56.2476426 16.4147298,56.2309414 16.4412432,56.2143676 C16.4980785,56.1787977 16.5547674,56.1433553 16.6145323,56.106893 C16.651153,56.0844547 16.6902639,56.0615064 16.7280565,56.038813 C16.7892862,56.0020957 16.8499301,55.9655059 16.9139431,55.9278962 C16.9526145,55.9053304 16.9937762,55.8819996 17.0336195,55.8590513 C17.1008551,55.8201667 17.1673582,55.7816645 17.2376699,55.7420149 C17.262865,55.7278635 17.2901108,55.7133295 17.3157452,55.6990506 C17.3948459,55.6549388 17.474679,55.6108271 17.5574418,55.5659504 C17.5637405,55.5625082 17.5706252,55.5590659 17.576924,55.5556237 L18.1089493,56.5218749 L16.3621425,56.2639614 Z M17.5170125,53.3729845 C17.5139364,53.3745144 17.5105673,53.3752794 17.5074912,53.3768093 C17.4981163,53.3812714 17.4891808,53.3857336 17.4798059,53.3903233 C17.4796594,53.3903233 17.4796594,53.3903233 17.479513,53.3904508 C17.4758509,53.3922356 17.4723353,53.3940205 17.4685268,53.3958054 C17.4219452,53.4182437 17.3763891,53.4405546 17.3306865,53.4629929 C17.24558,53.5045548 17.1622313,53.5459893 17.0800545,53.5872962 C17.0311293,53.6119019 16.9820575,53.6363801 16.9341577,53.6608583 C16.9287378,53.6636631 16.9234644,53.6663404 16.9180446,53.6691452 C16.910574,53.6729699 16.9033963,53.6767947 16.8959257,53.6804919 C16.7639447,53.7480619 16.6362118,53.814867 16.5114085,53.8814171 C16.4922192,53.8916163 16.4722976,53.9020705 16.4532548,53.9122698 C16.3775232,53.9529393 16.3038424,53.9930988 16.2307475,54.0332584 C16.2150739,54.0418002 16.1998397,54.0503421 16.1843125,54.058884 C16.1824082,54.0599039 16.1806504,54.0609238 16.1787461,54.0619438 C15.3341266,54.5291968 14.6693879,54.9621549 14.176034,55.3164513 L10.5828121,49.3428791 L9.15519123,46.9687491 C9.95484057,46.312045 11.7296256,45.0217126 14.6976591,43.694408 C14.8114761,43.8883212 14.9266116,44.0809595 15.0432119,44.2725779 C15.1023909,44.3698532 15.1628883,44.4659811 15.2227997,44.5627465 C15.3744094,44.8075284 15.5277768,45.0507805 15.6839274,45.2916102 C15.7186438,45.3452838 15.7516024,45.4003597 15.7864653,45.4537783 C16.9597922,47.2482085 18.2536743,48.9219051 19.6619595,50.4758881 C19.6944786,50.5118404 19.7269978,50.5477928 19.7596634,50.5836177 C19.8740665,50.7089409 19.9890554,50.8336267 20.1050698,50.9572926 C20.1646883,51.0209104 20.2247462,51.0840183 20.2846576,51.1472536 C20.3867561,51.2547282 20.4885616,51.3623303 20.591539,51.4685299 C20.7451994,51.6271282 20.9000317,51.7841967 21.0561823,51.9398627 C19.6859826,52.4045659 18.5128023,52.8954047 17.5170125,53.3729845 Z M53.9440499,51.9397352 C53.9459542,51.9371854 53.9484444,51.9346356 53.9509346,51.9322132 C54.0457089,51.8379977 54.1388719,51.7422522 54.2323279,51.6471443 C54.2893097,51.589136 54.346731,51.5318928 54.4034198,51.4736295 C54.5465334,51.3263779 54.6880358,51.1777239 54.8289522,51.0283049 C54.8337861,51.0232053 54.83862,51.0182331 54.8433075,51.0131335 C55.531044,50.2823574 56.1928531,49.5245532 56.8265374,48.7387011 C56.9106185,48.6344138 56.991477,48.5271942 57.0743863,48.4220145 C57.1753129,48.2942689 57.276093,48.1665233 57.3754083,48.0373753 C57.4868817,47.892546 57.5973297,47.7468243 57.7068988,47.6002101 C57.7953744,47.4821538 57.8826781,47.3630775 57.9698353,47.2438738 C58.1151462,47.045371 58.2588458,46.8458482 58.400934,46.6442855 C58.4971732,46.5077431 58.5925335,46.3705632 58.6871613,46.2327459 C58.7981953,46.0710878 58.9083503,45.9089197 59.017187,45.7453493 C59.1396466,45.5616353 59.2606413,45.3769014 59.3804642,45.1908927 C59.4462349,45.0885177 59.5124452,44.9865252 59.5774835,44.8833853 C59.7343665,44.6351611 59.8884664,44.3845146 60.0406619,44.1322107 C60.0923704,44.0464095 60.1436393,43.9603534 60.1949083,43.8741697 C60.2305036,43.8142491 60.2668313,43.7548385 60.3021337,43.6946629 C63.2492201,45.0145732 65.0370421,46.3123 65.8432831,46.9710439 L60.8234658,55.3164513 C60.3299654,54.9621549 59.6652267,54.5290693 58.8203142,54.0618163 C58.8185564,54.0607963 58.8169451,54.0599039 58.8151873,54.058884 C58.7998066,54.0503421 58.7844259,54.0418002 58.7688987,54.0332584 C58.6959503,53.9930988 58.6222695,53.9529393 58.5466844,53.9123973 C58.5228077,53.8996482 58.4977591,53.8865167 58.4735895,53.8737676 C58.3534736,53.8097673 58.2305746,53.7455121 58.1037205,53.6804919 C58.0962499,53.6766672 58.0890723,53.6728424 58.0816016,53.6691452 C58.0761818,53.6663404 58.0709084,53.6636631 58.0654885,53.6608583 C58.0175887,53.6363801 57.9683705,53.6119019 57.9195917,53.5872962 C57.8372684,53.5459893 57.7539197,53.5046823 57.6689597,53.4629929 C57.6232571,53.4406821 57.5775545,53.4182437 57.5311195,53.3958054 C57.5274574,53.3940205 57.5239418,53.3922356 57.5201333,53.3904508 C57.5199868,53.3904508 57.5199868,53.3903233 57.5199868,53.3903233 C57.5106119,53.3858611 57.5016764,53.3813989 57.4923015,53.3768093 C57.4892254,53.3752794 57.4858563,53.3743869 57.4827802,53.3728571 C56.4872834,52.8955322 55.3142495,52.4045659 53.9440499,51.9397352 Z M57.2062207,55.9499521 L57.4233082,55.5558786 C57.4297534,55.5593209 57.4364916,55.5628906 57.4429369,55.5663329 C57.5255531,55.6109546 57.6048003,55.6549388 57.6834615,55.6987956 C57.709389,55.713202 57.7370742,55.727991 57.7627087,55.7423974 C57.8333134,55.782047 57.899963,55.8208041 57.9673451,55.8598162 C58.006749,55.8825096 58.0477641,55.9057129 58.0861426,55.9281512 C58.1503021,55.9657609 58.2110924,56.0024782 58.2724687,56.039323 C58.3102612,56.0620163 58.3492256,56.0849646 58.3858463,56.107403 C58.4444394,56.1432278 58.5001029,56.1779053 58.5559128,56.2128377 C58.5834516,56.2300489 58.6115762,56.2475152 58.6383826,56.2644714 L56.8918688,56.5225124 L57.2062207,55.9499521 Z M66.6586061,56.7336368 C66.3077799,56.9016694 66.0895206,57.2226908 66.0895206,57.5712501 L66.0895206,62.3693589 L58.1278902,58.278313 L61.3150619,57.8074902 C61.326634,57.8058328 61.3376202,57.8023905 61.3490459,57.8003507 C61.3761452,57.7955061 61.4029515,57.790024 61.4294649,57.7835219 C61.4486541,57.7788048 61.4676969,57.7737052 61.4864467,57.7680956 C61.5119347,57.7604461 61.5369832,57.7520318 61.5615923,57.7427249 C61.5799027,57.7359679 61.5980665,57.7290835 61.6159374,57.721434 C61.6401071,57.7111073 61.6633979,57.6996331 61.6865421,57.6877765 C61.7033876,57.6792346 61.7202332,57.6709477 61.7363463,57.6616409 C61.7594905,57.6482544 61.781463,57.633593 61.8034354,57.6188041 C61.8179372,57.6089873 61.8328784,57.599808 61.8466478,57.5893538 C61.8694991,57.57227 61.8907391,57.5536564 61.9119791,57.5349153 C61.9232583,57.524971 61.9352698,57.5157917 61.9459631,57.5053374 C61.9707187,57.4814967 61.99357,57.4558711 62.0155424,57.4297355 C62.0211087,57.423106 62.027554,57.4172414 62.0328274,57.4104844 C62.0589013,57.3779743 62.082778,57.3438068 62.1041645,57.308237 L65.9672075,50.8861529 L71.7891644,54.2772754 L66.6586061,56.7336368 Z" id="Shape"></path>
            <path d="M59.829528,15.2021226 C59.7762034,14.7548728 59.3671855,14.4014277 58.8496139,14.3552216 C46.1781185,13.2256404 37.7876862,7.27999008 37.7052088,7.22061839 C37.2979489,6.92654498 36.7049316,6.92654498 36.2970858,7.22011202 C36.2138758,7.28011667 27.8234435,13.225767 15.1518016,14.3552216 C14.63423,14.4014277 14.2252122,14.7548728 14.1718875,15.2021226 C14.1509385,15.3780856 13.6672076,19.5772716 14.4218103,25.3108802 C15.1210374,30.6223042 17.0695855,38.2817582 22.3811039,44.6081975 C22.5958675,44.8640401 22.9311977,45 23.2709227,45 C23.4944762,45 23.7202271,44.9411347 23.9150672,44.8189733 C24.4059765,44.5111014 24.5154093,43.9175111 24.1589836,43.493301 C19.138993,37.5139772 17.2833236,30.2135384 16.6104659,25.1421329 C16.0587606,20.9837096 16.1898748,17.5995235 16.2915433,16.1534621 C27.1667003,14.9850172 34.7254729,10.617084 37.0005613,9.15140084 C39.2757962,10.6172106 46.8338362,14.985397 57.7103117,16.1534621 C57.7854644,17.2102528 57.8764386,19.3029465 57.702108,21.9813818 C57.6681208,22.5048401 58.1314888,22.9528495 58.7371047,22.9822188 C59.3444786,23.0105755 59.8616107,22.6115572 59.8954514,22.088099 C60.1588519,18.0384182 59.8431522,15.3161821 59.829528,15.2021226 Z" id="Shape"></path>
            <path d="M58.0525139,25.0075427 C57.4594984,24.942357 56.9169123,25.3068954 56.8417739,25.8218622 C54.4302642,42.3525734 44.7116882,49.2083514 36.8149297,52.0458087 C32.9989097,50.676032 29.6525048,48.7099317 26.8635691,46.1984029 C26.4487183,45.8247135 25.7626468,45.813306 25.3317569,46.1735822 C24.900867,46.533733 24.8880067,47.128803 25.3031465,47.5026178 C28.4049181,50.2956986 32.1433432,52.4593616 36.4148177,53.9334354 C36.5435644,53.9778118 36.6792471,54 36.8152187,54 C36.9511903,54 37.0870175,53.9778118 37.2156198,53.9334354 C44.2003135,51.5229443 49.6669222,47.3261151 53.4634351,41.4595296 C56.2743344,37.1160326 58.1340101,31.9342728 58.9913106,26.0579096 C59.066449,25.5430681 58.6459628,25.0727284 58.0525139,25.0075427 Z" id="Shape"></path>
            <path d="M48.8939576,23.0025561 C47.4191143,21.6656623 45.0199014,21.6659235 43.5450582,23.0026866 L33.9267467,31.7222004 L30.4548158,28.5745788 C28.9799725,27.2376851 26.5807597,27.2378156 25.1059164,28.5747094 C23.6313612,29.9117337 23.6313612,32.086879 25.1059164,33.4237728 L31.2525851,38.9959261 C31.9666742,39.6435472 32.9165367,40 33.9267467,40 C34.9372448,40 35.8869632,39.6432861 36.6011964,38.9957955 L48.8941016,27.85175 C50.3686568,26.5148563 50.3686568,24.3395804 48.8939576,23.0025561 Z M47.3671203,26.4673292 L35.0742151,37.6113747 C34.7678683,37.8890945 34.360414,38.0421211 33.9270348,38.0421211 C33.4936555,38.0421211 33.0862012,37.8890945 32.7798544,37.6113747 L26.6334738,32.039352 C26.0007603,31.4657633 26.0007603,30.5327188 26.6331858,29.9591302 C26.9494705,29.6724011 27.3649903,29.5290366 27.7806542,29.5290366 C28.19603,29.5290366 28.6115498,29.6725317 28.9278345,29.9591302 L33.163256,33.7990274 C33.365903,33.9827377 33.6404197,34.0857565 33.9268907,34.0857565 C34.2132177,34.0857565 34.4878785,33.9826072 34.6905254,33.7990274 L45.0723275,24.387238 C45.7051851,23.8135188 46.7342627,23.8133882 47.3671203,24.3869769 C47.9996898,24.9606961 47.9996898,25.8938712 47.3671203,26.4673292 Z" id="Shape"></path>
        </g>
    </g>
</svg>