<?xml version="1.0" encoding="UTF-8" standalone="no"?>
<svg width="78px" height="78px" viewBox="0 0 78 78" version="1.1" xmlns="http://www.w3.org/2000/svg" xmlns:xlink="http://www.w3.org/1999/xlink">
    <!-- Generator: Sketch 49.3 (51167) - http://www.bohemiancoding.com/sketch -->
    <title>003-cargo-ship</title>
    <desc>Created with Sketch.</desc>
    <defs></defs>
    <g id="visual_ent" stroke="none" stroke-width="1" fill="none" fill-rule="evenodd">
        <g id="01_Home_02destacado_mar" transform="translate(-793.000000, -550.000000)" fill="#FFFFFF" fill-rule="nonzero">
            <g id="003-cargo-ship" transform="translate(793.000000, 550.000000)">
                <path d="M76.4765625,75.1127472 C74.0637422,75.1127472 71.7398906,74.1475386 70.1008242,72.464559 C69.8122852,72.1684712 69.4064414,72 68.98125,72 C68.5560586,72 68.1502148,72.1684712 67.8618281,72.464559 C66.2226094,74.1475386 63.8989102,75.1127472 61.4859375,75.1127472 C59.0729648,75.1127472 56.7491133,74.1475386 55.1100469,72.464559 C54.8216602,72.1684712 54.4158164,72 53.9904727,72 C53.5651289,72 53.1592852,72.1684712 52.8708984,72.464559 C51.2321367,74.1475386 48.9082852,75.1127472 46.4953125,75.1127472 C44.0823398,75.1127472 41.7584883,74.1475386 40.1194219,72.464559 C39.8310352,72.1684712 39.4251914,72 38.9998477,72 C38.5745039,72 38.1686602,72.1684712 37.8802734,72.464559 C36.2415117,74.1475386 33.9176602,75.1127472 31.5046875,75.1127472 C29.0918672,75.1127472 26.7680156,74.1475386 25.1289492,72.464559 C24.8405625,72.1684712 24.4347187,72 24.009375,72 C23.5840312,72 23.1781875,72.1684712 22.8898008,72.464559 C21.2508867,74.1475386 18.9270352,75.1127472 16.5140625,75.1127472 C14.1012422,75.1127472 11.7773906,74.1475386 10.1383242,72.464559 C9.8499375,72.1684712 9.44409375,72 9.01875,72 C8.59355859,72 8.18771484,72.1684712 7.89932812,72.464559 C6.26010938,74.1475386 3.93625781,75.1127472 1.5234375,75.1127472 C0.682042969,75.1127472 0,75.7590588 0,76.5563736 C0,77.3536885 0.682042969,78 1.5234375,78 C4.26730078,78 6.92554688,77.0768009 9.01875,75.4294789 C11.1119531,77.0768009 13.7701992,78 16.5140625,78 C19.2580781,78 21.9163242,77.0768009 24.009375,75.4294789 C26.1024258,77.0768009 28.7608242,78 31.5046875,78 C34.2487031,78 36.9069492,77.0768009 39,75.4294789 C41.0930508,77.0768009 43.7514492,78 46.4953125,78 C49.2391758,78 51.8974219,77.0768009 53.990625,75.4294789 C56.0836758,77.0768009 58.7419219,78 61.4859375,78 C64.2298008,78 66.8880469,77.0768009 68.98125,75.4294789 C71.0744531,77.0768009 73.7326992,78 76.4765625,78 C77.317957,78 78,77.3536885 78,76.5563736 C78,75.7590588 77.317957,75.1127472 76.4765625,75.1127472 Z" id="Shape"></path>
                <path d="M76.4757259,0 L53.6213703,0 C52.7795138,0 52.0970963,0.687995464 52.0970963,1.53673322 L52.0970963,8.56267752 C50.3229937,9.19704099 49.0485481,10.90512 49.0485481,12.9085591 C49.0485481,14.9119982 50.3229937,16.6200772 52.0970963,17.2544406 L52.0970963,19.1649074 L47.5242741,19.1649074 C46.6824175,19.1649074 46,19.8529028 46,20.7016406 L46,27.4632668 C46,28.3120045 46.6824175,29 47.5242741,29 L59.7184666,29 C60.5603231,29 61.2427406,28.3120045 61.2427406,27.4632668 L61.2427406,20.7016406 C61.2427406,19.8529028 60.5603231,19.1649074 59.7184666,19.1649074 L55.1456444,19.1649074 L55.1456444,17.2544406 C56.919747,16.6200772 58.1941925,14.9119982 58.1941925,12.9085591 C58.1941925,12.0598213 57.511775,11.3718259 56.6699185,11.3718259 C55.8280619,11.3718259 55.1456444,12.0598213 55.1456444,12.9085591 C55.1456444,13.7559138 54.461855,14.4452923 53.6213703,14.4452923 C52.7808856,14.4452923 52.0970963,13.7559138 52.0970963,12.9085591 C52.0970963,12.0612044 52.7808856,11.3718259 53.6213703,11.3718259 C54.4632269,11.3718259 55.1456444,10.6838304 55.1456444,9.83509263 L55.1456444,3.07346645 L74.9514519,3.07346645 L74.9514519,7.06897283 C74.9514519,7.91771059 75.6338694,8.60570605 76.4757259,8.60570605 C77.3175825,8.60570605 78,7.91771059 78,7.06897283 L78,1.53673322 C78,0.687995464 77.3175825,0 76.4757259,0 Z M58.1941925,22.2383738 L58.1941925,25.9265336 L49.0485481,25.9265336 L49.0485481,22.2383738 L58.1941925,22.2383738 Z" id="Shape"></path>
                <path d="M77.5605,12.4395 C77.2815,12.1605 76.8945,12 76.5,12 C76.1055,12 75.7185,12.1605 75.4395,12.4395 C75.1605,12.7185 75,13.1055 75,13.5 C75,13.8945 75.1605,14.2815 75.4395,14.5605 C75.7185,14.8395 76.1055,15 76.5,15 C76.8945,15 77.2815,14.8395 77.5605,14.5605 C77.8395,14.2815 78,13.8945 78,13.5 C78,13.1055 77.8395,12.7185 77.5605,12.4395 Z" id="Shape"></path>
                <path d="M77.9983242,44.8830189 C77.9989336,44.8831698 77.9993906,44.8831698 78,44.8833208 L78,18.509434 C78,17.6757736 77.3179578,17 76.4765643,17 C75.6351707,17 74.9531285,17.6757736 74.9531285,18.509434 L74.9531285,43.3738868 L65.8125141,43.3738868 L65.8125141,38.509434 C65.8125141,37.6757736 65.1304719,37 64.2890783,37 L39.9141064,37 C39.0727129,37 38.3906707,37.6757736 38.3906707,38.509434 L38.3906707,43.7316226 L33.1348174,43.7316226 C32.4180408,43.7316226 31.8185689,44.2226415 31.6561706,44.8831698 L27.580523,32.0013585 C27.3814099,31.3719245 26.7927544,30.9433962 26.1268606,30.9433962 L24.0080662,30.9433962 L20.2122737,23.4898113 C19.9532896,22.9811321 19.4272472,22.6603774 18.8521502,22.6603774 L9.75007871,22.6603774 C8.90868515,22.6603774 8.22664296,23.3361509 8.22664296,24.1698113 L8.22664296,30.9433962 L4.88483432,30.9433962 C4.04344076,30.9433962 3.36139858,31.6191698 3.36139858,32.4528302 L3.36139858,43.3738868 L1.5235257,43.3738868 C1.01530753,43.3738868 0.54045261,43.6250566 0.257550593,44.0436226 C-0.0251990813,44.4621887 -0.0788240195,44.9929057 0.114957007,45.458566 L7.61803039,63.4988679 C5.99998928,65.0804528 3.80182385,65.9811321 1.5235257,65.9811321 C0.682132134,65.9811321 8.99520086e-05,66.6569057 8.99520086e-05,67.490566 C8.99520086e-05,68.3242264 0.682132134,69 1.5235257,69 C4.26738581,69 6.92562884,68.034717 9.01882955,66.3123019 C11.1120303,68.034717 13.7702733,69 16.5141334,69 C19.2581459,69 21.9163889,68.034717 24.0094373,66.3123019 C26.1024856,68.034717 28.760881,69 31.5047411,69 C34.2487536,69 36.9069966,68.034717 39.000045,66.3123019 C41.0930933,68.034717 43.7514887,69 46.4953488,69 C49.2392089,69 51.897452,68.034717 53.9906527,66.3123019 C56.0837011,68.034717 58.7419441,69 61.4859565,69 C64.2298167,69 66.8880597,68.034717 68.9812604,66.3123019 C71.0744611,68.034717 73.7327041,69 76.4765643,69 C77.3179578,69 78,68.3242264 78,67.490566 C78,66.6569057 77.3179578,65.9811321 76.4765643,65.9811321 C74.1982661,65.9811321 71.9999483,65.0804528 70.3820596,63.498717 L77.8851329,45.4584151 C77.9622188,45.2732075 77.9984766,45.0777358 77.9983242,44.8830189 Z M53.6250281,40.0188679 L62.7656426,40.0188679 L62.7656426,43.6415094 L53.6250281,43.6415094 L53.6250281,40.0188679 Z M60.6372505,46.6603774 L59.033225,48.2496604 L59.033225,46.6603774 L60.6372505,46.6603774 Z M55.9863535,46.7504906 L55.9863535,50.3731321 L46.8457391,50.3731321 L46.8457391,46.7504906 L55.9863535,46.7504906 Z M41.4375422,40.0188679 L50.5781566,40.0188679 L50.5781566,43.6415094 L41.4375422,43.6415094 L41.4375422,40.0188679 Z M34.6582531,46.7504906 L43.7988676,46.7504906 L43.7988676,50.3731321 L34.6582531,50.3731321 L34.6582531,46.7504906 Z M11.2735145,25.6792453 L17.9146279,25.6792453 L20.5954178,30.9433962 L11.2735145,30.9433962 L11.2735145,25.6792453 Z M6.40827006,33.9622642 L23.0673446,33.9622642 C23.068868,33.9622642 23.0702391,33.962566 23.0717626,33.962566 C23.0734383,33.962566 23.0752665,33.9622642 23.0769422,33.9622642 L25.0080494,33.9622642 L26.1521496,37.578566 L15.8438217,37.578566 C15.0024281,37.578566 14.3203859,38.2543396 14.3203859,39.088 C14.3203859,39.9216604 15.0024281,40.597434 15.8438217,40.597434 L27.0157854,40.597434 C27.0462541,40.597434 27.0759611,40.594717 27.1059728,40.5929057 L30.2003754,50.373434 L19.2171654,50.373434 L12.5989035,43.8158491 C12.3132593,43.5328302 11.9256973,43.3737358 11.5216821,43.3737358 L6.40827006,43.3737358 L6.40827006,33.9622642 Z M66.8414426,64.0881509 C66.8310832,64.1130566 66.823466,64.1384151 66.8144777,64.1636226 C65.3006396,65.3298113 63.4223957,65.9811321 61.4859565,65.9811321 C59.0729867,65.9811321 56.7491378,64.9719245 55.1100733,63.2122264 C54.8216869,62.9026415 54.4158436,62.7264906 53.9905003,62.7264906 C53.5651571,62.7264906 53.1593138,62.9026415 52.8709274,63.2122264 C51.2321676,64.9719245 48.9083187,65.9811321 46.4953488,65.9811321 C44.082379,65.9811321 41.7585301,64.9719245 40.1194656,63.2122264 C39.8310792,62.9026415 39.4252359,62.7264906 38.9998926,62.7264906 C38.5745494,62.7264906 38.1687061,62.9026415 37.8803197,63.2122264 C36.2415599,64.9719245 33.917711,65.9811321 31.5047411,65.9811321 C29.0919236,65.9811321 26.7680747,64.9719245 25.1290102,63.2122264 C24.8406238,62.9026415 24.4347805,62.7264906 24.0094373,62.7264906 C23.584094,62.7264906 23.1782507,62.9026415 22.8898643,63.2122264 C21.2509522,64.9719245 18.9271033,65.9811321 16.5141334,65.9811321 C14.5776942,65.9811321 12.6994503,65.3298113 11.1856122,64.1634717 C11.1766239,64.1382642 11.1690068,64.1130566 11.1586474,64.088 L3.79908166,46.3927547 L10.8905227,46.3927547 L17.5087846,52.9503396 C17.7944288,53.2333585 18.1819909,53.3924528 18.586006,53.3924528 L57.520758,53.3924528 C57.9247732,53.3924528 58.3123352,53.2333585 58.5979794,52.9503396 L65.2162413,46.3927547 L74.2010083,46.3927547 L66.8414426,64.0881509 Z" id="Shape"></path>
                <path d="M17.5605,58.4395 C17.2815,58.1605 16.8945,58 16.5,58 C16.1055,58 15.7185,58.1605 15.4395,58.4395 C15.1605,58.7185 15,59.1055 15,59.5 C15,59.8945 15.1605,60.2815 15.4395,60.5605 C15.7185,60.8395 16.1055,61 16.5,61 C16.8945,61 17.2815,60.8395 17.5605,60.5605 C17.8395,60.2815 18,59.8945 18,59.5 C18,59.1055 17.8395,58.7185 17.5605,58.4395 Z" id="Shape"></path>
                <path d="M28.5605,58.4395 C28.2815,58.1605 27.896,58 27.5,58 C27.1055,58 26.7185,58.1605 26.4395,58.4395 C26.1605,58.7185 26,59.1055 26,59.5 C26,59.8945 26.1605,60.2815 26.4395,60.5605 C26.7185,60.8395 27.1055,61 27.5,61 C27.8945,61 28.2815,60.8395 28.5605,60.5605 C28.8395,60.2815 29,59.8945 29,59.5 C29,59.1055 28.8395,58.7185 28.5605,58.4395 Z" id="Shape"></path>
                <path d="M40.5605,58.4395 C40.2815,58.1605 39.896,58 39.5,58 C39.1055,58 38.7185,58.1605 38.4395,58.4395 C38.1605,58.7185 38,59.1055 38,59.5 C38,59.8945 38.1605,60.2815 38.4395,60.5605 C38.72,60.8395 39.1055,61 39.5,61 C39.8945,61 40.2815,60.8395 40.5605,60.5605 C40.841,60.2815 41,59.8945 41,59.5 C41,59.1055 40.841,58.7185 40.5605,58.4395 Z" id="Shape"></path>
                <path d="M51.5605,58.4395 C51.2815,58.1605 50.8945,58 50.5,58 C50.104,58 49.7185,58.1605 49.4395,58.4395 C49.159,58.7185 49,59.1055 49,59.5 C49,59.8945 49.159,60.2815 49.4395,60.5605 C49.7185,60.8395 50.104,61 50.5,61 C50.8945,61 51.28,60.8395 51.5605,60.5605 C51.8395,60.2815 52,59.8945 52,59.5 C52,59.1055 51.8395,58.7185 51.5605,58.4395 Z" id="Shape"></path>
                <path d="M62.5605,58.4395 C62.2815,58.1605 61.8945,58 61.5,58 C61.1055,58 60.7185,58.1605 60.4395,58.4395 C60.1605,58.7185 60,59.1055 60,59.5 C60,59.8945 60.1605,60.2815 60.4395,60.5605 C60.7185,60.8395 61.1055,61 61.5,61 C61.8945,61 62.2815,60.8395 62.5605,60.5605 C62.8395,60.2815 63,59.8945 63,59.5 C63,59.1055 62.8395,58.7185 62.5605,58.4395 Z" id="Shape"></path>
                <path d="M11.5605,38.4395 C11.2815,38.1605 10.896,38 10.5,38 C10.1055,38 9.7185,38.1605 9.4395,38.4395 C9.1605,38.7185 9,39.1055 9,39.5 C9,39.896 9.1605,40.2815 9.4395,40.5605 C9.7185,40.841 10.1055,41 10.5,41 C10.896,41 11.2815,40.841 11.5605,40.5605 C11.841,40.2815 12,39.8945 12,39.5 C12,39.1055 11.841,38.7185 11.5605,38.4395 Z" id="Shape"></path>
            </g>
        </g>
    </g>
</svg>