<?xml version="1.0" encoding="UTF-8" standalone="no"?>
<svg width="20px" height="17px" viewBox="0 0 20 17" version="1.1" xmlns="http://www.w3.org/2000/svg" xmlns:xlink="http://www.w3.org/1999/xlink">
    <!-- Generator: Sketch 49.3 (51167) - http://www.bohemiancoding.com/sketch -->
    <title>Shape</title>
    <desc>Created with Sketch.</desc>
    <defs></defs>
    <g id="visual_ent" stroke="none" stroke-width="1" fill="none" fill-rule="evenodd">
        <g id="01_Home_01destacado_tierra" transform="translate(-833.000000, -1862.000000)" fill="#9B9B9B" fill-rule="nonzero">
            <g id="001-weight-tool-copy" transform="translate(833.000000, 1862.000000)">
                <path d="M19.9488029,15.5767803 L16.8119433,5.41979222 C16.6732506,4.97074182 16.274068,4.66653644 15.8235456,4.66653644 L12.5131894,4.66653644 C12.7815225,4.20221757 12.9389406,3.6600843 12.9389406,3.07878706 C12.9389406,1.3812485 11.6204452,0 9.99995659,0 C8.37950068,0 7.06097258,1.38121427 7.06097258,3.07878706 C7.06097258,3.66005006 7.21839072,4.20218334 7.48675647,4.66653644 L4.17646563,4.66653644 C3.7259432,4.66653644 3.32676059,4.97074182 3.18806792,5.41979222 L0.0512082834,15.5767803 C-0.165883005,16.2796433 0.334410617,17 1.039606,17 L18.9603725,17 C19.6656006,17.0000342 20.1658615,16.2796776 19.9488029,15.5767803 Z M8.33333333,3.42115792 C8.33333333,2.47200166 9.08089369,1.7 10,1.7 C10.9191063,1.7 11.6666667,2.47200166 11.6666667,3.42115792 C11.6666667,4.24304087 11.1053041,4.92997647 10.3582695,5.1 L9.64176551,5.1 C8.89469589,4.93001267 8.33333333,4.24304087 8.33333333,3.42115792 Z M8.90019066,13.6 L8.05255786,11.8760007 L7.64865582,11.8760007 L7.64865582,13.6 L6.66666667,13.6 L6.66666667,9.35 L7.64865582,9.35 L7.64865582,10.9907338 L8.05255786,10.9907338 L8.88328428,9.35 L9.93832874,9.35 L8.85493216,11.3827806 L8.85493216,11.3948717 L10,13.6 L8.90019066,13.6 Z M14.1666667,13.531164 L13.2798868,13.531164 L13.2798868,13.4159419 C13.2798868,13.3297467 13.2858305,13.2436147 13.2858305,13.2436147 L13.2739765,13.2436147 C13.2739765,13.2436147 12.8545784,13.6 12.1320516,13.6 C11.0203128,13.6 10,12.8122908 10,11.4663362 C10,10.2702589 10.9534962,9.35 12.2779394,9.35 C13.3892108,9.35 13.9480855,9.89610334 13.9480855,9.89610334 L13.4376953,10.6496317 C13.4376953,10.6496317 12.9945558,10.2702905 12.3808522,10.2702905 C11.4698634,10.2702905 11.0994508,10.8224332 11.0994508,11.4316811 C11.0994508,12.2142679 11.6701795,12.6797727 12.3447559,12.6797727 C12.8546452,12.6797727 13.2250244,12.3809984 13.2250244,12.3809984 L13.2250244,12.0643907 L12.6117883,12.0643907 L12.6117883,11.2073711 L14.1666667,11.2073711 L14.1666667,13.531164 Z" id="Shape"></path>
            </g>
        </g>
    </g>
</svg>