<?xml version="1.0" encoding="UTF-8" standalone="no"?>
<svg width="32px" height="22px" viewBox="0 0 32 22" version="1.1" xmlns="http://www.w3.org/2000/svg" xmlns:xlink="http://www.w3.org/1999/xlink">
    <!-- Generator: Sketch 49.3 (51167) - http://www.bohemiancoding.com/sketch -->
    <title>Shape</title>
    <desc>Created with Sketch.</desc>
    <defs></defs>
    <g id="visual_ent" stroke="none" stroke-width="1" fill="none" fill-rule="evenodd">
        <g id="01_Home_01destacado_tierra" transform="translate(-1299.000000, -910.000000)" fill="#AFAFAF" fill-rule="nonzero">
            <g id="arrow-pointing-to-right-copy" transform="translate(1299.000000, 910.000000)">
                <path d="M31.5641598,9.94885939 L22.0415017,0.435333021 C21.4605005,-0.145111007 20.5182335,-0.145111007 19.9372323,0.435333021 C19.3561121,1.01589597 19.3561121,1.95702156 19.9372323,2.53758451 L26.9198404,9.51349664 L1.48791534,9.51349664 C0.666228972,9.51349664 0,10.1790867 0,10.9999851 C0,11.8207646 0.666228972,12.4864736 1.48791534,12.4864736 L26.9198404,12.4864736 L19.9374704,19.4623858 C19.3563501,20.0429487 19.3563501,20.9840743 19.9374704,21.5646372 C20.2279114,21.8546809 20.6088178,22 20.9896051,22 C21.3703923,22 21.7511796,21.8546809 22.0417397,21.5646372 L31.5641598,12.0511109 C32.1452801,11.4705479 32.1452801,10.5294223 31.5641598,9.94885939 Z" id="Shape" transform="translate(16.000000, 11.000000) rotate(180.000000) translate(-16.000000, -11.000000) "></path>
            </g>
        </g>
    </g>
</svg>