<?xml version="1.0" encoding="iso-8859-1"?>
<!-- Generator: Adobe Illustrator 19.0.0, SVG Export Plug-In . SVG Version: 6.00 Build 0)  -->
<svg version="1.1" id="Capa_1" xmlns="http://www.w3.org/2000/svg" xmlns:xlink="http://www.w3.org/1999/xlink" x="0px" y="0px"
	 viewBox="0 0 512 512" style="enable-background:new 0 0 512 512;" xml:space="preserve">
<g>
	<g>
		<path d="M480.57,446.099V209.362c0-15.373-12.508-27.881-27.881-27.881h-33.154v15.208h33.154c6.989,0,12.673,5.685,12.673,12.673
			v236.737H312.241l-10.139,19.263h-92.204l-10.139-19.263H46.638V209.362c0-6.989,5.685-12.673,12.673-12.673h126.594v-15.208
			H59.311c-15.373,0-27.881,12.508-27.881,27.881v236.737H0v27.881C0,494.945,17.055,512,38.02,512h435.96
			c20.965,0,38.02-17.055,38.02-38.02v-27.881H480.57z M496.792,473.98c0,12.578-10.234,22.812-22.812,22.812H38.02
			c-12.578,0-22.812-10.234-22.812-22.812v-12.673h175.37l10.139,19.263h110.569l10.139-19.263h175.369V473.98z"/>
	</g>
</g>
<g>
	<g>
		<rect x="211.897" y="313.79" width="15.208" height="119.636"/>
	</g>
</g>
<g>
	<g>
		<rect x="378.17" y="313.79" width="15.208" height="119.636"/>
	</g>
</g>
<g>
	<g>
		<polygon points="162.852,227.105 162.852,211.897 61.846,211.897 61.846,430.891 140.42,430.891 140.42,415.683 77.053,415.683 
			77.053,227.105 		"/>
	</g>
</g>
<g>
	<g>
		<path d="M358.729,173.978c12.702-13.963,20.454-32.503,20.454-52.821v-8.124c1.407-1.648,3.863-4.817,6.608-9.672
			c12.194-21.562,11.993-47.257-0.535-68.738C372.609,12.943,350.101,0,325.047,0H277.06c-25.706,0-48.509,13.455-60.994,35.99
			c-12.351,22.293-11.691,48.444,1.764,69.955c1.616,2.584,3.069,4.536,4.203,5.928v9.283c0,20.96,8.265,40.013,21.688,54.116
			c-48.602,22.702-80.489,72.015-80.489,126.351v131.802h15.208V301.624c0-50.777,31.243-96.646,78.152-115.38
			c3.853,2.616,7.894,4.855,12.081,6.725v37.308l-14.555,145.551l46.492,39.15l46.492-39.15l-14.555-145.55v-37.301
			c4.713-2.108,9.239-4.69,13.525-7.745c48.474,18.065,80.764,64.343,80.764,116.392v131.802h15.208V301.624
			C442.044,245.878,409.027,196.043,358.729,173.978z M236.171,60.173c-0.12,0.097-0.242,0.191-0.36,0.289
			c-0.435,0.361-0.863,0.73-1.282,1.11c-0.067,0.061-0.131,0.125-0.198,0.187c-0.349,0.32-0.691,0.647-1.027,0.979
			c-0.134,0.132-0.263,0.268-0.394,0.401c-0.267,0.272-0.53,0.547-0.789,0.827c-0.139,0.151-0.277,0.303-0.414,0.456
			c-0.248,0.278-0.493,0.561-0.733,0.846c-0.128,0.152-0.257,0.302-0.381,0.456c-0.267,0.326-0.525,0.658-0.781,0.994
			c-0.087,0.115-0.178,0.227-0.264,0.343c-0.338,0.454-0.667,0.915-0.984,1.384c-0.063,0.092-0.122,0.188-0.183,0.281
			c-0.251,0.378-0.498,0.759-0.736,1.147c-0.1,0.164-0.198,0.331-0.296,0.497c-0.194,0.326-0.384,0.655-0.569,0.988
			c-0.1,0.181-0.2,0.364-0.297,0.547c-0.177,0.334-0.35,0.67-0.517,1.009c-0.087,0.176-0.176,0.353-0.262,0.531
			c-0.188,0.395-0.368,0.795-0.542,1.197c-0.053,0.123-0.11,0.242-0.162,0.365c-0.223,0.528-0.434,1.064-0.634,1.604
			c-0.044,0.118-0.082,0.238-0.125,0.357c-0.151,0.423-0.297,0.849-0.434,1.279c-0.06,0.188-0.115,0.377-0.171,0.566
			c-0.067,0.222-0.139,0.442-0.202,0.666c-2.33-12.085-0.368-24.743,5.933-36.118c9.766-17.628,27.595-28.152,47.691-28.152h47.987
			c19.585,0,37.181,10.122,47.072,27.077c7.06,12.102,9.104,25.914,6.116,38.982c-0.047-0.204-0.102-0.405-0.152-0.607
			c-0.055-0.224-0.109-0.448-0.168-0.67c-0.098-0.369-0.204-0.735-0.313-1.099c-0.059-0.198-0.115-0.397-0.176-0.594
			c-0.147-0.466-0.305-0.928-0.469-1.386c-0.031-0.089-0.06-0.18-0.092-0.269c-0.198-0.538-0.41-1.071-0.631-1.598
			c-0.077-0.185-0.162-0.365-0.242-0.547c-0.152-0.347-0.306-0.691-0.467-1.032c-0.1-0.211-0.206-0.419-0.309-0.628
			c-0.154-0.308-0.309-0.615-0.471-0.919c-0.115-0.214-0.231-0.427-0.349-0.639c-0.164-0.295-0.333-0.586-0.505-0.876
			c-0.123-0.208-0.246-0.415-0.373-0.62c-0.184-0.296-0.372-0.587-0.564-0.878c-0.125-0.189-0.245-0.379-0.373-0.565
			c-0.232-0.34-0.474-0.674-0.716-1.006c-0.094-0.129-0.184-0.26-0.279-0.387c-0.337-0.448-0.683-0.888-1.038-1.32
			c-0.122-0.148-0.249-0.291-0.372-0.437c-0.245-0.289-0.491-0.577-0.744-0.859c-0.155-0.172-0.314-0.34-0.472-0.509
			c-0.232-0.248-0.465-0.496-0.704-0.738c-0.17-0.173-0.343-0.344-0.517-0.513c-0.236-0.232-0.477-0.46-0.719-0.686
			c-0.178-0.165-0.357-0.331-0.538-0.493c-0.254-0.228-0.514-0.45-0.775-0.671c-0.175-0.148-0.349-0.298-0.526-0.443
			c-0.301-0.246-0.608-0.485-0.918-0.721c-0.144-0.111-0.285-0.225-0.431-0.334c-0.451-0.336-0.908-0.662-1.375-0.978
			c-0.132-0.09-0.269-0.173-0.403-0.262c-0.345-0.227-0.69-0.452-1.042-0.669c-0.188-0.116-0.378-0.224-0.568-0.337
			c-0.306-0.18-0.613-0.36-0.925-0.532c-0.206-0.114-0.413-0.224-0.621-0.335c-0.305-0.162-0.612-0.319-0.923-0.473
			c-0.212-0.105-0.425-0.209-0.639-0.31c-0.319-0.151-0.641-0.295-0.965-0.437c-0.208-0.091-0.415-0.184-0.625-0.272
			c-0.364-0.152-0.733-0.295-1.102-0.435c-0.172-0.066-0.342-0.135-0.515-0.199c-0.543-0.198-1.091-0.384-1.646-0.558
			c-0.094-0.029-0.191-0.054-0.286-0.083c-0.464-0.141-0.932-0.276-1.403-0.399c-0.2-0.052-0.401-0.097-0.601-0.147
			c-0.373-0.091-0.746-0.179-1.123-0.26c-0.225-0.048-0.452-0.091-0.679-0.135c-0.36-0.07-0.722-0.135-1.086-0.195
			c-0.232-0.037-0.466-0.074-0.701-0.107c-0.37-0.054-0.741-0.099-1.114-0.142c-0.227-0.026-0.454-0.053-0.682-0.075
			c-0.407-0.039-0.815-0.068-1.225-0.093c-0.197-0.012-0.391-0.029-0.589-0.039c-0.607-0.029-1.217-0.047-1.831-0.047h-81.109
			c-0.606,0-1.208,0.017-1.809,0.046c-0.192,0.009-0.38,0.024-0.571,0.036c-0.41,0.025-0.819,0.055-1.226,0.093
			c-0.218,0.02-0.435,0.045-0.652,0.069c-0.383,0.043-0.765,0.091-1.145,0.146c-0.214,0.03-0.428,0.061-0.64,0.095
			c-0.406,0.065-0.808,0.139-1.209,0.217c-0.175,0.034-0.351,0.064-0.525,0.1c-0.572,0.12-1.14,0.248-1.701,0.393
			c-0.042,0.01-0.082,0.023-0.124,0.034c-0.52,0.136-1.035,0.283-1.547,0.44c-0.179,0.055-0.356,0.116-0.533,0.173
			c-0.374,0.122-0.747,0.246-1.116,0.378c-0.198,0.071-0.394,0.145-0.591,0.219c-0.352,0.133-0.701,0.271-1.046,0.414
			c-0.191,0.079-0.381,0.157-0.571,0.238c-0.374,0.161-0.744,0.331-1.112,0.504c-0.149,0.07-0.3,0.137-0.448,0.209
			c-0.513,0.249-1.02,0.508-1.52,0.779c-0.063,0.033-0.123,0.071-0.185,0.105c-0.436,0.239-0.866,0.488-1.291,0.743
			c-0.159,0.096-0.316,0.197-0.473,0.295c-0.326,0.204-0.651,0.41-0.97,0.622c-0.171,0.115-0.342,0.23-0.512,0.348
			c-0.307,0.212-0.61,0.428-0.911,0.649c-0.161,0.119-0.322,0.235-0.482,0.356C236.814,59.658,236.491,59.914,236.171,60.173z
			 M237.24,89.727c0-12.578,10.234-22.812,22.812-22.812h81.109c1.179,0,2.338,0.09,3.469,0.264
			c10.94,1.676,19.344,11.149,19.344,22.548v21.798h-8.491c-3.095-8.275-11.06-14.194-20.403-14.194h-8.111
			c-9.343,0-17.308,5.919-20.403,14.194h-10.902c-3.095-8.275-11.06-14.194-20.403-14.194h-8.111
			c-9.343,0-17.308,5.919-20.403,14.194h-9.508V89.727z M341.671,119.129c0,3.634-2.956,6.59-6.59,6.59h-8.111
			c-3.634,0-6.59-2.956-6.59-6.59s2.956-6.59,6.59-6.59h8.111C338.715,112.539,341.671,115.495,341.671,119.129z M281.853,119.129
			c0,3.634-2.956,6.59-6.59,6.59h-8.111c-3.634,0-6.59-2.956-6.59-6.59s2.956-6.59,6.59-6.59h8.111
			C278.897,112.539,281.853,115.495,281.853,119.129z M300.61,395.097l-30.562-25.737l13.11-131.102h34.903l13.11,131.103
			L300.61,395.097z M317.338,223.049h-33.456v-25.102c1.344,0.29,2.699,0.544,4.062,0.764c0.036,0.006,0.072,0.012,0.107,0.018
			c1.452,0.232,2.914,0.425,4.385,0.576c0.159,0.016,0.319,0.028,0.479,0.045c1.04,0.1,2.086,0.179,3.135,0.239
			c0.297,0.017,0.594,0.035,0.892,0.05c1.219,0.056,2.439,0.093,3.667,0.093c1.242,0,2.476-0.038,3.707-0.094
			c0.293-0.013,0.585-0.033,0.877-0.05c1.04-0.059,2.075-0.138,3.106-0.237c0.178-0.017,0.356-0.032,0.534-0.051
			c0.056-0.006,0.113-0.01,0.168-0.016c0.017-0.002,0.033-0.003,0.051-0.005c2.799-0.296,5.562-0.742,8.286-1.33V223.049z
			 M338.586,171.849c-0.043,0.032-0.085,0.066-0.129,0.098c-6.487,4.846-13.927,8.481-21.987,10.565
			c-0.059,0.015-0.119,0.028-0.178,0.044c-0.894,0.228-1.796,0.436-2.704,0.626c-0.2,0.042-0.4,0.08-0.601,0.12
			c-0.772,0.153-1.548,0.292-2.33,0.417c-0.273,0.044-0.546,0.086-0.82,0.126c-0.72,0.105-1.445,0.196-2.173,0.277
			c-0.307,0.034-0.613,0.071-0.922,0.1c-0.73,0.071-1.464,0.123-2.201,0.168c-0.252,0.015-0.503,0.036-0.756,0.049
			c-0.043,0.002-0.084,0.006-0.126,0.008c-1.012,0.049-2.029,0.077-3.053,0.077c-1.011,0-2.013-0.029-3.013-0.076
			c-0.131-0.006-0.262-0.017-0.392-0.023c-0.179-0.009-0.358-0.024-0.537-0.034c-0.731-0.045-1.46-0.097-2.184-0.166
			c-0.004,0-0.008-0.001-0.012-0.001c-0.311-0.029-0.62-0.067-0.931-0.101c-0.72-0.08-1.437-0.169-2.148-0.274
			c-0.282-0.042-0.564-0.085-0.845-0.13c-0.77-0.124-1.535-0.26-2.294-0.411c-0.212-0.042-0.424-0.082-0.636-0.127
			c-0.893-0.187-1.78-0.391-2.66-0.615c-0.073-0.018-0.147-0.035-0.221-0.054c-25.542-6.612-44.868-28.799-47.234-55.776h9.25
			v-0.002c3.095,8.275,11.06,14.194,20.403,14.194h8.111c9.343,0,17.308-5.919,20.403-14.194h10.902
			c3.095,8.275,11.06,14.194,20.403,14.194h8.111c9.343,0,17.308-5.919,20.403-14.194h8.231
			C362.102,145.146,352.593,161.329,338.586,171.849z"/>
	</g>
</g>
<g>
	<g>
		<path d="M0.507,0v116.594h98.075l51.977,44.371v-44.371h40.554V0H0.507z M175.905,101.386h-40.554v26.6l-31.16-26.6H15.715V15.208
			h160.19V101.386z"/>
	</g>
</g>
<g>
	<g>
		<rect x="42.075" y="35.485" width="107.469" height="15.208"/>
	</g>
</g>
<g>
	<g>
		<rect x="72.491" y="66.915" width="15.208" height="15.208"/>
	</g>
</g>
<g>
	<g>
		<rect x="102.907" y="66.915" width="15.208" height="15.208"/>
	</g>
</g>
<g>
	<g>
		<rect x="42.075" y="66.915" width="15.208" height="15.208"/>
	</g>
</g>
<g>
	<g>
		<rect x="133.323" y="66.915" width="15.208" height="15.208"/>
	</g>
</g>
<g>
</g>
<g>
</g>
<g>
</g>
<g>
</g>
<g>
</g>
<g>
</g>
<g>
</g>
<g>
</g>
<g>
</g>
<g>
</g>
<g>
</g>
<g>
</g>
<g>
</g>
<g>
</g>
<g>
</g>
</svg>
