<?xml version="1.0" encoding="UTF-8" standalone="no"?>
<svg width="41px" height="29px" viewBox="0 0 41 29" version="1.1" xmlns="http://www.w3.org/2000/svg" xmlns:xlink="http://www.w3.org/1999/xlink">
    <!-- Generator: Sketch 50.2 (55047) - http://www.bohemiancoding.com/sketch -->
    <title>Group 21</title>
    <desc>Created with Sketch.</desc>
    <defs></defs>
    <g id="visual_ent" stroke="none" stroke-width="1" fill="none" fill-rule="evenodd">
        <g id="03servicios_01" transform="translate(-967.000000, -707.000000)" fill="#FFFFFF" fill-rule="nonzero">
            <g id="Group-5" transform="translate(900.000000, 665.000000)">
                <g id="Group-21" transform="translate(67.000000, 42.000000)">
                    <path d="M40.2296454,22 L34.9407048,22 L32.504959,22 L29.651524,22 L27.2157782,22 L24.3625034,22 L21.9267575,22 L19.0734026,22 L16.6376568,22 L13.7843019,22 L11.348556,22 L8.49520115,22 L6.05945531,22 L0.77043465,22 L0,22 L0,25.8049448 L2.35847015,25.8049448 C2.3263587,25.9639546 2.30866136,26.1274805 2.30866136,26.2947212 C2.30866136,27.7864122 3.64284821,29 5.28277454,29 C6.92270087,29 8.25688772,27.7863394 8.25688772,26.2947212 C8.25688772,26.1274076 8.23927047,25.9639546 8.20707893,25.8049448 L9.11869187,25.8049448 C9.08658042,25.9639546 9.06888308,26.1274805 9.06888308,26.2947212 C9.06888308,27.7864122 10.4030699,29 12.0429963,29 C13.6829226,29 15.0171094,27.7863394 15.0171094,26.2947212 C15.0171094,26.1274076 14.9994922,25.9639546 14.9673007,25.8049448 L26.0319786,25.8049448 C25.9997871,25.9639546 25.9821699,26.1274805 25.9821699,26.2947212 C25.9821699,27.7864122 27.3164368,29 28.9563631,29 C30.5962894,29 31.9304763,27.7863394 31.9304763,26.2947212 C31.9304763,26.1274076 31.912859,25.9639546 31.8806675,25.8049448 L32.7923605,25.8049448 C32.7602491,25.9639546 32.7425517,26.1274805 32.7425517,26.2947212 C32.7425517,27.7864122 34.0768187,29 35.7166649,29 C37.3566713,29 38.6908582,27.7863394 38.6908582,26.2947212 C38.6908582,26.1274076 38.6732409,25.9639546 38.6410494,25.8049448 L40.9994395,25.8049448 L40.9994395,22 L40.2296454,22 Z" id="Shape"></path>
                    <rect id="Rectangle-path-Copy-5" x="3" y="0" width="2" height="19"></rect>
                    <rect id="Rectangle-path-Copy-4" x="29" y="0" width="2" height="19"></rect>
                    <rect id="Rectangle-path-Copy-2" x="16" y="0" width="2" height="19"></rect>
                    <rect id="Rectangle-path-Copy" x="10" y="0" width="2" height="19"></rect>
                    <rect id="Rectangle-path-Copy-7" x="36" y="0" width="2" height="19"></rect>
                    <rect id="Rectangle-path-Copy-3" x="23" y="0" width="2" height="19"></rect>
                </g>
            </g>
        </g>
    </g>
</svg>