<?xml version="1.0" encoding="UTF-8" standalone="no"?>
<svg width="87px" height="51px" viewBox="0 0 87 51" version="1.1" xmlns="http://www.w3.org/2000/svg" xmlns:xlink="http://www.w3.org/1999/xlink">
    <!-- Generator: Sketch 49.3 (51167) - http://www.bohemiancoding.com/sketch -->
    <title>005-delivery-truck</title>
    <desc>Created with Sketch.</desc>
    <defs></defs>
    <g id="visual_ent" stroke="none" stroke-width="1" fill="none" fill-rule="evenodd">
        <g id="01_Home_01destacado_tierra" transform="translate(-394.000000, -577.000000)" fill="#FFFFFF" fill-rule="nonzero">
            <g id="005-delivery-truck" transform="translate(394.000000, 577.000000)">
                <path d="M86.1369685,24.3826937 L81.1173162,21.508711 L78.2495503,9.42685791 C77.4860928,6.2110734 74.613739,3.96523505 71.2645854,3.96523505 L56.8397757,3.96523505 L56.8397757,1.70884105 C56.8397757,0.765032672 56.063744,0 55.1067459,0 L1.73302982,0 C0.776031687,-2.38102675e-15 0,0.765032672 0,1.70884105 L0,42.4420557 C0,43.385864 0.776031687,44.1508967 1.73302982,44.1508967 L7.30288808,44.1508967 C8.10831619,48.0536357 11.6154968,50.9998325 15.8076312,50.9998325 C19.9997656,50.9998325 23.5071162,48.0536357 24.3125443,44.1508967 L59.3972648,44.1508967 L59.3972648,44.1510643 C60.202693,48.0538032 63.7098736,51 67.902008,51 C72.0941424,51 75.601493,48.0538032 76.4069211,44.1510643 L85.2669702,44.1510643 C86.2239683,44.1510643 87,43.3860316 87,42.4422232 L87,25.8604835 C86.9998301,25.2516073 86.6712018,24.6886398 86.1369685,24.3826937 Z M15.8076312,47.5824855 C12.9334083,47.5824855 10.5949481,45.2764967 10.5949481,42.4423908 C10.5949481,39.6082848 12.9334083,37.3022961 15.8076312,37.3022961 C18.6820241,37.3022961 21.0204843,39.6081173 21.0204843,42.4423908 C21.0204843,45.2766642 18.6820241,47.5824855 15.8076312,47.5824855 Z M53.373886,34.6054135 L37.7421236,34.6054135 C36.7851254,34.6054135 36.0090937,35.3704462 36.0090937,36.3142546 C36.0090937,37.2580629 36.7851254,38.0230956 37.7421236,38.0230956 L53.373886,38.0230956 L53.373886,40.7333822 L24.3125443,40.7333822 C23.5071162,36.8306432 19.9997656,33.8844464 15.8076312,33.8844464 C11.6154968,33.8844464 8.10831619,36.8304757 7.30288808,40.7333822 L3.46605964,40.7333822 L3.46605964,31.8951269 L53.373886,31.8951269 L53.373886,34.6054135 Z M53.373886,5.67424364 L53.373886,28.4774448 L3.46605964,28.4774448 L3.46605964,3.41784965 L53.373886,3.41784965 L53.373886,5.67424364 Z M66.8931838,7.38325224 L71.2649253,7.38325224 C72.995916,7.38308469 74.4805205,8.54387014 74.8747385,10.2057972 L77.4148957,20.907542 L66.8933537,20.907542 L66.8933537,7.38325224 L66.8931838,7.38325224 Z M67.902008,47.5824855 C65.1445212,47.5824855 62.8815061,45.4597962 62.7020689,42.7846951 C62.7250083,42.6741122 62.7369029,42.5596757 62.7369029,42.4423908 C62.7369029,42.3251059 62.7248384,42.2106693 62.7020689,42.1000864 C62.8815061,39.4249853 65.1445212,37.3022961 67.902008,37.3022961 C70.7764008,37.3022961 73.1148611,39.6081173 73.1148611,42.4423908 C73.1148611,45.2766642 70.7764008,47.5824855 67.902008,47.5824855 Z M83.5337704,32.6229635 L80.2367827,32.6229635 L80.2367827,30.8139277 L83.5337704,30.8139277 L83.5337704,32.6229635 Z M83.5337704,27.3962456 L78.5037529,27.3962456 C77.5467548,27.3962456 76.7707231,28.1612782 76.7707231,29.1050866 L76.7707231,34.3318046 C76.7707231,35.275613 77.5467548,36.0406456 78.5037529,36.0406456 L83.5337704,36.0406456 L83.5337704,40.7333822 L76.4069211,40.7333822 C75.601493,36.8306432 72.0941424,33.8844464 67.902008,33.8844464 C63.7098736,33.8844464 60.202693,36.8304757 59.3972648,40.7333822 L56.8399456,40.7333822 L56.8399456,7.38308469 L63.4271242,7.38308469 L63.4271242,22.6163831 C63.4271242,23.5601915 64.2031559,24.3252241 65.160154,24.3252241 L79.1336521,24.3252241 L83.5336005,26.8446714 L83.5336005,27.3962456 L83.5337704,27.3962456 Z" id="Shape"></path>
                <path d="M32.2417942,35 L30.7582058,35 C29.7873052,35 29,35.6715364 29,36.5 C29,37.3284636 29.7871328,38 30.7582058,38 L32.2417942,38 C33.2126948,38 34,37.3284636 34,36.5 C34,35.6715364 33.2126948,35 32.2417942,35 Z" id="Shape"></path>
            </g>
        </g>
    </g>
</svg>