<?xml version="1.0" encoding="UTF-8" standalone="no"?>
<svg width="17px" height="18px" viewBox="0 0 17 18" version="1.1" xmlns="http://www.w3.org/2000/svg" xmlns:xlink="http://www.w3.org/1999/xlink">
    <!-- Generator: Sketch 50.2 (55047) - http://www.bohemiancoding.com/sketch -->
    <title>download</title>
    <desc>Created with Sketch.</desc>
    <defs></defs>
    <g id="Page-1" stroke="none" stroke-width="1" fill="none" fill-rule="evenodd">
        <g id="download" transform="translate(1.000000, 1.000000)" fill-rule="nonzero" stroke="#155B9E" stroke-width="2">
            <path d="M14.5702462,8.07085917 C14.3314941,8.07085917 14.1404924,8.28343667 14.1404924,8.54915855 L14.1404924,12.8999114 C14.1404924,14.0832595 13.274618,15.0434012 12.2145586,15.0434012 L2.78544143,15.0434012 C1.72219864,15.0434012 0.85950764,14.0797166 0.85950764,12.8999114 L0.85950764,8.47829938 C0.85950764,8.2125775 0.668505942,8 0.42975382,8 C0.191001698,8 0,8.2125775 0,8.47829938 L0,12.8999114 C0,14.6111603 1.25106112,16 2.78544143,16 L12.2145586,16 C13.7521222,16 15,14.6076174 15,12.8999114 L15,8.54915855 C15,8.28697963 14.8089983,8.07085917 14.5702462,8.07085917 Z" id="Shape"></path>
            <path d="M7.16700227,10.868066 C7.25862069,10.9538231 7.38195318,11 7.50176189,11 C7.6215706,11 7.7449031,10.9571214 7.83652152,10.868066 L10.8599295,8.03808096 C11.0466902,7.86326837 11.0466902,7.58290855 10.8599295,7.40809595 C10.6731689,7.23328336 10.3736471,7.23328336 10.1868865,7.40809595 L7.97747294,9.47946027 L7.97747294,0.445277361 C7.97747294,0.197901049 7.76604581,0 7.50176189,0 C7.23747798,0 7.02605084,0.197901049 7.02605084,0.445277361 L7.02605084,9.47946027 L4.81311352,7.40809595 C4.62635288,7.23328336 4.32683111,7.23328336 4.14007048,7.40809595 C3.95330984,7.58290855 3.95330984,7.86326837 4.14007048,8.03808096 L7.16700227,10.868066 Z" id="Shape"></path>
        </g>
    </g>
</svg>