<?xml version="1.0" encoding="UTF-8" standalone="no"?>
<svg width="27px" height="33px" viewBox="0 0 27 33" version="1.1" xmlns="http://www.w3.org/2000/svg" xmlns:xlink="http://www.w3.org/1999/xlink">
    <!-- Generator: Sketch 50.2 (55047) - http://www.bohemiancoding.com/sketch -->
    <title>lock</title>
    <desc>Created with Sketch.</desc>
    <defs></defs>
    <g id="Page-1" stroke="none" stroke-width="1" fill="none" fill-rule="evenodd">
        <g id="lock" fill-rule="nonzero">
            <path d="M23.3181818,12.2912778 L23.3181818,8.86111111 C23.3181818,3.97527778 18.9135,0 13.5,0 C8.0865,0 3.68181818,3.97527778 3.68181818,8.86111111 L3.68181818,12.2912778 C1.59484091,12.6493889 0,14.4607222 0,16.6405556 L0,28.5828889 C0,31.0181667 1.99002273,33 4.43597727,33 L22.5640227,33 C25.0099773,33 27,31.0181667 27,28.5822778 L27,16.6399444 C27,14.4607222 25.4051591,12.6493889 23.3181818,12.2912778 Z M4.90909091,8.86111111 C4.90909091,4.64872222 8.76272727,1.22222222 13.5,1.22222222 C18.2372727,1.22222222 22.0909091,4.64872222 22.0909091,8.86111111 L22.0909091,12.2222222 L4.90909091,12.2222222 L4.90909091,8.86111111 Z M25.7727273,28.5822778 C25.7727273,30.3441111 24.3331364,31.7777778 22.5640227,31.7777778 L4.43597727,31.7777778 C2.66686364,31.7777778 1.22727273,30.3441111 1.22727273,28.5822778 L1.22727273,16.6399444 C1.22727273,14.8781111 2.66686364,13.4444444 4.43597727,13.4444444 L22.5640227,13.4444444 C24.3331364,13.4444444 25.7727273,14.8781111 25.7727273,16.6399444 L25.7727273,28.5822778 Z" id="Shape" fill="#040303"></path>
            <path d="M13.5,17 C12.12125,17 11,18.1532857 11,19.5714286 L11,23.4285714 C11,24.8467143 12.12125,26 13.5,26 C14.87875,26 16,24.8467143 16,23.4285714 L16,19.5714286 C16,18.1532857 14.87875,17 13.5,17 Z M14.75,23.4285714 C14.75,24.1376429 14.189375,24.7142857 13.5,24.7142857 C12.810625,24.7142857 12.25,24.1376429 12.25,23.4285714 L12.25,19.5714286 C12.25,18.8623571 12.810625,18.2857143 13.5,18.2857143 C14.189375,18.2857143 14.75,18.8623571 14.75,19.5714286 L14.75,23.4285714 Z" id="Shape" fill="#000000"></path>
        </g>
    </g>
</svg>