<?xml version="1.0" encoding="UTF-8" standalone="no"?>
<svg width="62px" height="62px" viewBox="0 0 62 62" version="1.1" xmlns="http://www.w3.org/2000/svg" xmlns:xlink="http://www.w3.org/1999/xlink">
    <!-- Generator: Sketch 49.3 (51167) - http://www.bohemiancoding.com/sketch -->
    <title>Shape</title>
    <desc>Created with Sketch.</desc>
    <defs></defs>
    <g id="visual_ent" stroke="none" stroke-width="1" fill="none" fill-rule="evenodd">
        <g id="01_Home_01destacado_tierra" transform="translate(-179.000000, -2320.000000)" fill="#155B9E" fill-rule="nonzero">
            <g id="Group-8" transform="translate(90.000000, 2310.000000)">
                <g id="806769" transform="translate(89.000000, 10.000000)">
                    <path d="M58.3669456,36.8828064 L58.3669456,12.7275835 C58.3669456,12.7251616 58.3669456,12.7228608 58.3669456,12.7204389 L58.3669456,12.7149897 C58.3669456,12.7056654 58.3657347,12.6967045 58.3656136,12.6873802 C58.3605277,12.3320905 58.2538445,12.0057422 58.0753531,11.7300112 C58.0705094,11.7226245 58.0667555,11.7148744 58.0619117,11.7074877 L58.0590055,11.7031283 C58.0575524,11.7010697 58.0562204,11.69889 58.0547672,11.6968314 L50.7961958,0.808786736 C50.4593143,0.30346153 49.8922347,0 49.284952,0 L16.3475885,0 C15.7403059,0 15.1731051,0.303582624 14.8362237,0.808786736 L7.57728891,11.6973158 C7.57619907,11.69889 7.57523033,11.7003432 7.57426158,11.7019174 L7.57074988,11.7072455 C7.56469521,11.7162065 7.56009367,11.7257729 7.55440229,11.7347339 C7.36549682,12.0285079 7.27177065,12.3558249 7.2671691,12.6873802 C7.26704801,12.6965834 7.26583708,12.7055443 7.26583708,12.7148686 L7.26583708,12.7203178 C7.26583708,12.7227397 7.26583708,12.7250405 7.26583708,12.7274624 L7.26583708,36.5702628 L1.81639872,36.5702628 C0.813262255,36.5702628 0,37.38353 0,38.3866726 L0,60.1835902 C0,61.1867328 0.813262255,62 1.81639872,62 L9.08199361,62 C10.7132408,62 12.178348,61.278522 13.1778516,60.1390276 C15.0864023,60.675474 19.4411577,62 25.5583042,62 L42.0193571,62 C46.0001766,62 49.8026257,60.0987033 52.19119,56.9141737 L60.9114781,45.2873345 C60.9114781,45.2872135 60.9115991,45.2872135 60.9117202,45.2870924 C63.1110158,42.3548015 61.8338453,38.1123948 58.3669456,36.8828064 Z M40.0818652,3.6328196 L48.3129365,3.6328196 L53.1566664,10.8984588 L40.0818652,10.8984588 L40.0818652,3.6328196 Z M29.1834728,3.6328196 L36.4490677,3.6328196 L36.4490677,10.8984588 L29.1834728,10.8984588 L29.1834728,3.6328196 Z M29.1834728,14.5312784 L36.4490677,14.5312784 L36.4490677,23.9732187 L33.8237661,22.2230473 C33.2135772,21.8162926 32.4187211,21.8162926 31.8086533,22.2230473 L29.1834728,23.9732187 L29.1834728,14.5312784 Z M17.3197251,3.6328196 L25.5506754,3.6328196 L25.5506754,10.8984588 L12.4759952,10.8984588 L17.3197251,3.6328196 Z M10.8983923,56.5508917 C10.8983923,57.5524601 10.0835559,58.3673015 9.08199361,58.3673015 L3.63279745,58.3673015 L3.63279745,40.2032035 L9.08199361,40.2032035 C10.0835559,40.2032035 10.8983923,41.018045 10.8983923,42.0196133 L10.8983923,56.5508917 Z M10.8983923,36.8828064 L10.8983923,14.5312784 L25.5506754,14.5312784 L25.5506754,27.367241 C25.5506754,28.816736 27.1705398,29.681347 28.3745699,28.878615 L32.8162703,25.9175037 L37.2579706,28.878615 C38.4584891,29.6791673 40.0818652,28.8224274 40.0818652,27.367241 L40.0818652,14.5312784 L54.7341482,14.5312784 L54.7341482,36.8854705 C53.9142258,37.176096 53.1650219,37.6593821 52.5627041,38.3059029 L47.224066,44.0370391 C46.5340767,41.8185973 44.461929,40.2032035 42.0193571,40.2032035 L33.386014,40.2032035 C32.2111673,40.2032035 31.0784611,39.7757417 30.1965389,38.9996504 C25.4529531,34.8254196 18.3231038,34.788607 13.5345924,38.8841267 C12.8892864,37.9703515 11.9707941,37.2631626 10.8983923,36.8828064 Z M58.0054823,43.1072795 C58.0053612,43.1075217 58.0052401,43.1076428 58.005119,43.107885 L49.284952,54.7344819 C47.5788692,57.0092324 44.8627477,58.3673015 42.0193571,58.3673015 L25.5583042,58.3673015 C21.2989703,58.3673015 17.952074,57.7143627 14.5020063,56.744521 C14.5092719,56.5366026 14.5069711,57.6457024 14.5069711,42.8407516 L15.7969775,41.7268081 C19.2173774,38.7167748 24.3760709,38.7167748 27.7965918,41.7268081 C29.342105,43.0869357 31.3271866,43.835902 33.386014,43.835902 L42.0193571,43.835902 C43.0209194,43.835902 43.8357558,44.6507435 43.8357558,45.6523118 C43.8357558,46.6538802 43.0209194,47.4687216 42.0193571,47.4687216 L28.9412863,47.4687216 C27.9381499,47.4687216 27.1248876,48.2819888 27.1248876,49.2851314 C27.1248876,50.288274 27.9381499,51.1015412 28.9412863,51.1015412 L43.2368286,51.1015412 C44.743713,51.1015412 46.1970742,50.4691884 47.2241871,49.3666277 L55.220943,40.7820328 C55.5687229,40.4087 56.0408654,40.2032035 56.5505469,40.2032035 C58.0468962,40.2032035 58.8967286,41.9192264 58.0054823,43.1072795 Z" id="Shape"></path>
                </g>
            </g>
        </g>
    </g>
</svg>