<?xml version="1.0" encoding="UTF-8" standalone="no"?>
<svg width="86px" height="57px" viewBox="0 0 86 57" version="1.1" xmlns="http://www.w3.org/2000/svg" xmlns:xlink="http://www.w3.org/1999/xlink">
    <!-- Generator: Sketch 49.3 (51167) - http://www.bohemiancoding.com/sketch -->
    <title>001-transport</title>
    <desc>Created with Sketch.</desc>
    <defs></defs>
    <g id="visual_ent" stroke="none" stroke-width="1" fill="none" fill-rule="evenodd">
        <g id="01_Home_03destacado_aire" transform="translate(-1172.000000, -570.000000)" fill="#FFFFFF" fill-rule="nonzero">
            <g id="001-transport" transform="translate(1215.000000, 598.500000) scale(-1, 1) translate(-1215.000000, -598.500000) translate(1172.000000, 570.000000)">
                <path d="M85.5799262,36.9669445 L75.6055347,26.8092111 C76.8384134,26.0418604 77.6349135,24.974993 77.8171578,23.7399791 C78.0237574,22.3428054 77.4454466,20.9907901 76.2127359,19.909212 L80.18667,7.76964052 C80.3331373,7.32387232 80.2583919,6.83431415 79.9886367,6.45286246 C79.7188815,6.07141078 79.2853584,5.84630297 78.8247925,5.84630297 L74.5192914,5.84630297 C74.0241243,5.84630297 73.5649022,6.10647697 73.3022016,6.53325811 L67.7681889,15.5509127 L62.7982098,7.95814265 C62.5297984,7.55188805 62.0819981,7.30779319 61.6027879,7.30779319 L57.2972867,7.30779319 C56.8466309,7.30779319 56.4233538,7.52263772 56.1520869,7.88954977 C55.88082,8.25646181 55.7933091,8.72994085 55.9181087,9.17126163 L58.2646093,17.5385668 L39.5270373,17.5385668 L47.0989951,2.11491866 C47.3213835,1.66179511 47.2970283,1.12399956 47.0358394,0.692770994 C46.7746506,0.263081923 46.312573,0 45.8158942,0 L40.075282,0 C39.6950044,0 39.3290041,0.153435946 39.0605926,0.42814958 L22.2449004,17.551738 C12.5417758,17.811912 9.02555217,20.0452004 4.70291835,25.1634952 C0.512138721,27.6377995 -0.406305488,30.9877321 0.144794631,33.3246796 C0.796339087,36.0767765 3.42838385,37.8672046 7.06655166,38.000114 L16.1095654,38.000114 C15.841154,38.6665426 15.677554,39.4046431 15.677554,40.1923494 C15.677554,43.0132102 17.6093438,45.3077362 19.9830552,45.3077362 C25.4424905,45.3077362 31.2146805,44.1604732 33.4061475,41.702077 L56.5237981,56.7690763 C56.7549209,56.9196044 57.0231643,57 57.2972867,57 L67.3434001,57 C67.9462341,57 68.4844007,56.6156404 68.6910003,56.0396997 C68.8975999,55.4637589 68.728289,54.8163174 68.2675552,54.4203261 L46.7329947,35.9541304 C56.0242639,34.366915 63.0866094,32.2403647 67.0146884,30.8898889 L80.8768468,40.6632626 C81.1222468,40.8356856 81.4077909,40.9234366 81.6948467,40.9234366 C81.9143797,40.9234366 82.1340807,40.8722913 82.3363131,40.7700006 L85.2067033,39.3085104 C85.6200703,39.0981133 85.9071261,38.699043 85.9817035,38.2358272 C86.0549372,37.7707299 85.9057824,37.2986193 85.5799262,36.9669445 Z M75.3142798,8.76945446 L76.8340462,8.76945446 L73.3824899,19.3130869 C72.0649558,19.6668277 70.3758785,19.3963904 69.2263115,18.6904483 L75.3142798,8.76945446 Z M60.8348422,10.2309447 L65.6182098,17.5385668 L61.249553,17.5385668 L59.1986745,10.2309447 L60.8348422,10.2309447 Z M40.6693817,2.92315149 L43.4937488,2.92315149 L36.3180255,17.5385668 L26.3177671,17.5385668 L40.6693817,2.92315149 Z M19.9830552,42.3847557 C19.2181329,42.3847557 18.5479441,41.3601389 18.5479441,40.1925204 C18.5479441,39.0249019 19.2181329,38.0002851 19.9830552,38.0002851 C20.7479774,38.0002851 21.4181662,39.0249019 21.4181662,40.1925204 C21.4181662,41.3601389 20.7464657,42.3847557 19.9830552,42.3847557 Z M23.9541338,42.1640953 C24.167956,41.5561674 24.2885563,40.8911073 24.2885563,40.1925204 C24.2885563,39.4048141 24.1249564,38.6667137 23.8565449,38.0002851 L27.7256675,38.0002851 L30.9346793,40.0917693 C29.9559349,40.8004483 27.6080905,41.7433011 23.9541338,42.1640953 Z M63.4109539,54.0771906 L57.7161967,54.0771906 L26.3221343,33.6156434 L39.5513926,33.6156434 L63.4109539,54.0771906 Z M43.8310268,33.4635759 L40.9994371,31.0359695 C40.7411037,30.8137696 40.4139037,30.6924919 40.075114,30.6924919 L21.4181662,30.6924919 C20.780899,30.6924919 20.2197208,31.1206415 20.040332,31.7432801 C19.8609431,32.3659187 20.1078547,33.0352552 20.6445097,33.3845487 L23.2407775,35.0769626 L19.9859106,35.0769626 C19.9843989,35.0769626 19.9843989,35.0769626 19.9830552,35.0769626 C19.9817114,35.0769626 19.9815435,35.0769626 19.9801997,35.0769626 L7.11828553,35.0769626 C4.87508465,34.9951985 3.27351816,34.0612405 2.93758393,32.6406324 C2.54151746,30.9613897 3.87181704,28.9764725 6.32884007,27.5837462 C6.47816284,27.4989032 6.61152873,27.3878887 6.7235628,27.2549793 C7.30187359,26.5622083 7.85582915,25.9351223 8.40995268,25.3578131 L10.3560197,27.3396513 C10.4880419,27.4741002 10.6472747,27.5808383 10.8224644,27.6554181 C10.9989979,27.7299979 11.1856093,27.7693404 11.3720528,27.7693404 L14.2424429,27.7693404 C15.0345759,27.7693404 15.677554,27.1145435 15.677554,26.3078502 C15.677554,25.5011569 15.0345759,24.84636 14.2424429,24.84636 L11.9661525,24.84636 L10.5768965,23.4315677 C13.2060858,21.5053222 16.5271317,20.5787196 22.8532773,20.4617183 L66.7534996,20.4617183 C68.1083224,21.6909164 69.6596667,21.9232085 71.6489013,21.9232085 C72.3765348,21.9232085 73.0840123,21.9232085 74.5192914,21.9232085 C75.0215131,22.3426343 75.0331028,22.9331147 74.9785135,23.3058426 C74.9168695,23.7238999 74.4101127,24.2471558 73.468657,24.6328839 L72.6635906,23.8130194 C72.3363907,23.4798051 71.8728014,23.3263691 71.4120676,23.4052253 L62.8010653,24.8667155 C62.2256099,24.9647297 61.7648761,25.4089585 61.6357094,25.9891755 C61.5080544,26.5693926 61.7390092,27.1715047 62.2198991,27.5107059 L64.0482212,28.7997731 C59.6063307,30.2161049 52.6343515,32.1146396 43.8310268,33.4635759 Z M81.8125917,37.7678219 L66.7635776,27.1569651 L71.1565896,26.4115093 L82.142815,37.5996753 L81.8125917,37.7678219 Z" id="Shape"></path>
                <path d="M21.3333333,25 L19.6666667,25 C18.7467228,25 18,25.6720506 18,26.5 C18,27.3279494 18.7467228,28 19.6666667,28 L21.3333333,28 C22.2532772,28 23,27.3279494 23,26.5 C23,25.6720506 22.2534722,25 21.3333333,25 Z" id="Shape"></path>
                <path d="M29.3333333,25 L27.6666667,25 C26.7467228,25 26,25.6720506 26,26.5 C26,27.3279494 26.7467228,28 27.6666667,28 L29.3333333,28 C30.2532772,28 31,27.3279494 31,26.5 C31,25.6720506 30.2532772,25 29.3333333,25 Z" id="Shape"></path>
                <path d="M36.3333333,25 L34.6666667,25 C33.7467228,25 33,25.6720506 33,26.5 C33,27.3279494 33.7467228,28 34.6666667,28 L36.3333333,28 C37.2532772,28 38,27.3279494 38,26.5 C38,25.6720506 37.2534722,25 36.3333333,25 Z" id="Shape"></path>
                <path d="M43.3333333,25 L41.6666667,25 C40.7467228,25 40,25.6720506 40,26.5 C40,27.3279494 40.7467228,28 41.6666667,28 L43.3333333,28 C44.2532772,28 45,27.3279494 45,26.5 C45,25.6720506 44.2532772,25 43.3333333,25 Z" id="Shape"></path>
                <path d="M51.3333333,25 L49.6666667,25 C48.7467228,25 48,25.6720506 48,26.5 C48,27.3279494 48.7467228,28 49.6666667,28 L51.3333333,28 C52.2532772,28 53,27.3279494 53,26.5 C53,25.6720506 52.2534722,25 51.3333333,25 Z" id="Shape"></path>
                <path d="M57.3333333,25 L55.6666667,25 C54.7467228,25 54,25.6720506 54,26.5 C54,27.3279494 54.7467228,28 55.6666667,28 L57.3333333,28 C58.2532772,28 59,27.3279494 59,26.5 C59,25.6720506 58.2532772,25 57.3333333,25 Z" id="Shape"></path>
            </g>
        </g>
    </g>
</svg>