<?xml version="1.0" encoding="UTF-8" standalone="no"?>
<svg width="296px" height="245px" viewBox="0 0 296 245" version="1.1" xmlns="http://www.w3.org/2000/svg" xmlns:xlink="http://www.w3.org/1999/xlink">
    <!-- Generator: Sketch 50.2 (55047) - http://www.bohemiancoding.com/sketch -->
    <title>886119</title>
    <desc>Created with Sketch.</desc>
    <defs></defs>
    <g id="diseno_desktop" stroke="none" stroke-width="1" fill="none" fill-rule="evenodd">
        <g id="08error404" transform="translate(-572.000000, -226.000000)" fill="#FFFFFF" fill-rule="nonzero">
            <g id="886119" transform="translate(572.000000, 226.000000)">
                <polygon id="Shape" points="60.6875 145.909091 60.6875 130 54.3125 130 54.3125 145.909091 32 145.909091 32 152.272727 54.3125 152.272727 54.3125 165 60.6875 165 60.6875 152.272727 83 152.272727 83 145.909091"></polygon>
                <polygon id="Shape" points="130.6875 145.909091 130.6875 130 124.3125 130 124.3125 145.909091 102 145.909091 102 152.272727 124.3125 152.272727 124.3125 165 130.6875 165 130.6875 152.272727 153 152.272727 153 145.909091"></polygon>
                <polygon id="Shape" points="60.6875 91.9090909 60.6875 76 54.3125 76 54.3125 91.9090909 32 91.9090909 32 98.2727273 54.3125 98.2727273 54.3125 111 60.6875 111 60.6875 98.2727273 83 98.2727273 83 91.9090909"></polygon>
                <polygon id="Shape" points="130.6875 91.9090909 130.6875 76 124.3125 76 124.3125 91.9090909 102 91.9090909 102 98.2727273 124.3125 98.2727273 124.3125 111 130.6875 111 130.6875 98.2727273 153 98.2727273 153 91.9090909"></polygon>
                <path d="M292.813187,156.087719 L283.101055,156.087719 C281.57967,139.356968 268.175297,125.990277 251.384615,124.477498 L251.384615,86.2261649 C251.384615,73.9708772 241.37611,64 229.076923,64 L171.714286,64 L171.714286,171.964912 L165.340659,171.964912 L165.340659,121.157895 L165.340659,67.1754386 C165.340659,65.418786 163.916791,64 162.153846,64 L92.043956,64 L21.9340659,64 C20.1736703,64 18.7472527,65.418786 18.7472527,67.1754386 L18.7472527,121.157895 L18.7472527,171.964912 L6,171.964912 L6,191.017544 L6,194.192982 L6,210.070175 C6,211.826828 7.42641758,213.245614 9.18681319,213.245614 L18.7472527,213.245614 C18.7472527,223.637554 23.8066374,232.853947 31.5741758,238.649123 L12.3736264,238.649123 L12.3736264,245 L50.6153846,245 C68.1874725,245 82.4835165,230.754982 82.4835165,213.245614 L197.208791,213.245614 C197.208791,223.637554 202.268176,232.853947 210.035714,238.649123 L120.725275,238.649123 L120.725275,245 L292.813187,245 L292.813187,238.649123 L248.118132,238.649123 C255.886308,232.853947 260.945055,223.637554 260.945055,213.245614 L280.065934,213.245614 C281.828879,213.245614 283.252747,211.826828 283.252747,210.070175 L283.252747,194.192982 L283.252747,191.017544 L292.813187,191.017544 C294.576132,191.017544 296,189.598758 296,187.842105 L296,159.263158 C296,157.506505 294.576132,156.087719 292.813187,156.087719 Z M95.2307692,70.3508772 L158.967033,70.3508772 L158.967033,117.982456 L95.2307692,117.982456 L95.2307692,70.3508772 Z M95.2307692,124.333333 L158.967033,124.333333 L158.967033,171.964912 L95.2307692,171.964912 L95.2307692,124.333333 Z M25.1208791,70.3508772 L88.8571429,70.3508772 L88.8571429,117.982456 L25.1208791,117.982456 L25.1208791,70.3508772 Z M25.1208791,124.333333 L88.8571429,124.333333 L88.8571429,171.964912 L25.1208791,171.964912 L25.1208791,124.333333 Z M12.3736264,206.894737 L12.3736264,194.192982 L25.1807912,194.192982 C22.3846813,197.891733 20.3508571,202.196358 19.3897143,206.894737 L12.3736264,206.894737 Z M50.6153846,238.649123 C36.5583516,238.649123 25.1208791,227.252474 25.1208791,213.245614 C25.1208791,199.238754 36.5583516,187.842105 50.6153846,187.842105 C64.6724176,187.842105 76.1098901,199.238754 76.1098901,213.245614 C76.1098901,227.252474 64.6724176,238.649123 50.6153846,238.649123 Z M81.8410549,206.894737 C80.8799121,202.196358 78.8460879,197.891733 76.049978,194.192982 L203.644242,194.192982 C200.845582,197.891733 198.811758,202.196358 197.850615,206.894737 L81.8410549,206.894737 Z M229.076923,238.649123 C215.01989,238.649123 203.582418,227.252474 203.582418,213.245614 C203.582418,199.238754 215.01989,187.842105 229.076923,187.842105 C243.133956,187.842105 254.571429,199.238754 254.571429,213.245614 C254.571429,227.252474 243.133956,238.649123 229.076923,238.649123 Z M276.879121,206.894737 L260.302593,206.894737 C259.341451,202.196358 257.307626,197.891733 254.508967,194.192982 L276.879121,194.192982 L276.879121,206.894737 Z M276.879121,187.842105 L248.118132,187.842105 C242.794879,183.872807 236.219846,181.491228 229.076923,181.491228 C221.934,181.491228 215.358967,183.872807 210.035714,187.842105 L69.6565934,187.842105 C64.3358901,183.872807 57.7583077,181.491228 50.6153846,181.491228 C43.4724615,181.491228 36.8948791,183.872807 31.5741758,187.842105 L12.3736264,187.842105 L12.3736264,178.315789 L21.9340659,178.315789 L92.043956,178.315789 L162.153846,178.315789 L178.087912,178.315789 L178.087912,70.3508772 L229.076923,70.3508772 C237.862967,70.3508772 245.010989,77.4708456 245.010989,86.2255298 L245.010989,130.684211 L248.197802,130.684211 C264.012681,130.684211 276.879121,143.505361 276.879121,159.263158 L276.879121,187.842105 Z M289.626374,184.666667 L283.252747,184.666667 L283.252747,162.438596 L289.626374,162.438596 L289.626374,184.666667 Z" id="Shape"></path>
                <path d="M223.117647,76 L185,76 L185,127 L239,127 L239,91.9375 C239,83.148925 231.875176,76 223.117647,76 Z M232.647059,120.625 L191.352941,120.625 L191.352941,82.375 L223.117647,82.375 C228.373435,82.375 232.647059,86.6634625 232.647059,91.9375 L232.647059,120.625 Z" id="Shape"></path>
                <path d="M229,197 C220.1776,197 213,204.1776 213,213 C213,221.8224 220.1776,229 229,229 C237.8224,229 245,221.8224 245,213 C245,204.17696 237.8224,197 229,197 Z M229,222.6 C223.70528,222.6 219.4,218.29472 219.4,213 C219.4,207.70528 223.70528,203.4 229,203.4 C234.29472,203.4 238.6,207.70528 238.6,213 C238.6,218.29472 234.29472,222.6 229,222.6 Z" id="Shape"></path>
                <path d="M51,197 C42.1776,197 35,204.1776 35,213 C35,221.8224 42.1776,229 51,229 C59.8224,229 67,221.8224 67,213 C67,204.17696 59.8224,197 51,197 Z M51,222.6 C45.70528,222.6 41.4,218.29472 41.4,213 C41.4,207.70528 45.70528,203.4 51,203.4 C56.29472,203.4 60.6,207.70528 60.6,213 C60.6,218.29472 56.29472,222.6 51,222.6 Z" id="Shape"></path>
                <rect id="Rectangle-path" x="108" y="239" width="6" height="6"></rect>
                <rect id="Rectangle-path" x="95" y="239" width="6" height="6"></rect>
                <rect id="Rectangle-path" x="0" y="239" width="6" height="6"></rect>
                <rect id="Rectangle-path" x="232" y="137" width="6" height="13"></rect>
                <rect id="Rectangle-path" x="181" y="38" width="80" height="6"></rect>
                <rect id="Rectangle-path" x="169" y="38" width="6" height="6"></rect>
                <rect id="Rectangle-path" x="54" y="0" width="118" height="6"></rect>
                <rect id="Rectangle-path" x="92" y="19" width="118" height="6"></rect>
                <rect id="Rectangle-path" x="41" y="0" width="6" height="6"></rect>
                <rect id="Rectangle-path" x="29" y="0" width="6" height="6"></rect>
                <rect id="Rectangle-path" x="80" y="19" width="6" height="6"></rect>
            </g>
        </g>
    </g>
</svg>