<?xml version="1.0" encoding="UTF-8" standalone="no"?>
<svg width="18px" height="14px" viewBox="0 0 18 14" version="1.1" xmlns="http://www.w3.org/2000/svg" xmlns:xlink="http://www.w3.org/1999/xlink">
    <!-- Generator: Sketch 49.3 (51167) - http://www.bohemiancoding.com/sketch -->
    <title>Path</title>
    <desc>Created with Sketch.</desc>
    <defs></defs>
    <g id="visual_ent" stroke="none" stroke-width="1" fill="none" fill-rule="evenodd">
        <g id="06noticias_02noticia_01destacado_texto" transform="translate(-758.000000, -1036.000000)" fill="#155B9E">
            <g id="Group" transform="translate(595.000000, 1020.000000)">
                <path d="M179.15725,19.4873491 C179.164,19.6391602 179.1685,19.7909713 179.1685,19.9449358 C179.1685,24.6144736 175.45375,30 168.661,30 C166.57525,30 164.634625,29.4153657 163,28.4129816 C163.289125,28.4452819 163.58275,28.461432 163.880875,28.461432 C165.611125,28.461432 167.203,27.8972545 168.4675,26.9487041 C166.850875,26.9207106 165.487375,25.8989464 165.017125,24.4949627 C165.24325,24.5358763 165.473875,24.5574098 165.712375,24.5574098 C166.04875,24.5574098 166.375,24.5143428 166.6855,24.4335922 C164.99575,24.1095132 163.723375,22.680766 163.723375,20.9688533 L163.723375,20.923633 C164.220625,21.188495 164.791,21.3478428 165.39625,21.3661463 C164.405125,20.7319849 163.752625,19.6499269 163.752625,18.4246712 C163.752625,17.7765131 163.934875,17.1692686 164.25325,16.6470814 C166.074625,18.7853572 168.796,20.1925709 171.865,20.3400754 C171.802,20.0816735 171.769375,19.8114281 171.769375,19.5347228 C171.769375,17.5827117 173.423125,16 175.461625,16 C176.52475,16 177.484375,16.4295932 178.157125,17.1165116 C178.998625,16.9582404 179.7895,16.6643082 180.50275,16.2594786 C180.227125,17.0842113 179.641,17.7765131 178.879375,18.2147197 C179.626375,18.1285857 180.337375,17.939091 181,17.6580789 C180.505,18.3665308 179.878375,18.9888487 179.15725,19.4873491" id="Path"></path>
            </g>
        </g>
    </g>
</svg>