<?xml version="1.0" encoding="UTF-8" standalone="no"?>
<svg width="36px" height="37px" viewBox="0 0 36 37" version="1.1" xmlns="http://www.w3.org/2000/svg" xmlns:xlink="http://www.w3.org/1999/xlink">
    <!-- Generator: Sketch 50.2 (55047) - http://www.bohemiancoding.com/sketch -->
    <title>warehouses</title>
    <desc>Created with Sketch.</desc>
    <defs></defs>
    <g id="Page-1" stroke="none" stroke-width="1" fill="none" fill-rule="evenodd">
        <g id="warehouses" fill="#FFFFFF" fill-rule="nonzero">
            <path d="M6.23932027,32.375 L3.51061164,32.375 C3.22861785,32.375 3,32.5475639 3,32.7604167 C3,32.9732694 3.22861785,33.1458333 3.51061164,33.1458333 L6.23938836,33.1458333 C6.52138215,33.1458333 6.75,32.9732694 6.75,32.7604167 C6.75,32.5475639 6.52131406,32.375 6.23932027,32.375 Z" id="Shape"></path>
            <path d="M7.75232848,30.0625 L3.49760518,30.0625 C3.22279442,30.0625 3,30.2350639 3,30.4479167 C3,30.6607694 3.22279442,30.8333333 3.49760518,30.8333333 L7.75239482,30.8333333 C8.02720558,30.8333333 8.25,30.6607694 8.25,30.4479167 C8.25,30.2350639 8.02720558,30.0625 7.75232848,30.0625 Z" id="Shape"></path>
            <path d="M34.9090312,17.9580078 L27.2636719,17.9580078 L27.2636719,1.12127344 C27.2636719,0.50296875 26.7742969,0 26.1727031,0 L9.82729687,0 C9.22570312,0 8.73632812,0.50296875 8.73632812,1.12127344 L8.73632812,17.9580078 L1.09096875,17.9580078 C0.489375,17.9580078 0,18.4609766 0,19.0792812 L0,35.8787266 C0,36.4970312 0.489375,37 1.09096875,37 L34.9090312,37 C35.510625,37 36,36.4970312 36,35.8787266 L36,19.0792812 C36,18.4609766 35.510625,17.9580078 34.9090312,17.9580078 Z M27.6180469,19.0419922 L27.6180469,23.7508926 L25.8545391,23.7508926 L25.8545391,19.0419922 L27.6180469,19.0419922 Z M18.8817188,1.08398437 L18.8817188,5.79288477 L17.1182109,5.79288477 L17.1182109,1.08398437 L18.8817188,1.08398437 Z M10.1453906,19.0419922 L10.1453906,23.7508926 L8.38188281,23.7508926 L8.38188281,19.0419922 L10.1453906,19.0419922 Z M18.5273437,35.9160156 L18.5273437,19.0419922 L21.9454453,19.0419922 C22.2366797,19.0419922 22.4727891,18.7993242 22.4727891,18.5 C22.4727891,18.2006758 22.2366797,17.9580078 21.9454453,17.9580078 L14.0545547,17.9580078 C13.7633203,17.9580078 13.5272109,18.2006758 13.5272109,18.5 C13.5272109,18.7993242 13.7633203,19.0419922 14.0545547,19.0419922 L17.4726562,19.0419922 L17.4726562,35.9160156 L1.09096875,35.9160156 C1.07760937,35.9160156 1.06551562,30.3037708 1.0546875,19.0792812 C1.0546875,19.0655508 3.14552344,19.0531211 7.32719531,19.0419922 L7.32719531,24.2928848 C7.32719531,24.592209 7.56330469,24.834877 7.85453906,24.834877 L10.6727344,24.834877 C10.9639687,24.834877 11.2000781,24.592209 11.2000781,24.2928848 L11.2000781,19.0419922 L11.7997031,19.0419922 C12.0909375,19.0419922 12.3270469,18.7993242 12.3270469,18.5 C12.3270469,18.2006758 12.0909375,17.9580078 11.7997031,17.9580078 L9.79101562,17.9580078 L9.79101562,1.12127344 C9.79101562,1.10754297 11.8818516,1.09511328 16.0635234,1.08398438 L16.0635234,6.33487695 C16.0635234,6.63420117 16.2996328,6.87686914 16.5908672,6.87686914 L19.4090625,6.87686914 C19.7002969,6.87686914 19.9364062,6.63420117 19.9364062,6.33487695 L19.9364062,1.08398438 L26.1726328,1.08398438 C26.1859922,1.08398438 26.1980859,6.70865885 26.2089141,17.9580078 L24.2001562,17.9580078 C23.9089219,17.9580078 23.6728125,18.2006758 23.6728125,18.5 C23.6728125,18.7993242 23.9089219,19.0419922 24.2001562,19.0419922 L24.7997812,19.0419922 L24.7997812,24.2928848 C24.7997812,24.592209 25.0358906,24.834877 25.327125,24.834877 L28.1453203,24.834877 C28.4365547,24.834877 28.6726641,24.592209 28.6726641,24.2928848 L28.6726641,19.0419922 L34.9088906,19.0419922 C34.92225,19.0419922 34.9343437,24.654237 34.9451719,35.8787266 L18.5273437,35.9160156 Z" id="Shape"></path>
            <path d="M23.4893884,32.375 L20.7606116,32.375 C20.4786179,32.375 20.25,32.5475639 20.25,32.7604167 C20.25,32.9732694 20.4786179,33.1458333 20.7606116,33.1458333 L23.4893884,33.1458333 C23.7713821,33.1458333 24,32.9732694 24,32.7604167 C24,32.5475639 23.7713821,32.375 23.4893884,32.375 Z" id="Shape"></path>
            <path d="M25.0023948,30.0625 L20.7476052,30.0625 C20.4727944,30.0625 20.25,30.2350639 20.25,30.4479167 C20.25,30.6607694 20.4727944,30.8333333 20.7476052,30.8333333 L25.0023948,30.8333333 C25.2772056,30.8333333 25.5,30.6607694 25.5,30.4479167 C25.5,30.2350639 25.2772719,30.0625 25.0023948,30.0625 Z" id="Shape"></path>
            <path d="M14.4893884,14.6458333 L11.7606116,14.6458333 C11.4786179,14.6458333 11.25,14.8183972 11.25,15.03125 C11.25,15.2441028 11.4786179,15.4166667 11.7606116,15.4166667 L14.4893884,15.4166667 C14.7713821,15.4166667 15,15.2441028 15,15.03125 C15,14.8183972 14.7713821,14.6458333 14.4893884,14.6458333 Z" id="Shape"></path>
            <path d="M16.0023948,12.3333333 L11.7476052,12.3333333 C11.4727944,12.3333333 11.25,12.5058972 11.25,12.71875 C11.25,12.9316028 11.4727944,13.1041667 11.7476052,13.1041667 L16.0023948,13.1041667 C16.2772056,13.1041667 16.5,12.9316028 16.5,12.71875 C16.5,12.5058972 16.2772719,12.3333333 16.0023948,12.3333333 Z" id="Shape"></path>
        </g>
    </g>
</svg>