<?xml version="1.0" encoding="utf-8"?>
<!-- Generator: Adobe Illustrator 22.1.0, SVG Export Plug-In . SVG Version: 6.00 Build 0)  -->
<svg version="1.1" id="Capa_1" xmlns="http://www.w3.org/2000/svg" xmlns:xlink="http://www.w3.org/1999/xlink" x="0px" y="0px"
	 viewBox="0 0 186.4 117.3" style="enable-background:new 0 0 186.4 117.3;" xml:space="preserve">
<style type="text/css">
	.st0{fill:#012140;}
</style>
<title>imagotipo_cargo</title>
<g id="Shape">
	<path class="st0" d="M11.9,112.7c0.1,0,0.2,0,0.3,0.1c0.1,0,0.2,0.1,0.3,0.2l1.5,1.6c-0.7,0.9-1.5,1.5-2.5,2
		c-1.1,0.5-2.3,0.7-3.5,0.7c-1.1,0-2.3-0.2-3.3-0.6c-1.9-0.9-3.4-2.5-4.1-4.5c-0.4-1-0.6-2.2-0.6-3.3c0-1.2,0.2-2.3,0.6-3.4
		c0.8-2,2.3-3.5,4.3-4.3c1.6-0.6,3.3-0.8,5-0.4c0.5,0.1,1.1,0.3,1.5,0.4c0.5,0.2,0.9,0.4,1.3,0.7c0.4,0.3,0.8,0.6,1.1,0.9l-1.3,1.7
		l-0.3,0.3c-0.1,0.1-0.3,0.1-0.5,0.1c-0.1,0-0.3,0-0.4-0.1c-0.1-0.1-0.2-0.1-0.4-0.2s-0.3-0.2-0.4-0.3L9.9,104
		c-0.2-0.1-0.5-0.2-0.8-0.2c-0.3-0.1-0.7-0.1-1-0.1c-0.6,0-1.2,0.1-1.7,0.3c-0.5,0.2-1,0.6-1.4,1c-0.4,0.5-0.7,1-0.9,1.6
		c-0.4,1.4-0.4,3,0,4.4c0.2,0.6,0.5,1.2,0.9,1.6s0.9,0.8,1.4,1s1.1,0.3,1.7,0.3c0.3,0,0.6,0,0.9-0.1c0.3,0,0.6-0.1,0.8-0.2
		s0.5-0.2,0.7-0.3s0.4-0.3,0.7-0.5c0.1-0.1,0.2-0.1,0.3-0.2S11.8,112.7,11.9,112.7z"/>
	<path class="st0" d="M30.3,117h-2.9c-0.3,0-0.6-0.1-0.8-0.2c-0.2-0.2-0.4-0.4-0.5-0.6l-1-2.9h-6.2l-1,2.9c-0.1,0.2-0.2,0.4-0.4,0.6
		c-0.2,0.2-0.5,0.3-0.8,0.3h-3l6.3-16.4h3.9L30.3,117z M24.3,110.7l-1.5-4.5c-0.1-0.3-0.2-0.7-0.4-1c-0.1-0.4-0.3-0.8-0.4-1.3
		c-0.1,0.4-0.2,0.9-0.4,1.3c-0.1,0.4-0.2,0.7-0.4,1l-1.5,4.5H24.3z"/>
	<path class="st0" d="M45,117h-3.4c-0.6,0-1.1-0.2-1.4-0.7l-2.7-4.8c-0.1-0.2-0.3-0.4-0.4-0.4c-0.2-0.1-0.5-0.1-0.7-0.1h-1v6.1h-3.8
		v-16.4h5.3c1,0,2,0.1,3,0.4c0.7,0.2,1.4,0.5,2,1c0.5,0.4,0.9,0.9,1.2,1.5c0.2,0.6,0.4,1.2,0.4,1.9c0,0.5-0.1,1-0.2,1.5
		c-0.1,0.5-0.3,0.9-0.6,1.3s-0.6,0.8-1,1.1c-0.4,0.3-0.9,0.6-1.4,0.8c0.3,0.1,0.5,0.3,0.7,0.5s0.4,0.4,0.6,0.7L45,117z M37,108.3
		c0.4,0,0.9-0.1,1.3-0.2c0.3-0.1,0.7-0.3,0.9-0.5s0.4-0.5,0.5-0.8s0.2-0.7,0.2-1c0.1-0.6-0.2-1.3-0.7-1.7c-0.6-0.4-1.4-0.7-2.2-0.6
		h-1.5v4.9L37,108.3L37,108.3z"/>
	<path class="st0" d="M54,108.5h5.8v6.9c-0.8,0.6-1.7,1.1-2.7,1.3c-1,0.3-2,0.4-3,0.4c-1.3,0-2.5-0.2-3.7-0.6c-1.1-0.4-2-1-2.8-1.8
		c-0.8-0.7-1.4-1.7-1.8-2.7c-0.4-1.1-0.6-2.2-0.6-3.3c0-1.2,0.2-2.3,0.6-3.4c0.4-1,1-1.9,1.7-2.6c0.8-0.7,1.7-1.3,2.7-1.7
		c1.2-0.4,2.4-0.6,3.6-0.6c0.6,0,1.3,0.1,1.9,0.2c0.6,0.1,1.2,0.3,1.7,0.5s1,0.4,1.4,0.7c0.4,0.3,0.8,0.6,1.1,0.9l-1.1,1.7
		c-0.2,0.3-0.4,0.4-0.7,0.5s-0.7,0-0.9-0.2c-0.3-0.1-0.5-0.3-0.8-0.5c-0.3-0.1-0.5-0.2-0.8-0.3s-0.6-0.1-0.9-0.2s-0.7-0.1-1-0.1
		c-0.7,0-1.3,0.1-1.9,0.4c-0.6,0.2-1.1,0.6-1.5,1.1s-0.7,1-0.9,1.6c-0.2,0.7-0.3,1.4-0.3,2.1c0,0.8,0.1,1.6,0.4,2.3
		c0.2,0.6,0.6,1.2,1,1.7s1,0.9,1.6,1.1s1.3,0.4,2,0.4c0.4,0,0.8,0,1.2-0.1s0.8-0.2,1.1-0.4v-2.5h-1.6c-0.2,0-0.4-0.1-0.6-0.2
		c-0.1-0.1-0.2-0.3-0.2-0.5V108.5z"/>
	<path class="st0" d="M78.5,108.8c0,1.1-0.2,2.2-0.6,3.3c-0.4,1-1,1.9-1.7,2.7c-0.8,0.8-1.7,1.4-2.7,1.8c-1.1,0.4-2.3,0.6-3.5,0.6
		s-2.4-0.2-3.5-0.6c-1-0.4-2-1-2.7-1.8s-1.3-1.7-1.7-2.7c-0.8-2.1-0.8-4.5,0-6.6c0.4-1,1-1.9,1.7-2.7c0.8-0.8,1.7-1.4,2.7-1.8
		c2.3-0.8,4.7-0.8,7,0c1,0.4,1.9,1,2.7,1.8c0.8,0.8,1.3,1.7,1.7,2.7C78.3,106.6,78.5,107.7,78.5,108.8z M74.6,108.8
		c0-0.7-0.1-1.5-0.3-2.2c-0.2-0.6-0.5-1.1-0.9-1.6s-0.9-0.8-1.4-1c-0.6-0.2-1.2-0.4-1.9-0.4c-0.7,0-1.4,0.1-2,0.4
		c-0.6,0.2-1.1,0.6-1.5,1c-0.4,0.5-0.7,1-0.9,1.6c-0.4,1.4-0.4,3,0,4.4c0.2,0.6,0.5,1.1,0.9,1.6c0.4,0.4,0.9,0.8,1.5,1
		s1.3,0.4,2,0.4s1.3-0.1,1.9-0.4c0.6-0.2,1-0.5,1.4-1s0.7-1,0.9-1.6C74.5,110.3,74.6,109.6,74.6,108.8z"/>
	<path class="st0" d="M95,103.9c-0.1,0.2-0.2,0.3-0.4,0.4c-0.2,0.1-0.3,0.1-0.5,0.1s-0.4-0.1-0.6-0.2s-0.5-0.3-0.7-0.4
		c-0.3-0.2-0.6-0.3-0.9-0.4c-0.4-0.1-0.7-0.2-1.1-0.2c-0.6,0-1.1,0.2-1.6,0.5c-0.3,0.3-0.5,0.7-0.5,1.2c0,0.3,0.1,0.6,0.3,0.8
		c0.2,0.2,0.5,0.4,0.8,0.6c0.4,0.2,0.8,0.3,1.2,0.4c0.4,0.1,0.9,0.3,1.3,0.4s0.9,0.4,1.3,0.6s0.8,0.5,1.2,0.8
		c0.3,0.3,0.6,0.8,0.8,1.2c0.4,1.2,0.4,2.6-0.1,3.8c-0.2,0.6-0.6,1.2-1.1,1.7s-1.1,0.9-1.8,1.2c-0.8,0.3-1.6,0.4-2.5,0.4
		c-0.5,0-1.1-0.1-1.6-0.2s-1-0.3-1.5-0.4c-0.5-0.2-1-0.4-1.4-0.7c-0.4-0.3-0.8-0.6-1.1-0.9l1.1-1.8c0.1-0.1,0.2-0.2,0.4-0.3
		c0.1-0.1,0.3-0.1,0.5-0.1s0.5,0.1,0.7,0.2c0.3,0.2,0.5,0.3,0.8,0.5s0.7,0.4,1,0.5c0.4,0.1,0.9,0.2,1.3,0.2c0.6,0,1.1-0.2,1.6-0.5
		c0.4-0.3,0.6-0.9,0.6-1.4c0-0.3-0.1-0.7-0.3-0.9c-0.2-0.2-0.5-0.4-0.8-0.6c-0.4-0.2-0.8-0.3-1.2-0.4c-0.4-0.1-0.9-0.3-1.3-0.4
		c-0.5-0.1-0.9-0.3-1.3-0.5s-0.8-0.5-1.2-0.8c-0.3-0.4-0.6-0.8-0.8-1.3c-0.2-0.6-0.3-1.3-0.3-1.9s0.1-1.2,0.4-1.8
		c0.2-0.6,0.6-1.2,1.1-1.6c0.5-0.5,1.1-0.9,1.8-1.1c0.8-0.3,1.6-0.4,2.4-0.4c0.5,0,1,0,1.5,0.1l1.4,0.3c0.4,0.2,0.8,0.4,1.2,0.6
		c0.3,0.2,0.7,0.4,1,0.7L95,103.9z"/>
	<polygon class="st0" points="102.2,103.5 102.2,107.3 107.4,107.3 107.4,110.1 102.2,110.1 102.2,114 108.9,114 108.9,116.9 
		98.3,116.9 98.3,100.5 108.9,100.5 108.9,103.4 102.2,103.4 	"/>
	<path class="st0" d="M124.7,117h-3.4c-0.6,0-1.1-0.2-1.4-0.7l-2.7-4.8c-0.1-0.2-0.3-0.4-0.4-0.4c-0.2-0.1-0.5-0.1-0.7-0.1h-1v6.1
		h-3.8v-16.4h5.3c1,0,2,0.1,3,0.4c0.7,0.2,1.4,0.5,2,1c0.5,0.4,0.9,0.9,1.2,1.5c0.2,0.6,0.4,1.2,0.4,1.9c0,0.5-0.1,1-0.2,1.5
		s-0.3,0.9-0.6,1.3c-0.3,0.4-0.6,0.8-1,1.1c-0.4,0.3-0.9,0.6-1.4,0.8c0.3,0.1,0.5,0.3,0.7,0.5s0.4,0.4,0.6,0.7L124.7,117z
		 M116.7,108.3c0.4,0,0.9-0.1,1.3-0.2c0.3-0.1,0.7-0.3,0.9-0.5c0.2-0.2,0.4-0.5,0.5-0.8s0.2-0.7,0.2-1c0-0.6-0.2-1.3-0.7-1.7
		c-0.6-0.4-1.4-0.7-2.2-0.6h-1.6v4.9L116.7,108.3L116.7,108.3z"/>
	<path class="st0" d="M140.2,100.6l-6.6,16.4h-3.4l-6.6-16.4h3.1c0.3,0,0.6,0.1,0.8,0.2c0.2,0.2,0.4,0.4,0.5,0.6l3.2,8.8
		c0.1,0.4,0.3,0.8,0.4,1.3s0.3,0.9,0.4,1.4c0.1-0.5,0.2-1,0.4-1.4c0.1-0.5,0.3-0.9,0.4-1.3l3.2-8.8c0.1-0.2,0.2-0.4,0.4-0.6
		s0.5-0.3,0.8-0.3h3L140.2,100.6z"/>
	<polygon class="st0" points="145.4,117 141.6,117 141.6,100.6 145.4,100.6 	"/>
	<path class="st0" d="M159.6,112.7c0.1,0,0.2,0,0.3,0.1c0.1,0,0.2,0.1,0.3,0.2l1.5,1.6c-0.7,0.9-1.5,1.5-2.5,2
		c-1.1,0.5-2.3,0.7-3.5,0.7c-1.1,0-2.3-0.2-3.3-0.6s-1.8-1-2.5-1.8s-1.3-1.7-1.6-2.7c-0.4-1.1-0.6-2.2-0.6-3.3
		c0-1.2,0.2-2.3,0.6-3.4c0.8-2,2.3-3.5,4.3-4.3c1.6-0.6,3.3-0.8,5-0.4c0.5,0.1,1.1,0.3,1.5,0.4c0.5,0.2,0.9,0.4,1.3,0.7
		c0.4,0.3,0.8,0.6,1.1,0.9l-1.3,1.7l-0.3,0.3c-0.1,0.1-0.3,0.1-0.5,0.1c-0.1,0-0.3,0-0.4-0.1c-0.1-0.1-0.2-0.1-0.4-0.2
		s-0.3-0.2-0.4-0.3l-0.6-0.3c-0.2-0.1-0.5-0.2-0.8-0.2c-0.3-0.1-0.7-0.1-1-0.1c-0.6,0-1.2,0.1-1.7,0.3c-0.5,0.2-1,0.6-1.4,1
		c-0.4,0.5-0.7,1-0.9,1.6c-0.4,1.4-0.4,3,0,4.4c0.2,0.6,0.5,1.2,0.9,1.6s0.9,0.8,1.4,1s1.1,0.3,1.7,0.3c0.3,0,0.6,0,0.9-0.1
		c0.3,0,0.6-0.1,0.8-0.2s0.5-0.2,0.7-0.3s0.4-0.3,0.7-0.5c0.1-0.1,0.2-0.1,0.3-0.2C159.4,112.8,159.5,112.7,159.6,112.7z"/>
	<polygon class="st0" points="167.1,103.5 167.1,107.3 172.3,107.3 172.3,110.1 167.1,110.1 167.1,114 173.8,114 173.8,116.9 
		163.2,116.9 163.2,100.5 173.8,100.5 173.8,103.4 167.1,103.4 	"/>
	<path class="st0" d="M185.3,103.9c-0.1,0.2-0.2,0.3-0.4,0.4c-0.1,0.1-0.3,0.1-0.5,0.1s-0.4-0.1-0.6-0.2c-0.2-0.1-0.5-0.3-0.7-0.4
		c-0.3-0.2-0.6-0.3-0.9-0.4c-0.4-0.1-0.7-0.2-1.1-0.2c-0.6,0-1.1,0.2-1.6,0.5c-0.3,0.3-0.5,0.7-0.5,1.2c0,0.3,0.1,0.6,0.3,0.8
		c0.2,0.2,0.5,0.4,0.8,0.6c0.4,0.2,0.8,0.3,1.2,0.4s0.9,0.3,1.3,0.4s0.9,0.4,1.3,0.6c0.4,0.2,0.8,0.5,1.2,0.8
		c0.3,0.3,0.6,0.8,0.8,1.2c0.4,1.2,0.4,2.6-0.1,3.8c-0.2,0.6-0.6,1.2-1.1,1.7s-1.1,0.9-1.8,1.2c-0.8,0.3-1.6,0.4-2.5,0.4
		c-0.5,0-1.1-0.1-1.6-0.2s-1-0.3-1.5-0.4c-0.5-0.2-1-0.4-1.4-0.7c-0.4-0.3-0.8-0.6-1.1-0.9l1.1-1.8c0.1-0.1,0.2-0.2,0.4-0.3
		c0.1-0.1,0.3-0.1,0.5-0.1s0.5,0.1,0.7,0.2c0.3,0.2,0.5,0.3,0.8,0.5s0.7,0.4,1,0.5c0.4,0.1,0.9,0.2,1.3,0.2c0.6,0,1.1-0.2,1.6-0.5
		c0.4-0.3,0.6-0.9,0.6-1.4c0-0.3-0.1-0.7-0.3-0.9c-0.2-0.2-0.5-0.4-0.8-0.6c-0.4-0.2-0.8-0.3-1.2-0.4s-0.9-0.3-1.3-0.4
		c-0.5-0.1-0.9-0.3-1.3-0.5c-0.4-0.2-0.8-0.5-1.2-0.8c-0.3-0.4-0.6-0.8-0.8-1.3c-0.2-0.6-0.3-1.3-0.3-1.9s0.1-1.2,0.4-1.8
		c0.2-0.6,0.6-1.2,1.1-1.6c0.5-0.5,1.1-0.9,1.8-1.1c0.8-0.3,1.6-0.4,2.4-0.4c0.5,0,1,0,1.5,0.1l1.4,0.3c0.4,0.2,0.8,0.4,1.2,0.6
		c0.3,0.2,0.7,0.4,1,0.7L185.3,103.9z"/>
</g>
<path class="st0" d="M1.1,74.4c0-0.4,0.3-0.8,0.8-0.8c0.8,0,1.5,0,2.3,0.2c0.7,0.1,1.3,0.1,2,0.1C7.1,74,8.1,74,9.1,74
	c1.5-0.5,3.1-0.7,4.7-0.6c1.9,0.1,3.8,0.1,5.6,0c0.6,0,1.2,0,1.8-0.1c0.2,0,0.5,0,0.7,0.1c0.3,0.1,0.6,0.1,0.9-0.1
	c0.4-0.3,0.8-0.3,1.2,0c0.6,0.3,1.3,0.3,2,0.2c1,0,1.9-0.1,2.9-0.1c0.8,0,4.5,0.2,5.3,0.1c0.7-0.2,1.4-0.3,2.1-0.4
	c0.6,0.2,1.2,0.1,1.7-0.1c0.2-0.1,0.4,0.1,0.6,0.1c0.8,0.2,1.6-0.1,2.3,0c0.1,0,2.5,0.4,3.2,0.1c0.2-0.1,0.4-0.2,0.6-0.1
	c0.6,0.3,1.1-0.1,1.6-0.1c1.2-0.1,2.5-0.3,3.7-0.6c0.2-0.1,0.5,0,0.6,0c0.8-0.1,1.5-0.1,2.3,0.1c0.6,0,1.3,0.1,1.9,0.2
	c0.4,0.1,0.8,0.1,1.2,0c0.4-0.2,0.9-0.1,1.2,0.1c0.2,0.1,0.4,0.2,0.7,0c0.6-0.6,1.4-0.3,2.1-0.5c0.5-0.2,2.2,0.4,2.8,0.3
	s1.5-0.1,2-0.2c0.2,0,0.3-0.1,0.4-0.3c0.2-0.3,0.5-0.5,0.7,0c0,0.1,0.1,0.1,0.2,0.1c0.7-0.1,1.3,0.3,2,0c0.2-0.1,0.4-0.1,0.6,0.1
	c0.5,0.2,1,0.6,1.6,0.2c0.1-0.1,0.2,0,0.4,0c0.2,0.1,0.5,0.1,0.7,0c0.6-0.3,1.3-0.3,2-0.1c0.3,0.1,0.7,0,1-0.1
	c0.4-0.2,0.9-0.3,1.3-0.3c0.7,0.1,1.3-0.2,1.6-0.8c0.2-0.3,0.4-0.3,0.6,0c0.4,0.5,1.1,0.7,1.8,0.4c0.3-0.1,0.7-0.2,0.9,0.2
	s3,0.3,3.2-0.1c0.3-0.6,0.6-1.2,1-1.8c0.2-0.1,0.4,0,0.6,0.1c0.2,0.3,0.6,0.4,0.9,0.2c0.1,0,0.1-0.1,0.2-0.2s0.2-0.2,0.4-0.1
	s0.1,0.2,0.1,0.3c-0.2,0.4-0.1,0.9,0.4,1.1c0,0,0.1,0,0.1,0.1c0.4,0.1,0.9,0.2,1.3,0.2c0.1,0,0.5-0.1,0.5-0.3c0-0.4-0.1-0.7-0.4-1
	c-0.4-0.5-0.5-0.5,0.1-0.8c0.2-0.1,0.1-0.2,0.1-0.4c0-0.2,0.1-0.5,0.3-0.6c0.3-0.1,0.5,0,0.6,0.2s0.4,0.3,0.6,0.5
	c0.1,0.1,0.2,0.1,0.2,0c0.1-0.1,0.1-0.1,0-0.2c-0.1-0.3-0.1-0.5,0.2-0.6s0.4,0.2,0.4,0.4s0,0.2,0.2,0.2c0.6-0.1,0.8,0.2,0.8,0.8
	c0,0.4,7.8-0.4,9.8-1.4c0.4-0.2,0.8-0.4,1.3-0.3c0.4,0,0.8,0,1.2-0.2c1.3-0.4,2.7-0.7,4.1-0.9c1.4-0.3,2.7-0.8,4-1.3
	c0.4-0.1,0.8-0.2,1.2-0.3c0.8-0.2,1.6-0.5,2.3-0.9c0,0,0.1,0,0.1-0.1c0.3-0.8,1-1,1.8-1c0.7-0.2,1.3-0.5,1.8-1s1.1-0.8,1.8-0.9
	c0.3-0.1,0.7-0.2,1-0.4c2.1-0.7,4.1-1.7,6.2-2.6l4.4-1.9c0.3-0.1,0.5-0.2,0.7-0.4c0.8-0.6,1.7-1.1,2.7-1.5c0.9-0.3,1.7-0.8,2.4-1.5
	c0.6-0.6,1.2-1.2,1.8-1.7c0.6-0.7,1.5-1.1,2.4-1.1c1.1,0.1,2.2-0.3,3-1.1c0.7-0.5,1.4-1,2.1-1.4c0.2-0.2,0.4-0.4,0.5-0.6
	c0.2-0.9,1.1-1.5,2-1.5c0.6,0,1-0.5,1.4-0.8c0.8-0.5,1.6-1,2.4-1.3c0.2-0.1,0.4-0.3,0.6-0.4c1.1-0.7,2.2-1.7,3-2.8
	c0.3-0.4,0.6-0.8,0.9-1.2c0.1-0.3,0.5-0.5,0.8-0.7c0.7-0.3,1.2-0.9,1.8-1.2c0.9-0.6,1.8-1.2,2.6-1.8s1.6-1.2,2.4-1.9
	s1.7-1.7,2.6-2.5c1.3-1.3,2.8-2.6,4.3-3.7c0.5-0.4,0.9-0.8,1.3-1.3c0.2-0.2,0.4-0.4,0.6-0.7c0.2-0.1,0.4-0.2,0.6-0.1
	c0.2,0.1,0.2,0.3,0.2,0.5c0,0.8,0,0.8,0.9,0.8c0.2,0,0.5-0.1,0.7,0.2c0.1,0.2,0,0.5-0.1,0.6c-0.8,0.9-1.3,2.1-2.5,2.7
	c-0.2,0.1-0.5,0.3-0.6,0.6c-0.4,0.6-0.9,1.2-1.4,1.8c0.7-0.3,1.6-0.1,2.2-0.9c0.4-0.7,1.1-1.1,1.6-1.7c0.3-0.4,0.7-0.2,1.1,0
	s0.1,0.4,0,0.7c-0.2,0.5-0.5,1-0.9,1.4c-0.8,1-1.6,2-2.5,2.9c-1,1-2,2.1-2.9,3.2c-0.2,0.2-0.4,0.4-0.6,0.5c-0.5,0.4-0.9,0.9-1.1,1.5
	c-0.1,0.2,0,0.3,0.2,0.3c0.1,0,0.2,0,0.3,0c1.1-0.6,2.4-0.6,3.1-1.9c0.5-0.8,1.4-1.2,2.1-1.7c0.4-0.3,0.8-0.7,1.1-1.1
	c0.6-0.7,1.2-1.4,2-1.9c0.5-0.4,0.8-0.9,1.4-1.1c0.2-0.1,0.5-0.2,0.7,0s0.1,0.5,0,0.7c-0.3,0.6-0.6,1.2-1,1.8
	c-0.2,0.3-0.1,0.4,0.2,0.5c0.6,0.1,0.6,0.4,0.4,0.9c-0.1,0.2-0.2,0.4-0.4,0.6c-0.3,0.2-0.4,0.5-0.5,0.8s-0.3,0.6-0.6,0.7
	c-0.4,0.3-0.8,0.2-1.1-0.2v-0.1c-0.4-0.6-0.6-0.6-1-0.2c-0.2,0.2-0.4,0.4-0.3,0.7s0.4,0.3,0.6,0.4s0.4,0,0.4,0.1
	c0.5,0.7,0.9,0.1,1.3,0c0.8-0.3,1.2-1.1,2-1.4c0.2-0.1,0.4-0.2,0.6,0s0,0.4-0.1,0.6c-0.1,0.2-0.2,0.3-0.4,0.4
	c-1.5,1.4-3,2.7-4.4,4.1c-0.9,0.8-1.5,1.8-2.3,2.7c-0.6,0.7-1.3,1.2-2,1.7c-1.1,0.7-2.1,1.5-3,2.4c-1,0.9-2.2,1.6-3.4,2.2
	c-1.1,0.6-2.1,1.3-3,2.2c-0.4,0.5-0.8,1-1.2,1.5c-0.5,0.7-1.3,1.2-2.1,1.6c-1.5,0.7-2.8,1.7-4,2.8c-1.1,0.9-2.2,1.7-3.4,2.3
	c-0.3,0.1-0.5,0.2-0.8,0.2c-0.7,0-1.4,0.2-1.9,0.8c-0.6,0.6-1.4,1.1-2.1,1.5c-0.9,0.6-1.9,1.1-2.8,1.7c-0.3,0.2-0.6,0.3-0.9,0.2
	c-0.6-0.1-1.2,0.2-1.4,0.9c-0.3,0.7-2.6,0.9-3,1.1c-1.3,0.8-2.5,1.6-3.8,2.3c-1.1,0.6-2.3,1.1-3.4,1.7c-0.3,0.1-0.6,0.2-0.9,0.2
	c-1,0.2-1.9,0.6-2.7,1.2c-1,0.5-2,1-3,1.4c-0.6,0.3-1.2,0.5-1.8,0.8c-0.5,0.2-1.1,0.3-1.6,0.4c-1,0.2-1.9,0.6-2.7,1.2
	c-0.8,0.4-1.6,0.7-2.4,1c-1.1,0.5-2.3,0.8-3.5,1c-0.9,0.2-1.8,0.5-2.7,0.9c-0.2,0.1-0.4,0.1-0.6,0.1c-0.9,0.1-1.5,0.8-2.4,0.9
	c-0.2,0-0.4,0-0.6,0.1c-1.7,0.1-3.4,0.5-5.1,1c-1,0.3-1.9,0.6-2.9,0.7c-0.4,0.1-0.9,0.2-1.3,0.3c-0.9,0.2-1.9,0-2.7,0.4
	c-0.6,0.3-3.1,0.3-3.7,0.5c-0.8,0.5-1.7,0.8-2.6,1c-0.5,0.1-1,0.1-1.5,0.1c-1.6-0.1-3.1,0-4.6,0.4c-1,0.2-2,0.3-3.1,0.3
	c-0.9,0.1-1.8,0.2-2.7,0.2c-1.4-0.1-2.9,0.2-4.3,0.3c-0.9,0-1.8,0.3-2.6,0.3c-0.7,0.1-1.3,0.1-2,0.1c-0.8-0.1-1.6-0.1-2.4,0
	c-0.2,0.1-0.5,0.1-0.7,0c-0.6-0.1-1.1-0.2-1.7-0.1c-0.5,0-1,0-1.5-0.1c-0.3,0-0.6,0-0.9,0.1c-0.6,0.2-1.2,0.3-1.8,0.1
	c-0.3-0.1-0.6,0-0.8,0.1c-1.8,0.1-3.5,0.1-5.3-0.1c-0.9-0.1-1.9,0-2.8,0.2c-1.5,0-3.1,0.2-4.6,0.2c-1.6,0-3.1,0-4.7,0.2
	c-0.5,0.1-1-0.2-1.5-0.2c-2.1,0-4.1,0.1-6.2,0.3c-2,0.1-4-0.2-5.9-0.3c-0.5,0-1,0-1.5,0.1c-0.6,0.1-1.2,0.1-1.9,0
	c-1.2-0.1-2.3-0.2-3.5-0.1c-0.6,0-1.1,0-1.7,0c-1.1-0.1-2.2-0.1-3.3,0.1c-0.3,0.1-0.7-0.1-1-0.1c-0.6,0-1.1,0-1.7,0.1
	c-1.1,0.1-2.1,0-3.2-0.1c-0.5,0-1,0-1.5,0c-1.2,0-2.3-0.1-3.5-0.3c-1-0.1-2-0.2-2.9-0.2c-0.3,0-0.6,0.2-0.8-0.2 M157.3,46.4
	c0.5,0,1.1-0.2,1.5-0.5c0.7-0.3,1.4-0.9,1.9-1.5c0.3-0.5,0.6-0.9,1-1.3c0.1-0.1,0.2-0.2,0.2-0.3c0.1-0.5,0.5-0.8,1-0.9
	c0.2-0.1,0.4-0.1,0.3-0.4c-0.1-0.2-0.3-0.4-0.5-0.3l0,0c-0.4,0.1-0.7,0.4-1,0.7c-0.7,1-1.7,1.9-2.8,2.5c-0.7,0.3-1.4,0.9-1.8,1.6
	c-0.1,0.1-0.3,0.2-0.2,0.4S157.1,46.3,157.3,46.4L157.3,46.4z M164.2,40.4c0.4-0.1,0.9-0.2,1.2-0.5c0.1,0,0.2-0.2,0.1-0.4
	c-0.1-0.1-0.3-0.1-0.4,0l0,0C164.9,39.7,164.5,39.8,164.2,40.4L164.2,40.4z M170.3,35.4c-0.1,0.3,0.1,0.7,0.4,0.8
	c0.1,0,0.2,0,0.2-0.1s0-0.1,0-0.2c-0.1-0.3-0.1-0.8-0.5-0.9C170.2,34.9,170.4,35.2,170.3,35.4L170.3,35.4z M167,38.4
	c0-0.3-0.1-0.3-0.3-0.3s-0.4,0.2-0.4,0.4s0.2,0.2,0.4,0.2s0.4-0.1,0.4-0.2C167.1,38.4,167.1,38.3,167,38.4L167,38.4z M174.8,41
	c0-0.1-0.1-0.2-0.1-0.2s-0.4,0.1-0.5,0.4c0,0.1,0,0.2,0.1,0.1s0.5-0.2,0.6-0.4L174.8,41z M91,69.5c0.1,0,0.2,0,0.2-0.2
	s-0.1-0.2-0.2-0.2s-0.2,0-0.3,0.1s0.1,0.1,0.3,0.1V69.5z"/>
<path class="st0" d="M0.9,80.3"/>
<path class="st0" d="M1.2,52.1c0-0.1,1,0,1.2,0.2c0.7,0.5,4.3,0.3,5,0.2c0.9-0.1,1.8,0,2.7,0.1c0.4,0.1,0.8,0.1,1.3,0.1
	c0.6,0,1.2,0,1.7,0.1c1.5,0.2,2.9,0.2,4.4,0c0.4,0,1.6,0.3,1.9,0.2s0.6-0.2,0.8-0.1c0.4,0.1,0.8,0.1,1.1-0.1
	c0.9-0.3,1.8-0.4,2.7-0.2c0.1,0,0.3,0,0.4,0c0.6-0.4,1.2-0.1,1.8,0.2h0.1c1.2,0,2.4,0.2,3.5,0.1c0.6,0,1.2-0.1,1.7-0.2
	c0.4-0.1,1.3-0.4,1.3-0.2c0.3-0.2,0.6-0.2,0.9,0c0.4,0.2,0.8,0.2,1.2,0c0.3-0.1,0.6-0.1,0.9,0.1c0.2,0.2,0.6,0.2,0.8,0
	c0,0,0-0.1,0.1-0.1c0.2-0.3,0.5-0.4,0.8-0.2s0.7,0.1,0.9-0.1c0.1,0,0.2,0,0.3,0c1,0.3,2-0.1,3,0.3c0.1,0.1,0.3,0.1,0.4,0
	c0.5-0.3,1-0.1,1.5,0.1c0.5,0.2,1,0.2,1.5,0c0.3-0.1,0.4-0.4,0.7-0.7c0.4-0.1,0.8-0.1,1.2,0c0.3,0,0.3,0,0.4-0.1
	c1-0.2,2.1-0.3,3.1-0.2c0.6,0.3,1.1,0.7,1.6,0.5s2.9,0,3.7-0.1c0.2,0,0.3,0,0.5,0c0.6,0.2,1.2,0.2,1.8-0.1c0.6-0.2,1.3-0.2,1.9-0.2
	c0.6,0,1.1-0.1,1.7-0.2c0.5-0.1,1,0.2,1.4-0.1h0.1c0.2,0,0.4,0,0.6-0.1c0.1,0,0.2,0,0.3,0c1.1,0,2.3-0.2,3.3-0.6
	c0.3-0.1,0.7-0.1,1-0.1c1.3,0.2,2.6,0.2,3.8,0c1.9-0.3,3.8-0.6,5.6-1.1c0.8-0.4,1.7-0.6,2.6-0.8c2-0.2,3.9-1.2,5.8-1.6
	c0.6-0.2,1.2-0.4,1.7-0.7c0.7-0.4,1.4-0.4,2.1-0.7c1.7-0.8,3.5-1.3,5.2-2.3c2-1.1,4.3-1.8,6.4-2.8c1.1-0.5,2.2-1.1,3.2-1.9
	c0.5-0.5,1.1-0.9,1.8-1.1c0.6-0.2,1.2-0.6,1.5-1.1c0.7-0.8,1.6-1.4,2.6-1.8c0.9-0.3,1.6-0.8,2.2-1.5c0.3-0.4,0.7-0.7,1.1-0.8
	c1.1-0.5,1.8-1.3,2.8-1.9c0.4-0.2,0.4-0.7,0.7-0.9c0.6-0.5,1.2-1,1.8-1.4c0.2-0.1,0.4-0.3,0.5-0.4c0.3-0.5,0.8-0.8,1.3-0.9
	c0.1,0,0.2-0.1,0.3-0.3c0.3-0.6,0.8-1.2,1.4-1.6c1.5-1.4,2.9-2.8,4.2-4.4c0.5-0.4,1-0.7,1.5-1c0.4-0.2,0.8-0.5,1.1-0.8
	c0.9-0.8,1.7-1.8,2.3-2.9c0.2-0.4,0.6-0.7,1-1c0.5-0.6,1-1.3,1.4-2c0.4-0.5,0.9-0.8,1.3-1.3c0.8-1.1,1.9-1.9,2.6-3
	c0.4-0.7,1.2-1.1,1.6-1.8c0.5-0.8,1-1.6,1.6-2.3c0.6-0.6,0.9-1.5,1.6-2c0.3-0.4,0.6-0.8,0.9-1.3c0.3-0.3,0.6-0.5,0.8-0.8
	s0.4-0.4,0.6-0.2c0.2,0.2,0.3,0.5,0.1,0.7l0,0c-0.4,0.7-0.9,1.3-1.3,2c-0.3,0.4-0.6,0.9-0.9,1.4c-0.3,0.7-0.9,1.2-1.2,1.9
	c-0.4,0.6-0.7,1.3-0.9,2c-0.1,0.3,0,0.6,0.3,0.8c0.3,0.1,0.4,0.4,0.4,0.7c-0.1,0.5,0.2,0.4,0.5,0.3c0.4-0.3,0.7-0.6,1-1
	c0.6-0.7,1.2-1.3,1.9-1.8c0.3-0.2,0.6-0.5,0.8,0.2c0.1,0.4,0.6,0.7,0.5,1.3c-0.1,0.3-0.2,0.5-0.3,0.8c0,0.4,0.1,0.6,0.5,0.5
	c1.1-0.1,2.1-0.7,2.9-1.5c0.1-0.2,0.3-0.3,0.5-0.4c0.5,0,0.7-0.4,1-0.7s0.6-0.7,0.9-0.5s0.1,0.8-0.1,1.1c-0.5,0.7-0.4,1.5-1,2.2
	c-0.1,0.1-0.1,0.2,0,0.2l0,0c0.1,0.1,0.2,0,0.3,0l0,0c0.3-0.8,1-0.8,1.6-0.9c0.1,0,0.2-0.1,0.3-0.2c0.5-0.6,1.1-0.4,1.7-0.3
	c0.4,0.1,0.5,0.4,0.3,0.8c-0.6,0.9-1.3,1.7-2.1,2.4c-0.3,0.3-0.8,0.5-1.2,0.4c-0.3,0-0.5,0.1-0.7,0.3c-0.5,0.9-1.1,1.7-1.9,2.4
	c-0.4,0.4-0.5,1-0.4,1.6c0,0.7-0.2,1.3-0.7,1.8c-0.4,0.4-0.8,0.8-1,1.3c-0.5,0.9-1.3,1.8-2.1,2.4c-0.3,0.3-0.6,0.6-0.8,0.9
	c-0.3,0.5-0.7,0.9-0.9,1.4c-0.4,0.7-0.9,1.2-1.7,1.5c-0.5,0.1-0.9,0.5-1,1c-0.2,0.5-0.5,0.9-1,1.2c-1,0.9-1.8,1.9-2.4,3
	c-0.1,0.1-0.1,0.3-0.2,0.4c-0.7,0.3-1,1.1-1.7,1.5c-0.2,0.1-0.3,0.2-0.4,0.4c-0.7,0.9-1.5,1.7-2.5,2.2c-0.9,0.5-1.6,1.2-2.5,1.8
	c-0.3,0.2-0.6,0.3-0.9,0.4c-0.3,0-0.6,0.2-0.8,0.4c-0.6,0.8-1.5,1.1-2.1,1.8c-0.3,0.3-0.9,0.3-1.1,0.8c-0.6,0.8-1.3,1.5-2.2,2
	c-0.4,0.3-0.8,0.7-1.2,1.1c-0.6,0.6-1.3,1.1-2,1.5c-1,0.7-2,1.5-3,2.4c-1.2,0.9-2.6,1.4-3.8,2.1c-0.7,0.5-1.4,0.9-2.1,1.2
	c-0.8,0.3-1.5,0.7-2.1,1.2c-1.2,0.8-2.4,1.5-3.7,2.2c-0.8,0.5-1.7,0.9-2.5,1.3c-0.3,0.1-0.5,0.3-0.6,0.6c-0.3,0.5-0.7,0.9-1.2,1.2
	c-0.2,0.5-1.1,1.5-1.3,1.4c-0.4-0.3-0.6-0.3-0.9,0.1c-0.2,0.4-0.6,0.5-1,0.3c0,0-0.1,0-0.1-0.1c-0.2-0.1-0.4-0.2-0.6-0.1
	c-0.7,0.3-1.6,0.1-2.2,0.7c-0.5,0.5-1.1,0.9-1.8,1.1l0,0c-0.2,0.1-0.4,0.1-0.6,0.1c-0.7,0-1.3,0.1-2,0.3c-0.4,0-3.6,0.4-4.2,1
	c-0.3,0.3-0.5,0.5-1,0.2c-0.1-0.1-0.3,0-0.5,0c-0.9,0.4-1.9,0.6-2.9,0.6c-0.7,0-1.5,0.3-2,0.8c-0.3,0.3-0.6,0.3-0.8,0.1
	s-0.5-0.1-0.7,0.1c-0.3,0.4-0.9,0.4-1.3,0.2c-1,0.2-2,0.3-3.1,0.3c-0.7-0.2-1.5-0.3-2.3-0.3c-0.1,0-0.2,0.1-0.3,0.1
	c-0.8,0.2-1.6,0.2-2.4,0c-0.1,0-0.3,0.1-0.4,0.1c-1.8,0.4-3.7,0.6-5.5,0.7c-0.1,0-0.3,0.1-0.4,0.1c-0.3,0.3-0.8,0.4-1.2,0.2
	c-0.3-0.2-0.6,0-0.9,0.1c-0.6,0.1-1.2-0.1-1.8,0.3c-0.2,0.1-0.3,0.1-0.5-0.1c-0.4-0.4-0.7-0.2-1.1,0c-0.3,0.1-0.6,0.2-0.9,0.2
	c-0.1,0-0.3,0-0.3,0c-0.8,0.6-1.7,0.4-2.5,0.5c-0.2,0.1-0.5,0.1-0.7,0c-0.3-0.1-0.7-0.1-1,0.2c-0.2,0.2-0.6,0.3-0.8,0.1
	c-0.3-0.2-0.7-0.2-1,0c-0.2,0.1-0.5,0.1-0.8,0.1c-0.4-0.1-0.8-0.1-1.1,0.2c-0.3,0.2-0.8,0.2-1.1,0c-0.2-0.1-0.5-0.2-0.7,0.1
	s-0.5,0.1-0.8,0c-0.3-0.2-0.8-0.2-1,0.1c-0.2,0.2-0.6,0.3-0.9,0.1c-0.4-0.2-0.9-0.2-1.3-0.1c-0.3,0.1-0.7-0.1-1-0.1
	c-0.9-0.3-1.9,0-2.5,0.8c-0.2,0.2-0.5,0.3-0.7,0.1C37,68,36.1,67.9,35.3,68c-0.2,0.1-0.4-0.1-0.6-0.2c-0.5-0.4-1.2-0.5-1.9-0.2h-0.1
	c-1-0.3-2,0.7-3.1,0.1c-0.1,0-0.2,0-0.3,0.1c-0.4,0.2-1,0.2-1.4,0c-0.3-0.1-0.6-0.2-0.9,0.1c-0.1,0.1-0.2,0.1-0.2,0
	c-0.2-0.4-0.6-0.3-0.9-0.2s-0.4-0.1-0.6-0.2s-0.6-0.5-1-0.2c-0.1,0.1-0.3,0.1-0.4,0c-1-0.3-2-0.3-3,0.1c-0.3,0.1-0.5,0.4-1,0.2
	c-0.2-0.1-0.5,0-0.7-0.2c0,0-0.1,0-0.1-0.1c-0.9,0.2-1.9,0-2.8,0.2c-0.2,0-0.4,0.1-0.5,0.1c-0.4-0.2-0.8-0.1-1.1,0.2
	c-0.1,0.1-0.4,0.1-0.6,0c-0.7-0.3-1.5-0.4-2.3-0.4c-1-0.1-2,0.3-2.9-0.3C8.6,66.9,8.1,67,7.6,67c-0.9,0-2.1,0-3.2,0.1
	c-0.6,0.1-1.3,0.1-1.9,0c-0.2,0-0.4,0-0.5,0.1c-0.4,0.2-0.9,0-1.1-0.4v-0.1 M141.6,11.2c0-0.2,0-0.3-0.1-0.3s-0.2,0-0.3,0.1
	c-0.2,0.4-0.6,0.5-0.8,0.9c-0.1,0.3-0.4,0.4-0.8,0.4c-0.3,0-0.4-0.2-0.4-0.6c0-0.1-0.1-0.2-0.2-0.2l0,0c-0.3,0.1-0.6,0.3-0.7,0.6
	c-0.1,0.2-0.3,0.5-0.1,0.8c0.3,0.3,0.4,0.8,0.2,1.2c-0.1,0.2,0,0.3,0.1,0.4c0.1,0.1,0.3,0.1,0.4,0c0.4-0.2,0.9-0.4,1.1-1
	c0.2-0.4,0.4-0.8,0.8-1.2C141.1,12,141.4,11.6,141.6,11.2L141.6,11.2z M144.6,14.8c-0.3-0.1-0.6,0.1-0.7,0.4v0.1
	c-0.1,0.4-0.1,0.7-0.2,1.1c0,0.1,0,0.2,0.1,0.3c0.1,0,0.2,0,0.3-0.1c0.4-0.3,0.7-0.6,1-1.1C145.4,15.1,145.2,14.8,144.6,14.8
	L144.6,14.8z M136,25.9c0.4-0.2,0.7-0.2,0.9-0.6s0.3-0.9,0.9-1c0.1,0,0.2-0.2,0.1-0.3l0,0c-0.1-0.2-0.2-0.1-0.3,0
	c-0.3,0.2-0.6,0.4-0.9,0.6c-0.3,0.3-0.7,0.5-0.9,0.8S135.7,25.8,136,25.9L136,25.9z M144.1,10.4c0,0.1,0.1,0.1,0.2,0.1
	c0.2,0,0.4-0.1,0.5-0.2c0-0.1,0.1-0.2,0-0.2s-0.3,0.1-0.5,0.2S144.1,10.2,144.1,10.4L144.1,10.4z"/>
<path class="st0" d="M1.1,32.4c0.1,0,0.3,0,0.3,0.2l0,0c0,0.2,0.2,0.3,0.3,0.1c0.2-0.5,0.5-0.3,0.7-0.2c0.6,0.3,7.4,0,7.9,0.2
	c0.3,0.1,0.6,0,0.9-0.1c0.8-0.2,3.4,0.6,3.8,0.6c0.8,0.1,5.4,0.2,5.6,0.1c0.3-0.1,0.7-0.1,1,0c0.5,0.2,1,0.1,1.4-0.1
	c0.5-0.2,1.1-0.2,1.6,0c0.2,0.1,0.5,0.1,0.8,0c0.6-0.1,1.3-0.2,1.9-0.3c0.3,0,0.6,0,0.9,0.2c0.6,0.2,1.2,0.3,1.8,0.1
	c0.6-0.1,1.2,0,1.8-0.1c0.8-0.1,1.7,0,2.5-0.1c0.3,0,0.7,0.1,1,0.1c1.2-0.1,2.4,0.1,3.5-0.4c0.3-0.1,0.7-0.2,1-0.1
	c1,0,2-0.2,2.9-0.4c0.8-0.1,1.6-0.2,2.4-0.3c0.8,0,1.6-0.1,2.4-0.2c0.6-0.2,1.3-0.4,1.9-0.4c1,0.1,2-0.1,2.9-0.6
	c0.4-0.2,0.8-0.2,1.2-0.2c0.8,0,1.7-0.2,2.4-0.5s1.4-0.5,2.2-0.6c0.3,0,0.6-0.2,0.9-0.3c1.4-0.9,2.9-1.5,4.5-1.9
	c0.5-0.2,1-0.4,1.5-0.7c0.2-0.1,0.5-0.2,0.7-0.2c0.6-0.1,1.2-0.4,1.7-0.8c0.5-0.5,1.2-0.5,1.7-0.9c1.5-1,3.1-1.8,4.5-2.8
	c0.7-0.5,1.5-0.8,2.3-1.2c1.3-0.7,2.6-1.5,3.8-2.3c0.4-0.3,0.8-0.7,1.1-1.1c1-0.9,2.5-1.1,3.3-2.4c0.1-0.1,0.2-0.2,0.3-0.2
	c1-0.4,1.9-1.1,2.5-2c0.4-0.4,0.9-0.7,1.4-0.8c0.5,0,0.9-0.3,1.1-0.8c0.4-0.6,1-1.1,1.7-1.4c0.2-0.1,0.4,0,0.5,0.1
	c0.4,0,0.7,0,0.6-0.5c-0.1-0.3,0.1-0.7,0.4-0.8l0,0c0.4-0.2,0.8-0.1,1.1,0.2c0.3,0.3,0.6,0.6,1,0.7c0.2,0.1,0.4,0.3,0.3,0.5
	c0,0,0,0.1-0.1,0.1c-0.3,0.8-0.7,1.4-1.3,2c-0.7,0.6-1.1,1.4-1.8,2c-0.5,0.3-0.9,0.7-1.2,1.2c0.8-0.1,1.6-0.5,2.3-1
	c0.8-0.7,1.3-1.7,2.3-2.2c0.4-0.3,0.8-0.6,1.1-1l0.1-0.1c0.3-0.2,0.6-0.6,0.9-0.4s-0.1,0.5-0.2,0.7s-0.4,0.7,0.3,0.8
	c0.2,0.1,0.4,0,0.5-0.2c0.3-0.5,0.7-0.9,1.2-1.3c0.2-0.2,0.4-0.5,0.6-0.8c0.7-1.1,1.4-2.1,2.3-3c0.4-0.3,0.7-0.7,1-1.2
	c0.1-0.2,0.5-0.5,0.6-0.3c0.3,0.4-0.1,1-0.5,1.4c-0.1,0.1-0.3,0.2-0.1,0.3s0.2,0,0.3-0.1c0.5-0.4,1.3-0.5,1.9-0.3
	c0.3,0,0.6,0.3,0.7,0.6c0.1,0.4,0.4,0.4,0.7,0.3c0.6-0.2,1.1-0.7,1.2-1.3c0-0.2,0.2-0.3,0.3-0.3h0.1c0.1,0,0.2,0.2,0.2,0.3
	c0,0,0,0.1-0.1,0.1c-0.8,0.8-0.9,2-1.8,2.8c-0.2,0.2-0.4,0.4-0.6,0.5c-0.5,0.1-0.9,0.5-0.8,1c0,0.3-0.2,0.6-0.4,0.7
	c-0.8,0.4-1.2,1.2-2,1.6c-0.4,0.2-0.4,0.8-0.7,1.2c-0.8,0.7-1.3,1.6-1.5,2.6c0,0.3-0.2,0.5-0.5,0.7c-0.7,0.3-1.1,0.9-1.2,1.7
	c-0.1,0.4-0.4,0.7-0.8,0.8c-1.3,0.6-2.4,1.5-3.1,2.7c-0.2,0.3-0.4,0.5-0.7,0.6c-0.6,0.4-1,0.9-1.4,1.5c-0.1,0.2-0.3,0.3-0.5,0.4
	c-1.4,0.8-2.6,2-3.5,3.3c-0.3,0.3-0.6,0.6-1,0.8c-0.9,0.3-1.6,0.9-2.1,1.7c-0.1,0.1-0.2,0.2-0.4,0.3c-1.3,0.5-2.4,1.1-3.5,2
	c-0.7,0.4-3.7,3.3-4,3.6c-0.7,0.4-1.4,0.9-2.1,1.4c-0.1,0.1-0.1,0.1-0.2,0.1c-0.7,0.1-1.4,0.4-1.9,0.9c-0.7,0.6-0.8,0.5-1.3,0.4
	c-0.9,0-1.8,0.2-2.7,0.3c-0.2,0-0.4,0.1-0.5,0.3c-0.7,0.5-1.5,0.9-2.3,1.1c-0.1,0-0.2,0.1-0.3,0.2c-1.8,0.6-3.5,1.1-5.4,1.5
	c-0.8,0.1-1.6,0.3-2.2,0.8c-0.1,0.1-3.2,0.3-3.4,0.4c-1,0.4-4.3,1-4.8,1.4c-0.9,0.2-1.7,0.4-2.5,0.7c-0.2,0.1-0.5,0.2-0.7,0.3
	c-1.1,0.2-2.2-0.1-3.2,0.4c-0.7,0.1-1.5,0.1-2.2,0c-0.9-0.1-1.8,0-2.6,0.2c-0.6,0.3-3.5,0-4.3,0.4c-0.1,0.1-1.1-0.2-1.4,0
	c-0.2,0.1-1.4,0.2-2,0.4c-1.4,0.1-2.7,0-4.1-0.2c-0.9-0.4-3.3,0.4-4,0.3c-0.8-0.1-1.5-0.1-2.3-0.1c-0.9,0.1-4.1-0.2-4.8-0.1
	c-0.2,0-0.4,0-0.6-0.1c-1.2-0.3-2.4-0.5-3.7-0.5c-1.1,0.1-2.2,0.1-3.3,0c-1.1-0.2-2.2-0.2-3.3-0.3c-0.4,0.1-0.8,0-1.2-0.1
	c-0.3-0.1-0.6-0.1-1-0.1c-0.2,0-0.4,0-0.6,0c-0.4-0.1-0.8-0.1-1.1,0c-0.2,0.1-0.5,0-0.6-0.2"/>
<path class="st0" d="M1,39.8"/>
<path class="st0" d="M1.2,43.8"/>
<path class="st0" d="M99.9,3.5c0.2,0.3,0.1,0.7-0.2,0.9c-0.4,0.3-0.7,0.8-0.9,1.3c-0.1,0.2-0.2,0.4-0.4,0.3s-0.3-0.3-0.2-0.6
	C98.7,4.7,99.3,4.1,99.9,3.5z"/>
<path class="st0" d="M114.9,57.2c0.1,0.1,0,0.3-0.2,0.3l0,0c-0.2,0.1-0.5,0-0.7-0.1c-0.2-0.2-0.4-0.5-0.6-0.7
	c-0.1-0.1-0.1-0.3,0-0.4l0,0c0.1-0.1,0.2-0.2,0.3-0.1c0.3,0.3,0.6,0.5,1,0.7C114.9,57,114.9,57.1,114.9,57.2z"/>
<path class="st0" d="M96.9,7.9c0.1,0.5-0.3,0.7-0.7,0.9c-0.2,0.1-0.4,0.1-0.5,0c-0.1-0.2-0.1-0.4,0-0.6c0.2-0.2,0.4-0.4,0.6-0.6
	C96.9,7.3,96.9,7.3,96.9,7.9z"/>
<path class="st0" d="M26.2,49.4c0.4,0.2,0.8,0.5,1.1,0.9c0.1,0.1,0,0.3-0.1,0.4c-0.1,0.1-0.3,0.1-0.4,0c-0.2-0.3-0.5-0.4-0.7-0.6
	c-0.2-0.1-0.3-0.3-0.2-0.5C25.8,49.5,26,49.4,26.2,49.4L26.2,49.4z"/>
<path class="st0" d="M35.9,69.9c-0.2,0.4-0.3,0.7-0.5,1.1c-0.1,0.1-0.2,0.2-0.3,0.1s-0.3-0.4-0.2-0.6c0.2-0.3,0.4-0.5,0.7-0.7
	C35.7,69.6,35.8,69.6,35.9,69.9z"/>
<path class="st0" d="M94.2,68c0-0.3,0.1-0.4,0.4-0.4s0.5,0.1,0.4,0.4s-0.2,0.5-0.5,0.5C94.3,68.5,94.2,68.2,94.2,68L94.2,68z"/>
<path class="st0" d="M34,50.8c0,0.3-0.2,0.5-0.5,0.5c-0.2,0-0.3-0.1-0.3-0.3c0,0,0,0,0-0.1c0-0.3,0.3-0.5,0.6-0.5
	C34,50.4,34.1,50.5,34,50.8z"/>
<path class="st0" d="M53.8,49.7c-0.1,0.2-0.2,0.4-0.4,0.4S53,50,53,49.8v-0.1c0-0.3,0.2-0.3,0.4-0.4S53.8,49.6,53.8,49.7z"/>
<path class="st0" d="M116.6,55.3c-0.1,0.3-0.2,0.3-0.4,0.3s-0.3-0.1-0.3-0.3s0.2-0.3,0.4-0.3C116.5,55.1,116.6,55.2,116.6,55.3
	L116.6,55.3z"/>
<path class="st0" d="M103.3,61.1c0.1,0,0.3,0,0.2,0.3s-0.1,0.4-0.4,0.4s-0.3-0.1-0.3-0.3S103,61.1,103.3,61.1z"/>
<path class="st0" d="M103.6,64.7c0.1,0.1,0.2,0.2,0.2,0.4c0,0.2-0.1,0.3-0.4,0.3s-0.3-0.2-0.3-0.4S103.4,64.7,103.6,64.7z"/>
<path class="st0" d="M114.5,55.3c0.2,0,0.3,0.2,0.3,0.3s-0.2,0.3-0.4,0.3s-0.2-0.1-0.2-0.3S114.4,55.4,114.5,55.3z"/>
<path class="st0" d="M93.9,67.1c0,0.2,0,0.4-0.2,0.4s-0.3-0.2-0.4-0.4c0-0.2,0.1-0.3,0.3-0.3l0,0C93.8,66.9,93.9,67,93.9,67.1z"/>
<path class="st0" d="M115.2,60.9c0,0.1-0.1,0.3-0.3,0.3s-0.3-0.1-0.3-0.2s0-0.3,0.2-0.3S115.2,60.7,115.2,60.9z"/>
<path class="st0" d="M115.6,56.3c0,0.1,0,0.3-0.2,0.3c-0.1,0-0.3-0.1-0.3-0.2l0,0c0-0.1,0.1-0.3,0.2-0.3l0,0
	C115.6,55.9,115.6,56.1,115.6,56.3z"/>
<path class="st0" d="M117.2,55.7c0.2,0,0.3,0.2,0.2,0.3l0,0c0,0.1-0.1,0.3-0.2,0.2S117,56,117,55.8S117,55.7,117.2,55.7z"/>
<path class="st0" d="M60,50.4c-0.1,0-0.3-0.1-0.2-0.2c0-0.2,0.2-0.3,0.3-0.3c0.2,0,0.2,0.2,0.2,0.3S60.1,50.5,60,50.4L60,50.4z"/>
<path class="st0" d="M43.9,49.3c-0.1,0.1-0.1,0.4-0.3,0.3c-0.1,0-0.2-0.1-0.2-0.2l0,0c0-0.2,0.1-0.3,0.3-0.3
	C43.8,49,43.9,49.2,43.9,49.3z"/>
<path class="st0" d="M24.9,71.3c-0.2,0-0.3-0.2-0.4-0.3c0-0.1,0-0.2,0.1-0.3h0.1c0.2,0,0.3,0.1,0.3,0.3C25.1,71.1,25,71.2,24.9,71.3
	z"/>
<path class="st0" d="M37.8,47.7c0.2,0,0.3,0.1,0.3,0.3l0,0c0,0.1-0.1,0.3-0.2,0.3c-0.2,0-0.3-0.1-0.3-0.3S37.6,47.7,37.8,47.7z"/>
<path class="st0" d="M90.2,67.8c0,0.2,0,0.3-0.2,0.3s-0.2-0.1-0.2-0.2c0-0.2,0.1-0.3,0.2-0.3c0,0,0,0,0.1,0
	C90.1,67.6,90.2,67.7,90.2,67.8z"/>
<path class="st0" d="M114.1,62.1c-0.2,0-0.2-0.1-0.2-0.2s0.1-0.2,0.2-0.2s0.3,0.1,0.3,0.2c0,0,0,0,0,0.1
	C114.3,62,114.2,62.1,114.1,62.1z"/>
<path class="st0" d="M32.6,49.9c0.1,0,0.2,0.2,0.2,0.3c0,0.2-0.1,0.3-0.3,0.3c-0.1,0-0.2-0.2-0.2-0.3C32.3,50,32.4,49.9,32.6,49.9z"
	/>
<path class="st0" d="M51.9,49.9c0,0.2-0.1,0.2-0.2,0.2s-0.2-0.1-0.2-0.2s0.1-0.3,0.3-0.2S51.9,49.7,51.9,49.9z"/>
<path class="st0" d="M45.4,49.1c0.1,0,0.3,0.1,0.3,0.3s-0.2,0.3-0.3,0.3s-0.2-0.1-0.2-0.3S45.2,49,45.4,49.1z"/>
<path class="st0" d="M97.3,66.7c0.2,0,0.3,0,0.3,0.2c0,0.1-0.1,0.2-0.3,0.2c-0.2,0-0.3-0.1-0.3-0.3C97,66.7,97.2,66.7,97.3,66.7z"/>
<path class="st0" d="M34,70.1c-0.1,0-0.2,0-0.3-0.2c0-0.2,0.1-0.3,0.3-0.3s0.2,0.1,0.2,0.2C34.3,70,34.1,70.1,34,70.1z"/>
<path class="st0" d="M52.7,50.9c-0.3,0-0.2-0.1-0.2-0.3s0-0.3,0.2-0.3s0.2,0.2,0.2,0.4S52.8,50.9,52.7,50.9z"/>
<path class="st0" d="M23.8,70c0.3,0,0.3,0.2,0.3,0.3c0.1,0.1,0,0.2-0.1,0.2c0,0,0,0-0.1,0c-0.2,0-0.2-0.2-0.3-0.4S23.8,70,23.8,70z"
	/>
<path class="st0" d="M23.5,48.9c0,0.1,0,0.2-0.1,0.2s-0.2-0.2-0.3-0.3c0-0.1,0-0.2,0.1-0.2l0,0C23.5,48.6,23.4,48.8,23.5,48.9z"/>
<path class="st0" d="M141.6,11.2c-0.2,0.5-0.5,0.9-0.8,1.2s-0.6,0.7-0.8,1.2c-0.2,0.6-0.7,0.8-1.1,1c-0.1,0.1-0.3,0.1-0.5,0
	c-0.1-0.1-0.1-0.3,0-0.4c0.2-0.4,0.1-0.9-0.2-1.2s-0.1-0.5,0.1-0.8c0.1-0.3,0.4-0.5,0.7-0.6c0.1,0,0.2,0.1,0.3,0.2l0,0
	c0,0.3,0.1,0.5,0.4,0.6c0.3,0.1,0.6-0.1,0.8-0.4c0.1-0.4,0.6-0.6,0.8-0.9c0.1-0.1,0.2-0.2,0.3-0.1C141.6,10.9,141.6,11,141.6,11.2z"
	/>
<path class="st0" d="M144.6,14.8c0.6,0,0.8,0.3,0.5,0.8c-0.3,0.4-0.6,0.8-1,1.1c-0.1,0.1-0.2,0.1-0.3,0.1c-0.1-0.1-0.1-0.2-0.1-0.3
	c0.1-0.4,0.1-0.7,0.2-1.1c0-0.3,0.2-0.5,0.5-0.5C144.5,14.8,144.6,14.8,144.6,14.8z"/>
<path class="st0" d="M136,25.9c-0.3-0.1-0.4-0.3-0.2-0.6c0.2-0.4,0.6-0.5,0.9-0.8c0.3-0.2,0.6-0.4,0.9-0.6c0.1-0.1,0.2-0.1,0.3,0
	s0,0.3-0.1,0.3l0,0c-0.6,0.1-0.7,0.6-0.9,1S136.4,25.7,136,25.9z"/>
<path class="st0" d="M80.7,60.9"/>
<path class="st0" d="M110.8,60.8c0.1-0.1,0.1-0.2,0.2-0.1s0,0.2-0.1,0.2L110.8,60.8z"/>
</svg>
