<svg version="1" xmlns="http://www.w3.org/2000/svg" width="426.667" height="426.667" viewBox="0 0 320.000000 320.000000"><path d="M242.7 94.8c-16.7 21.5-36.6 41-49.8 48.8-1.1.6-2.8 1.9-3.9 2.9-3.8 3.5-22.7 12.8-34.1 17-17 6.1-46.6 10.6-60.8 9.3-3-.3-7-.2-9 .3-5 1.1-51.1 1.8-64.8 1l-11.1-.6-.7 11.8c-.4 6.5-.5 12-.2 12.3.6.6 52.4 1.8 65.7 1.5 8.3-.2 18.4-1 30-2.6 13.5-1.8 20.5-2.5 27.5-2.6 4.4-.1 8.5-.4 9-.8 1-.6 7.2-2.1 17.5-4.2 3-.6 6-1.5 6.6-2 .7-.5 2.9-1.2 5-1.5 2.7-.3 4.7-1.4 6.4-3.4 1.4-1.7 2.8-3 3.2-3 1.2 0 22.3-12.4 26.3-15.4 2.2-1.7 6.9-5.7 10.5-8.9 3.6-3.1 6.8-5.7 7.2-5.7 1.5 0 8-5 11.1-8.6 1.7-2.1 5.5-6.2 8.2-9.1 9.7-10.3 11.1-12.1 14.6-19.7.8-1.6 2.9-3.8 4.7-4.9 3.9-2.3 6.1-5.7 3.7-5.7-.9 0-2.6.5-3.7 1.1-1.8 1-2 .9-1.5-.5.4-.9 1-2.4 1.4-3.3.5-1.2-.7-.7-3.7 1.5-5.3 3.9-6 3.9-6 .7 0-1.4-.5-2.5-1-2.5-.6 0-2 1.1-3.2 2.5-2.6 3-3.5 3.1-4.3.5-.4-1.4.6-4 3-8.1 2.1-3.3 3.5-6.2 3.3-6.4-.2-.2-3.4 3.5-7.1 8.3z"/><path d="M175 100.5c-3.8 5.2-6.9 7.4-5.6 3.9.6-1.5-6.7 3.7-7.9 5.7-.4.5-1.1.9-1.6.9-.6 0 .4-1.8 2.1-4 1.8-2.3 2.9-4.7 2.6-5.5-.6-1.7-2.6-2-2.6-.5 0 .5-.9 1-2 1-1 0-2.4.9-3 2-.6 1.1-1.5 2-2.1 2-.5 0-3.2 1.7-5.8 3.7-31 23.9-53.1 31-97.6 31.6-11.6.1-25.7 0-31.5-.2l-10.5-.4-.3 11.5c-.2 8.8 0 11.5 1 11.5.7 0 6.7.4 13.3.8 27.4 1.8 55.3.5 69.9-3.3 3.9-1.1 10.5-2.7 14.6-3.7s9.3-2.6 11.4-3.6c2.2-1.1 4.9-1.9 6.1-1.9 2.9 0 9-3.3 14.4-7.8 2.5-2.1 6-4.7 7.6-5.8 4-2.5 5-3.3 9.3-7.4 2-1.9 6.3-5.8 9.4-8.7 3.2-2.8 7.6-7.9 9.9-11.3 2.2-3.4 4.7-6.4 5.5-6.7.8-.3 1.4-1 1.4-1.5 0-.6.8-1.7 1.8-2.4 1.6-1.2 1.6-1.4-.3-2.8-1.1-.8-2.8-1.3-3.9-1-1.2.4-1.6.2-1.2-.5.4-.6.5-1.1.2-1.1s-2.4 2.5-4.6 5.5z"/><path d="M167.5 99c-.3.5-.1 1 .4 1 .6 0 1.1-.5 1.1-1 0-.6-.2-1-.4-1-.3 0-.8.4-1.1 1zM293.5 136.2c-4.4 4-10.5 9.1-13.5 11.3-3 2.2-7.3 5.8-9.5 8s-6.1 5-8.7 6.3c-2.6 1.2-4.8 2.6-5 3-.6 1.6-6.4 5-9.4 5.6-1.7.4-4.2 1.9-5.5 3.3-2 2.1-23.4 13.3-25.5 13.3-.7 0-11.5 4.9-13.4 6.1-3 1.9-6.7 3.1-14.5 5-4.4 1.1-9.3 2.4-11 2.9-4.7 1.5-14.2 2.3-16.2 1.5-4.3-1.9-5.6-1.6-4.9 1 .5 2 .3 2.5-1.1 2.5-1 0-2.7-.7-3.8-1.6-1.8-1.3-2.1-1.3-3.6.7s-2 2.1-6.8 1.2c-2.8-.6-5.4-.7-5.6-.3-.7 1.2-11.8 2-15.7 1.1-2-.5-4-.6-4.3-.2-.4.3-6.4.7-13.3.8-7 .1-17.2.4-22.7.7-5.5.3-23.6.6-40.2.8l-30.3.3v23.2l9.3.5c11.4.6 84.4.1 102.7-.6 13.6-.6 32.5-2.6 43.5-4.6 18.1-3.3 42.8-10.1 44-12 .3-.6 1.4-1 2.3-1 2.7 0 34.3-14.7 35-16.3.2-.4 1.1-.7 2-.7 1 0 4.1-1.6 6.9-3.5 2.9-1.9 5.8-3.5 6.5-3.5 1.4-.1 10.4-6.4 18.3-13 2.8-2.2 8.2-6.4 12-9.3 6.6-4.9 22.8-20.9 17.6-17.4-1.8 1.2-2.9 1.3-4.3.6-1-.5-1.6-1.4-1.2-2 .4-.6 1.1-.6 2 .2 1.2 1 1.8.8 2.9-.7.8-1 1.2-2.5 1-3.2-.3-.7 0-2.2.5-3.3 1.9-3.4-.6-2-6.6 3.7-5.5 5.1-10.1 8.1-11.1 7-.2-.2 2.7-3.9 6.6-8.2 6.6-7.2 8.1-9.4 6.4-9.4-.4 0-1.7.9-2.9 2.1-3.9 3.6-4.6 1.6-.9-2.4 3.1-3.3 3.4-4 2.1-5.2-.8-.8-1.6-1.5-1.8-1.5-.2 0-3.9 3.3-8.3 7.2zm0 8.8c.3.5.1 1-.4 1-.6 0-1.1-.5-1.1-1 0-.6.2-1 .4-1 .3 0 .8.4 1.1 1zm-15.7 13.6c-3.6 3.9-6.6 5.9-7.6 4.9-.8-.7 7.8-8.4 9.6-8.5.7 0-.2 1.6-2 3.6z"/></svg>